{"glyphs":{"0":{"ha":846,"x_min":-14,"x_max":863,"o":"m 244 -29 q 115 -3 174 -29 q 22 65 57 22 q -14 157 -14 107 q 74 342 -14 254 q 344 488 163 431 q 476 515 413 508 q 589 521 540 521 q 635 514 635 521 q 604 508 635 514 q 526 491 574 503 q 423 463 478 479 q 318 427 368 447 q 236 383 268 407 q 153 306 190 350 q 93 216 115 263 q 71 126 71 169 q 114 40 71 79 q 253 1 157 1 q 437 40 349 1 q 629 153 525 78 q 701 218 669 182 q 753 292 733 254 q 772 358 772 329 q 744 424 772 403 q 643 446 717 446 q 466 422 550 446 q 301 342 382 397 q 300 341 303 343 q 294 339 297 339 q 288 344 288 339 q 313 373 288 357 q 381 406 339 389 q 471 436 422 422 q 567 459 519 450 q 649 468 614 468 q 806 433 750 468 q 863 338 863 399 q 823 223 863 278 q 717 122 783 168 q 571 42 651 76 q 406 -10 490 8 q 244 -29 321 -29 z "},"1":{"ha":378,"x_min":40,"x_max":449,"o":"m 53 -32 q 40 -24 40 -32 q 53 14 40 -17 q 86 83 67 44 q 122 153 106 121 q 144 194 139 185 q 212 315 183 260 q 263 418 240 371 q 247 413 258 418 q 228 403 235 407 q 207 394 215 394 q 200 401 200 394 q 202 408 200 404 q 213 418 204 413 l 354 526 q 363 528 356 528 q 395 526 374 531 q 433 515 417 522 q 442 499 449 507 q 395 444 425 481 q 329 360 365 407 q 258 265 293 313 q 195 177 222 217 q 156 115 168 138 q 131 74 147 101 q 97 19 114 47 q 69 -28 79 -10 q 53 -32 68 -32 z "},"2":{"ha":585,"x_min":-29,"x_max":674,"o":"m 8 -14 q -15 6 -1 -14 q -29 39 -29 26 q 53 76 -29 54 q 117 97 83 85 q 190 126 151 108 q 313 197 250 154 q 439 285 375 240 q 558 390 526 346 q 592 449 589 433 q 593 461 593 453 q 578 492 593 482 q 539 503 563 503 q 526 502 533 503 q 513 500 519 501 q 249 325 403 475 q 236 319 243 319 q 228 331 228 319 q 272 401 238 367 q 353 463 306 435 q 453 506 401 490 q 550 522 506 522 q 640 501 607 522 q 674 440 674 481 q 621 339 674 388 q 581 306 607 325 q 515 261 554 286 q 460 235 513 260 q 326 167 408 210 q 179 78 182 92 q 222 83 194 81 q 278 88 250 86 q 322 89 307 89 q 428 78 381 89 q 496 53 475 67 q 504 42 504 47 q 499 38 504 38 q 488 40 493 38 q 431 54 458 51 q 374 57 403 57 q 230 43 296 57 q 94 10 164 29 l 8 -14 z "},"3":{"ha":585,"x_min":-14,"x_max":594,"o":"m 165 -33 q 59 -17 101 -33 q 3 35 17 0 q -9 71 -4 53 q -14 103 -14 89 q -5 122 -14 114 q 11 129 4 129 q 22 125 17 129 q 28 118 28 121 q 63 20 28 53 q 164 -12 99 -12 q 251 5 206 -12 q 337 54 297 22 q 401 128 376 86 q 426 217 426 169 q 406 285 426 261 q 353 310 385 310 q 319 303 347 310 q 297 297 306 300 q 282 294 289 294 q 267 306 267 294 q 311 331 267 331 q 319 331 314 331 q 329 328 324 331 l 357 329 q 425 358 390 340 q 484 397 460 375 q 508 440 508 418 q 492 468 508 458 q 450 478 475 478 q 371 457 413 478 q 349 440 358 451 q 336 425 339 429 q 328 421 335 421 q 314 435 314 421 q 322 449 314 439 q 408 502 357 486 q 504 518 460 518 q 573 502 551 518 q 594 463 594 486 q 564 403 594 431 q 489 354 533 375 q 403 322 444 333 q 494 265 475 300 q 514 194 514 231 q 490 108 514 151 q 408 29 465 65 q 289 -19 356 -4 q 165 -33 222 -33 z "},"4":{"ha":569,"x_min":3,"x_max":596,"o":"m 238 -36 q 219 -31 233 -35 q 193 -21 206 -26 q 181 -11 181 -15 q 196 25 181 -1 q 238 97 211 51 q 288 175 271 153 q 308 203 306 197 q 253 200 286 203 q 190 194 219 197 q 150 190 161 192 q 61 181 99 182 q 13 181 24 181 q 4 190 6 181 q 3 206 3 199 q 22 224 3 213 q 63 246 40 235 q 93 263 85 257 q 205 325 153 294 q 313 390 257 356 q 383 436 346 410 q 453 489 419 463 q 509 535 486 515 q 536 561 532 556 q 572 542 547 563 q 596 486 596 522 q 576 465 593 483 q 537 421 560 447 q 492 365 514 394 q 407 249 407 257 l 433 249 q 450 249 440 249 q 472 246 460 249 q 506 224 506 242 q 495 206 506 214 q 469 197 485 197 q 416 200 442 197 q 364 203 390 203 q 299 96 333 161 q 238 -36 264 31 m 104 235 q 214 245 160 242 q 332 249 268 249 q 346 266 332 249 q 379 309 360 283 q 419 363 399 335 q 452 414 439 392 q 465 446 465 436 q 410 415 451 436 q 329 368 369 393 q 222 304 283 340 q 104 235 161 268 z "},"5":{"ha":567,"x_min":0,"x_max":665,"o":"m 167 -24 q 97 -12 133 -24 q 35 17 60 0 q 8 49 15 31 q 0 86 0 68 q 6 126 0 107 q 21 160 13 146 q 38 174 29 174 q 44 165 44 174 q 43 157 44 160 q 28 97 28 138 q 39 53 28 69 q 84 18 56 28 q 143 8 113 8 q 205 16 174 8 q 260 35 236 24 q 369 126 319 64 q 419 243 419 192 q 393 311 419 293 q 370 321 383 318 q 344 324 357 324 q 328 323 336 324 q 314 321 321 322 q 253 301 275 314 q 199 268 231 289 q 185 257 193 263 q 167 244 176 251 q 150 240 158 240 q 124 244 139 240 q 108 257 108 249 q 118 284 108 260 q 156 343 128 308 q 186 381 167 356 q 224 431 206 407 q 247 458 243 454 q 224 471 235 465 q 213 478 213 476 q 233 501 213 489 q 263 514 253 514 q 288 512 267 514 q 317 508 310 510 l 340 508 q 459 512 400 508 q 586 515 518 515 q 621 515 606 515 q 653 511 636 514 l 654 511 q 665 500 665 511 q 656 492 665 492 q 612 492 633 492 q 569 493 590 493 q 456 490 514 493 q 342 475 399 486 q 314 468 335 475 q 289 439 308 461 q 247 388 269 417 q 206 329 224 358 q 276 349 242 340 q 347 358 311 358 q 474 331 426 358 q 522 251 522 303 q 407 63 522 153 q 290 -2 351 19 q 167 -24 228 -24 z "},"6":{"ha":507,"x_min":10,"x_max":488,"o":"m 172 -31 q 103 -17 139 -31 q 49 19 68 -4 q 22 65 33 40 q 10 118 10 90 q 48 241 10 172 q 163 379 86 310 q 308 483 231 442 q 456 553 385 525 q 476 557 468 557 q 483 554 483 557 q 469 540 483 549 q 326 443 399 497 q 200 328 253 389 q 123 216 153 272 q 93 114 93 160 q 115 32 93 60 q 185 4 136 4 q 335 74 267 4 q 380 144 367 107 q 393 215 393 182 q 325 294 393 294 q 295 291 311 294 q 265 282 279 288 q 219 262 235 271 q 194 253 204 253 q 189 258 189 254 q 210 283 189 269 q 258 306 232 296 q 349 325 308 325 q 436 300 397 325 q 474 258 460 286 q 488 206 488 229 q 463 122 488 167 q 385 39 438 76 q 278 -15 333 1 q 172 -31 222 -31 z "},"7":{"ha":513,"x_min":26,"x_max":524,"o":"m 67 -44 q 50 -33 57 -44 q 37 -15 47 -25 q 26 14 26 -6 q 43 53 26 26 q 86 114 60 81 q 142 180 113 147 q 196 235 171 213 q 263 296 224 261 q 338 363 301 331 q 397 414 375 396 q 435 451 418 432 q 451 483 451 469 q 422 499 451 499 q 314 490 372 499 q 203 466 256 482 q 115 424 151 450 q 88 403 101 414 q 56 393 75 393 q 42 403 47 393 q 38 422 38 413 q 45 462 38 440 q 76 490 53 483 q 189 517 128 507 q 310 531 250 526 q 415 535 369 535 q 458 528 433 535 q 503 506 483 521 q 524 467 524 490 q 473 407 524 451 q 318 268 422 363 q 169 119 231 188 q 92 -21 107 50 q 81 -39 89 -33 q 67 -44 74 -44 z "},"8":{"ha":533,"x_min":-49,"x_max":697,"o":"m 64 -3 q -16 14 17 -3 q -49 69 -49 31 q -27 135 -49 99 q 40 208 -6 172 q 94 244 56 219 q 186 300 132 269 q 168 351 172 324 q 164 397 164 378 q 181 453 164 428 q 235 500 197 478 q 312 530 269 521 q 397 539 354 539 q 481 526 442 539 q 543 482 519 514 q 617 517 583 501 q 671 540 651 533 q 679 543 675 543 q 688 543 683 543 q 697 539 697 543 q 675 521 697 532 q 653 511 671 519 q 615 492 636 503 q 577 474 594 482 q 556 465 560 467 q 578 404 578 425 q 569 392 578 392 q 517 446 558 392 q 469 426 507 444 q 383 379 432 407 q 299 328 325 346 q 272 306 274 311 q 289 282 278 301 q 310 235 300 263 q 319 181 319 208 q 297 111 319 144 q 239 53 274 78 q 64 -3 163 -3 m 256 335 q 344 388 285 354 q 493 471 404 421 q 453 508 479 494 q 385 522 428 522 q 275 494 324 522 q 236 458 247 479 q 225 414 225 438 q 256 335 225 386 m 86 18 q 146 38 117 18 q 200 85 175 58 q 232 134 224 110 q 240 185 240 158 q 230 222 240 200 q 206 268 219 244 q 160 242 192 265 q 101 188 129 219 q 52 121 69 150 q 35 69 35 92 q 86 18 35 18 z "},"9":{"ha":526,"x_min":17,"x_max":538,"o":"m 214 -51 q 207 -39 207 -51 q 241 90 207 4 q 364 294 275 176 q 246 219 315 250 q 114 189 176 189 q 44 213 72 189 q 17 276 17 238 q 53 372 17 319 q 163 472 90 425 q 302 536 232 517 q 429 556 372 556 q 510 535 483 556 q 538 483 538 515 q 521 431 538 451 q 506 419 517 426 q 494 425 494 411 q 497 438 494 429 q 501 453 500 446 q 510 485 510 474 q 433 529 510 529 q 225 439 344 529 q 108 276 108 350 q 160 231 108 231 q 264 259 217 231 q 351 327 311 288 q 426 399 392 367 q 428 399 425 397 q 435 401 432 401 q 458 399 439 401 q 483 390 478 396 q 499 376 490 385 q 508 364 508 367 q 424 256 508 358 q 297 93 344 158 q 239 -12 249 28 q 228 -40 236 -28 q 214 -51 221 -51 z "},"\r":{"ha":253,"x_min":0,"x_max":0,"o":""}," ":{"ha":253,"x_min":0,"x_max":0,"o":""}," ":{"ha":253,"x_min":0,"x_max":0,"o":""},"A":{"ha":1221,"x_min":14,"x_max":1388,"o":"m 240 -79 q 140 -66 193 -79 q 51 -20 88 -53 q 14 71 14 13 q 40 158 14 119 q 101 226 67 197 q 223 290 151 267 q 377 326 294 314 q 545 342 460 338 q 707 346 631 346 q 777 345 743 346 q 840 344 811 344 q 931 436 879 381 q 1038 555 982 492 q 1150 674 1094 618 q 1172 683 1160 683 q 1185 682 1179 683 q 1197 676 1192 681 q 1224 728 1210 701 q 1256 776 1239 754 q 1284 798 1263 786 q 1328 819 1306 810 q 1363 829 1351 829 q 1388 808 1388 829 q 1384 797 1388 803 q 1378 789 1381 792 q 1241 560 1300 679 q 1139 313 1182 440 q 1167 307 1149 311 q 1202 297 1186 303 q 1218 279 1218 290 q 1211 267 1218 267 q 1193 267 1204 267 q 1163 274 1181 267 q 1131 283 1146 282 q 1094 150 1113 222 q 1076 13 1076 78 q 1085 -26 1076 -15 q 1119 -33 1093 -36 q 1153 -20 1135 -31 q 1185 1 1171 -10 q 1190 4 1190 4 q 1199 -8 1199 4 q 1194 -19 1199 -15 q 1137 -57 1171 -43 q 1085 -71 1103 -71 q 1026 -42 1042 -71 q 1010 25 1010 -12 q 1026 162 1010 90 q 1057 296 1042 233 q 1022 299 1040 299 q 985 299 1004 299 q 919 297 950 299 q 869 294 888 296 q 737 167 808 232 q 585 46 665 101 q 417 -44 504 -10 q 240 -79 331 -79 m 1064 324 q 1107 465 1083 393 q 1161 603 1131 536 q 1038 471 1101 539 q 913 339 974 403 q 989 334 949 338 q 1064 324 1029 331 m 179 -26 q 344 3 261 -26 q 506 82 426 33 q 657 187 585 131 q 790 297 729 243 q 678 294 747 297 q 526 283 608 290 q 363 259 444 275 q 213 217 282 243 q 101 150 144 190 q 53 53 58 110 q 71 5 50 22 q 123 -19 92 -12 q 179 -26 154 -26 z "},"Æ":{"ha":1681,"x_min":11,"x_max":1983,"o":"m 236 -79 q 137 -67 189 -79 q 48 -22 85 -54 q 11 68 11 10 q 49 174 11 128 q 153 256 88 221 q 299 316 218 290 q 468 359 381 342 q 640 388 556 376 q 792 405 724 399 q 903 414 860 411 q 1072 554 993 497 q 1227 647 1150 611 q 1388 701 1304 682 q 1572 726 1472 719 q 1796 733 1671 733 q 1851 732 1819 733 q 1913 727 1883 731 q 1963 715 1943 724 q 1983 693 1983 707 q 1962 673 1983 678 q 1929 668 1940 668 q 1887 681 1914 675 q 1833 690 1860 686 q 1788 693 1806 693 q 1634 685 1693 693 q 1536 660 1575 678 q 1464 613 1497 643 q 1388 540 1431 583 q 1279 435 1346 496 q 1426 440 1353 435 q 1572 446 1499 446 q 1622 447 1596 446 q 1669 440 1647 447 l 1682 428 q 1660 410 1681 415 q 1624 403 1639 406 q 1555 397 1599 399 q 1459 392 1511 394 q 1357 385 1407 389 q 1267 377 1307 382 q 1210 364 1228 372 q 1167 333 1189 356 q 1125 284 1144 310 q 1093 238 1106 258 q 1056 171 1076 211 q 1036 99 1036 131 q 1063 51 1036 67 q 1124 30 1089 35 q 1181 25 1158 25 q 1368 42 1279 25 q 1549 93 1457 60 q 1578 108 1554 96 q 1631 135 1603 119 q 1681 161 1660 150 q 1703 172 1703 172 q 1717 163 1713 172 q 1721 147 1722 154 q 1638 89 1693 117 q 1515 38 1583 61 q 1374 -1 1446 15 q 1238 -26 1301 -17 q 1131 -35 1174 -35 q 1066 -31 1101 -35 q 999 -17 1031 -28 q 947 17 967 -6 q 926 78 926 40 q 954 183 926 131 q 1021 281 982 235 q 1094 363 1060 328 q 1003 358 1049 361 q 914 350 958 356 q 770 207 846 282 q 611 67 694 132 q 434 -38 528 3 q 236 -79 340 -79 m 982 415 q 1150 424 1068 422 q 1242 508 1192 464 q 1344 597 1293 553 q 1435 682 1394 642 q 1321 645 1383 674 q 1194 576 1258 617 q 1075 494 1131 536 q 982 415 1019 451 m 206 -37 q 387 -3 301 -37 q 548 89 472 32 q 693 213 624 146 q 826 346 763 281 q 718 333 790 342 q 557 310 646 325 q 377 274 468 296 q 210 221 286 251 q 86 149 133 190 q 39 56 39 108 q 58 11 39 29 q 103 -17 76 -7 q 159 -33 131 -28 q 206 -37 188 -37 z "},"Ǽ":{"ha":1681,"x_min":11,"x_max":1983,"o":"m 236 -79 q 137 -67 189 -79 q 48 -22 85 -54 q 11 68 11 10 q 49 174 11 128 q 153 256 88 221 q 299 316 218 290 q 468 359 381 342 q 640 388 556 376 q 792 405 724 399 q 903 414 860 411 q 1072 554 993 497 q 1227 647 1150 611 q 1388 701 1304 682 q 1572 726 1472 719 q 1796 733 1671 733 q 1851 732 1819 733 q 1913 727 1883 731 q 1963 715 1943 724 q 1983 693 1983 707 q 1962 673 1983 678 q 1929 668 1940 668 q 1887 681 1914 675 q 1833 690 1860 686 q 1788 693 1806 693 q 1634 685 1693 693 q 1536 660 1575 678 q 1464 613 1497 643 q 1388 540 1431 583 q 1279 435 1346 496 q 1426 440 1353 435 q 1572 446 1499 446 q 1622 447 1596 446 q 1669 440 1647 447 l 1682 428 q 1660 410 1681 415 q 1624 403 1639 406 q 1555 397 1599 399 q 1459 392 1511 394 q 1357 385 1407 389 q 1267 377 1307 382 q 1210 364 1228 372 q 1167 333 1189 356 q 1125 284 1144 310 q 1093 238 1106 258 q 1056 171 1076 211 q 1036 99 1036 131 q 1063 51 1036 67 q 1124 30 1089 35 q 1181 25 1158 25 q 1368 42 1279 25 q 1549 93 1457 60 q 1578 108 1554 96 q 1631 135 1603 119 q 1681 161 1660 150 q 1703 172 1703 172 q 1717 163 1713 172 q 1721 147 1722 154 q 1638 89 1693 117 q 1515 38 1583 61 q 1374 -1 1446 15 q 1238 -26 1301 -17 q 1131 -35 1174 -35 q 1066 -31 1101 -35 q 999 -17 1031 -28 q 947 17 967 -6 q 926 78 926 40 q 954 183 926 131 q 1021 281 982 235 q 1094 363 1060 328 q 1003 358 1049 361 q 914 350 958 356 q 770 207 846 282 q 611 67 694 132 q 434 -38 528 3 q 236 -79 340 -79 m 982 415 q 1150 424 1068 422 q 1242 508 1192 464 q 1344 597 1293 553 q 1435 682 1394 642 q 1321 645 1383 674 q 1194 576 1258 617 q 1075 494 1131 536 q 982 415 1019 451 m 206 -37 q 387 -3 301 -37 q 548 89 472 32 q 693 213 624 146 q 826 346 763 281 q 718 333 790 342 q 557 310 646 325 q 377 274 468 296 q 210 221 286 251 q 86 149 133 190 q 39 56 39 108 q 58 11 39 29 q 103 -17 76 -7 q 159 -33 131 -28 q 206 -37 188 -37 m 1454 793 q 1443 804 1443 793 q 1450 814 1446 811 q 1525 868 1485 842 q 1608 921 1565 894 q 1626 929 1619 928 q 1638 931 1632 931 q 1648 921 1644 929 q 1651 901 1651 913 q 1647 884 1651 892 q 1636 874 1642 876 q 1606 857 1632 869 q 1547 829 1581 844 q 1488 803 1514 814 q 1454 793 1461 792 z "},"Á":{"ha":1221,"x_min":14,"x_max":1471,"o":"m 240 -79 q 140 -66 193 -79 q 51 -20 88 -53 q 14 71 14 13 q 40 158 14 119 q 101 226 67 197 q 223 290 151 267 q 377 326 294 314 q 545 342 460 338 q 707 346 631 346 q 777 345 743 346 q 840 344 811 344 q 931 436 879 381 q 1038 555 982 492 q 1150 674 1094 618 q 1172 683 1160 683 q 1185 682 1179 683 q 1197 676 1192 681 q 1224 728 1210 701 q 1256 776 1239 754 q 1284 798 1263 786 q 1328 819 1306 810 q 1363 829 1351 829 q 1388 808 1388 829 q 1384 797 1388 803 q 1378 789 1381 792 q 1241 560 1300 679 q 1139 313 1182 440 q 1167 307 1149 311 q 1202 297 1186 303 q 1218 279 1218 290 q 1211 267 1218 267 q 1193 267 1204 267 q 1163 274 1181 267 q 1131 283 1146 282 q 1094 150 1113 222 q 1076 13 1076 78 q 1085 -26 1076 -15 q 1119 -33 1093 -36 q 1153 -20 1135 -31 q 1185 1 1171 -10 q 1190 4 1190 4 q 1199 -8 1199 4 q 1194 -19 1199 -15 q 1137 -57 1171 -43 q 1085 -71 1103 -71 q 1026 -42 1042 -71 q 1010 25 1010 -12 q 1026 162 1010 90 q 1057 296 1042 233 q 1022 299 1040 299 q 985 299 1004 299 q 919 297 950 299 q 869 294 888 296 q 737 167 808 232 q 585 46 665 101 q 417 -44 504 -10 q 240 -79 331 -79 m 1064 324 q 1107 465 1083 393 q 1161 603 1131 536 q 1038 471 1101 539 q 913 339 974 403 q 989 334 949 338 q 1064 324 1029 331 m 179 -26 q 344 3 261 -26 q 506 82 426 33 q 657 187 585 131 q 790 297 729 243 q 678 294 747 297 q 526 283 608 290 q 363 259 444 275 q 213 217 282 243 q 101 150 144 190 q 53 53 58 110 q 71 5 50 22 q 123 -19 92 -12 q 179 -26 154 -26 m 1274 878 q 1263 889 1263 878 q 1269 899 1265 896 q 1344 953 1304 926 q 1428 1006 1385 979 q 1445 1014 1439 1013 q 1457 1015 1451 1015 q 1467 1006 1464 1014 q 1471 986 1471 997 q 1466 969 1471 976 q 1456 958 1461 961 q 1426 942 1451 954 q 1367 914 1400 929 q 1307 888 1333 899 q 1274 878 1281 876 z "},"Ă":{"ha":1221,"x_min":14,"x_max":1497,"o":"m 240 -79 q 140 -66 193 -79 q 51 -20 88 -53 q 14 71 14 13 q 40 158 14 119 q 101 226 67 197 q 223 290 151 267 q 377 326 294 314 q 545 342 460 338 q 707 346 631 346 q 777 345 743 346 q 840 344 811 344 q 931 436 879 381 q 1038 555 982 492 q 1150 674 1094 618 q 1172 683 1160 683 q 1185 682 1179 683 q 1197 676 1192 681 q 1224 728 1210 701 q 1256 776 1239 754 q 1284 798 1263 786 q 1328 819 1306 810 q 1363 829 1351 829 q 1388 808 1388 829 q 1384 797 1388 803 q 1378 789 1381 792 q 1241 560 1300 679 q 1139 313 1182 440 q 1167 307 1149 311 q 1202 297 1186 303 q 1218 279 1218 290 q 1211 267 1218 267 q 1193 267 1204 267 q 1163 274 1181 267 q 1131 283 1146 282 q 1094 150 1113 222 q 1076 13 1076 78 q 1085 -26 1076 -15 q 1119 -33 1093 -36 q 1153 -20 1135 -31 q 1185 1 1171 -10 q 1190 4 1190 4 q 1199 -8 1199 4 q 1194 -19 1199 -15 q 1137 -57 1171 -43 q 1085 -71 1103 -71 q 1026 -42 1042 -71 q 1010 25 1010 -12 q 1026 162 1010 90 q 1057 296 1042 233 q 1022 299 1040 299 q 985 299 1004 299 q 919 297 950 299 q 869 294 888 296 q 737 167 808 232 q 585 46 665 101 q 417 -44 504 -10 q 240 -79 331 -79 m 1064 324 q 1107 465 1083 393 q 1161 603 1131 536 q 1038 471 1101 539 q 913 339 974 403 q 989 334 949 338 q 1064 324 1029 331 m 179 -26 q 344 3 261 -26 q 506 82 426 33 q 657 187 585 131 q 790 297 729 243 q 678 294 747 297 q 526 283 608 290 q 363 259 444 275 q 213 217 282 243 q 101 150 144 190 q 53 53 58 110 q 71 5 50 22 q 123 -19 92 -12 q 179 -26 154 -26 m 1346 876 q 1276 907 1300 876 q 1253 971 1253 938 q 1261 999 1253 988 q 1279 1011 1269 1011 q 1293 994 1293 1011 q 1310 951 1293 968 q 1356 933 1328 933 q 1424 950 1392 933 q 1479 1001 1456 967 q 1490 1007 1485 1007 q 1497 1000 1497 1007 q 1497 995 1497 999 q 1496 989 1496 992 q 1436 907 1475 938 q 1346 876 1397 876 z "},"Ắ":{"ha":1221,"x_min":14,"x_max":1497,"o":"m 240 -79 q 140 -66 193 -79 q 51 -20 88 -53 q 14 71 14 13 q 40 158 14 119 q 101 226 67 197 q 223 290 151 267 q 377 326 294 314 q 545 342 460 338 q 707 346 631 346 q 777 345 743 346 q 840 344 811 344 q 931 436 879 381 q 1038 555 982 492 q 1150 674 1094 618 q 1172 683 1160 683 q 1185 682 1179 683 q 1197 676 1192 681 q 1224 728 1210 701 q 1256 776 1239 754 q 1284 798 1263 786 q 1328 819 1306 810 q 1363 829 1351 829 q 1388 808 1388 829 q 1384 797 1388 803 q 1378 789 1381 792 q 1241 560 1300 679 q 1139 313 1182 440 q 1167 307 1149 311 q 1202 297 1186 303 q 1218 279 1218 290 q 1211 267 1218 267 q 1193 267 1204 267 q 1163 274 1181 267 q 1131 283 1146 282 q 1094 150 1113 222 q 1076 13 1076 78 q 1085 -26 1076 -15 q 1119 -33 1093 -36 q 1153 -20 1135 -31 q 1185 1 1171 -10 q 1190 4 1190 4 q 1199 -8 1199 4 q 1194 -19 1199 -15 q 1137 -57 1171 -43 q 1085 -71 1103 -71 q 1026 -42 1042 -71 q 1010 25 1010 -12 q 1026 162 1010 90 q 1057 296 1042 233 q 1022 299 1040 299 q 985 299 1004 299 q 919 297 950 299 q 869 294 888 296 q 737 167 808 232 q 585 46 665 101 q 417 -44 504 -10 q 240 -79 331 -79 m 1064 324 q 1107 465 1083 393 q 1161 603 1131 536 q 1038 471 1101 539 q 913 339 974 403 q 989 334 949 338 q 1064 324 1029 331 m 179 -26 q 344 3 261 -26 q 506 82 426 33 q 657 187 585 131 q 790 297 729 243 q 678 294 747 297 q 526 283 608 290 q 363 259 444 275 q 213 217 282 243 q 101 150 144 190 q 53 53 58 110 q 71 5 50 22 q 123 -19 92 -12 q 179 -26 154 -26 m 1346 876 q 1276 907 1300 876 q 1253 971 1253 938 q 1261 999 1253 988 q 1279 1011 1269 1011 q 1293 994 1293 1011 q 1310 951 1293 968 q 1356 933 1328 933 q 1424 950 1392 933 q 1479 1001 1456 967 q 1490 1007 1485 1007 q 1497 1000 1497 1007 q 1497 995 1497 999 q 1496 989 1496 992 q 1436 907 1475 938 q 1346 876 1397 876 m 1293 1031 q 1282 1042 1282 1031 q 1289 1051 1285 1049 q 1364 1106 1324 1079 q 1447 1158 1404 1132 q 1465 1167 1458 1165 q 1476 1168 1471 1168 q 1487 1158 1483 1167 q 1490 1139 1490 1150 q 1485 1122 1490 1129 q 1475 1111 1481 1114 q 1445 1094 1471 1107 q 1386 1067 1419 1082 q 1326 1040 1353 1051 q 1293 1031 1300 1029 z "},"Ặ":{"ha":1221,"x_min":14,"x_max":1497,"o":"m 240 -79 q 140 -66 193 -79 q 51 -20 88 -53 q 14 71 14 13 q 40 158 14 119 q 101 226 67 197 q 223 290 151 267 q 377 326 294 314 q 545 342 460 338 q 707 346 631 346 q 777 345 743 346 q 840 344 811 344 q 931 436 879 381 q 1038 555 982 492 q 1150 674 1094 618 q 1172 683 1160 683 q 1185 682 1179 683 q 1197 676 1192 681 q 1224 728 1210 701 q 1256 776 1239 754 q 1284 798 1263 786 q 1328 819 1306 810 q 1363 829 1351 829 q 1388 808 1388 829 q 1384 797 1388 803 q 1378 789 1381 792 q 1241 560 1300 679 q 1139 313 1182 440 q 1167 307 1149 311 q 1202 297 1186 303 q 1218 279 1218 290 q 1211 267 1218 267 q 1193 267 1204 267 q 1163 274 1181 267 q 1131 283 1146 282 q 1094 150 1113 222 q 1076 13 1076 78 q 1085 -26 1076 -15 q 1119 -33 1093 -36 q 1153 -20 1135 -31 q 1185 1 1171 -10 q 1190 4 1190 4 q 1199 -8 1199 4 q 1194 -19 1199 -15 q 1137 -57 1171 -43 q 1085 -71 1103 -71 q 1026 -42 1042 -71 q 1010 25 1010 -12 q 1026 162 1010 90 q 1057 296 1042 233 q 1022 299 1040 299 q 985 299 1004 299 q 919 297 950 299 q 869 294 888 296 q 737 167 808 232 q 585 46 665 101 q 417 -44 504 -10 q 240 -79 331 -79 m 1064 324 q 1107 465 1083 393 q 1161 603 1131 536 q 1038 471 1101 539 q 913 339 974 403 q 989 334 949 338 q 1064 324 1029 331 m 179 -26 q 344 3 261 -26 q 506 82 426 33 q 657 187 585 131 q 790 297 729 243 q 678 294 747 297 q 526 283 608 290 q 363 259 444 275 q 213 217 282 243 q 101 150 144 190 q 53 53 58 110 q 71 5 50 22 q 123 -19 92 -12 q 179 -26 154 -26 m 747 -161 q 718 -151 729 -161 q 707 -128 707 -142 q 722 -93 707 -108 q 754 -78 736 -78 q 781 -89 771 -78 q 792 -115 792 -100 q 778 -147 792 -133 q 747 -161 765 -161 m 1346 876 q 1276 907 1300 876 q 1253 971 1253 938 q 1261 999 1253 988 q 1279 1011 1269 1011 q 1293 994 1293 1011 q 1310 951 1293 968 q 1356 933 1328 933 q 1424 950 1392 933 q 1479 1001 1456 967 q 1490 1007 1485 1007 q 1497 1000 1497 1007 q 1497 995 1497 999 q 1496 989 1496 992 q 1436 907 1475 938 q 1346 876 1397 876 z "},"Ằ":{"ha":1221,"x_min":14,"x_max":1497,"o":"m 240 -79 q 140 -66 193 -79 q 51 -20 88 -53 q 14 71 14 13 q 40 158 14 119 q 101 226 67 197 q 223 290 151 267 q 377 326 294 314 q 545 342 460 338 q 707 346 631 346 q 777 345 743 346 q 840 344 811 344 q 931 436 879 381 q 1038 555 982 492 q 1150 674 1094 618 q 1172 683 1160 683 q 1185 682 1179 683 q 1197 676 1192 681 q 1224 728 1210 701 q 1256 776 1239 754 q 1284 798 1263 786 q 1328 819 1306 810 q 1363 829 1351 829 q 1388 808 1388 829 q 1384 797 1388 803 q 1378 789 1381 792 q 1241 560 1300 679 q 1139 313 1182 440 q 1167 307 1149 311 q 1202 297 1186 303 q 1218 279 1218 290 q 1211 267 1218 267 q 1193 267 1204 267 q 1163 274 1181 267 q 1131 283 1146 282 q 1094 150 1113 222 q 1076 13 1076 78 q 1085 -26 1076 -15 q 1119 -33 1093 -36 q 1153 -20 1135 -31 q 1185 1 1171 -10 q 1190 4 1190 4 q 1199 -8 1199 4 q 1194 -19 1199 -15 q 1137 -57 1171 -43 q 1085 -71 1103 -71 q 1026 -42 1042 -71 q 1010 25 1010 -12 q 1026 162 1010 90 q 1057 296 1042 233 q 1022 299 1040 299 q 985 299 1004 299 q 919 297 950 299 q 869 294 888 296 q 737 167 808 232 q 585 46 665 101 q 417 -44 504 -10 q 240 -79 331 -79 m 1064 324 q 1107 465 1083 393 q 1161 603 1131 536 q 1038 471 1101 539 q 913 339 974 403 q 989 334 949 338 q 1064 324 1029 331 m 179 -26 q 344 3 261 -26 q 506 82 426 33 q 657 187 585 131 q 790 297 729 243 q 678 294 747 297 q 526 283 608 290 q 363 259 444 275 q 213 217 282 243 q 101 150 144 190 q 53 53 58 110 q 71 5 50 22 q 123 -19 92 -12 q 179 -26 154 -26 m 1346 876 q 1276 907 1300 876 q 1253 971 1253 938 q 1261 999 1253 988 q 1279 1011 1269 1011 q 1293 994 1293 1011 q 1310 951 1293 968 q 1356 933 1328 933 q 1424 950 1392 933 q 1479 1001 1456 967 q 1490 1007 1485 1007 q 1497 1000 1497 1007 q 1497 995 1497 999 q 1496 989 1496 992 q 1436 907 1475 938 q 1346 876 1397 876 m 1425 1031 q 1392 1040 1419 1029 q 1332 1067 1365 1051 q 1273 1094 1299 1082 q 1243 1111 1247 1107 q 1234 1119 1239 1114 q 1228 1133 1229 1125 l 1228 1139 q 1232 1158 1228 1150 q 1242 1168 1236 1167 q 1254 1167 1247 1168 q 1271 1158 1261 1165 q 1355 1106 1315 1132 q 1429 1051 1394 1079 q 1436 1042 1433 1049 q 1425 1031 1436 1031 z "},"Ẳ":{"ha":1221,"x_min":14,"x_max":1504,"o":"m 240 -79 q 140 -66 193 -79 q 51 -20 88 -53 q 14 71 14 13 q 40 158 14 119 q 101 226 67 197 q 223 290 151 267 q 377 326 294 314 q 545 342 460 338 q 707 346 631 346 q 777 345 743 346 q 840 344 811 344 q 931 436 879 381 q 1038 555 982 492 q 1150 674 1094 618 q 1172 683 1160 683 q 1185 682 1179 683 q 1197 676 1192 681 q 1224 728 1210 701 q 1256 776 1239 754 q 1284 798 1263 786 q 1328 819 1306 810 q 1363 829 1351 829 q 1388 808 1388 829 q 1384 797 1388 803 q 1378 789 1381 792 q 1241 560 1300 679 q 1139 313 1182 440 q 1167 307 1149 311 q 1202 297 1186 303 q 1218 279 1218 290 q 1211 267 1218 267 q 1193 267 1204 267 q 1163 274 1181 267 q 1131 283 1146 282 q 1094 150 1113 222 q 1076 13 1076 78 q 1085 -26 1076 -15 q 1119 -33 1093 -36 q 1153 -20 1135 -31 q 1185 1 1171 -10 q 1190 4 1190 4 q 1199 -8 1199 4 q 1194 -19 1199 -15 q 1137 -57 1171 -43 q 1085 -71 1103 -71 q 1026 -42 1042 -71 q 1010 25 1010 -12 q 1026 162 1010 90 q 1057 296 1042 233 q 1022 299 1040 299 q 985 299 1004 299 q 919 297 950 299 q 869 294 888 296 q 737 167 808 232 q 585 46 665 101 q 417 -44 504 -10 q 240 -79 331 -79 m 1064 324 q 1107 465 1083 393 q 1161 603 1131 536 q 1038 471 1101 539 q 913 339 974 403 q 989 334 949 338 q 1064 324 1029 331 m 179 -26 q 344 3 261 -26 q 506 82 426 33 q 657 187 585 131 q 790 297 729 243 q 678 294 747 297 q 526 283 608 290 q 363 259 444 275 q 213 217 282 243 q 101 150 144 190 q 53 53 58 110 q 71 5 50 22 q 123 -19 92 -12 q 179 -26 154 -26 m 1346 876 q 1276 907 1300 876 q 1253 971 1253 938 q 1261 999 1253 988 q 1279 1011 1269 1011 q 1293 994 1293 1011 q 1310 951 1293 968 q 1356 933 1328 933 q 1424 950 1392 933 q 1479 1001 1456 967 q 1490 1007 1485 1007 q 1497 1000 1497 1007 q 1497 995 1497 999 q 1496 989 1496 992 q 1436 907 1475 938 q 1346 876 1397 876 m 1394 1031 q 1384 1036 1386 1031 q 1386 1047 1382 1042 q 1399 1064 1389 1054 q 1411 1078 1408 1074 q 1435 1104 1426 1097 q 1443 1129 1443 1111 q 1410 1154 1443 1154 q 1392 1153 1400 1154 q 1376 1149 1383 1151 l 1367 1147 q 1358 1158 1358 1147 q 1386 1181 1360 1169 q 1439 1193 1413 1193 q 1484 1181 1464 1193 q 1504 1142 1504 1168 q 1483 1090 1504 1107 q 1446 1064 1461 1074 q 1430 1052 1439 1058 q 1414 1040 1421 1046 q 1394 1031 1407 1031 z "},"Ẵ":{"ha":1221,"x_min":14,"x_max":1521,"o":"m 240 -79 q 140 -66 193 -79 q 51 -20 88 -53 q 14 71 14 13 q 40 158 14 119 q 101 226 67 197 q 223 290 151 267 q 377 326 294 314 q 545 342 460 338 q 707 346 631 346 q 777 345 743 346 q 840 344 811 344 q 931 436 879 381 q 1038 555 982 492 q 1150 674 1094 618 q 1172 683 1160 683 q 1185 682 1179 683 q 1197 676 1192 681 q 1224 728 1210 701 q 1256 776 1239 754 q 1284 798 1263 786 q 1328 819 1306 810 q 1363 829 1351 829 q 1388 808 1388 829 q 1384 797 1388 803 q 1378 789 1381 792 q 1241 560 1300 679 q 1139 313 1182 440 q 1167 307 1149 311 q 1202 297 1186 303 q 1218 279 1218 290 q 1211 267 1218 267 q 1193 267 1204 267 q 1163 274 1181 267 q 1131 283 1146 282 q 1094 150 1113 222 q 1076 13 1076 78 q 1085 -26 1076 -15 q 1119 -33 1093 -36 q 1153 -20 1135 -31 q 1185 1 1171 -10 q 1190 4 1190 4 q 1199 -8 1199 4 q 1194 -19 1199 -15 q 1137 -57 1171 -43 q 1085 -71 1103 -71 q 1026 -42 1042 -71 q 1010 25 1010 -12 q 1026 162 1010 90 q 1057 296 1042 233 q 1022 299 1040 299 q 985 299 1004 299 q 919 297 950 299 q 869 294 888 296 q 737 167 808 232 q 585 46 665 101 q 417 -44 504 -10 q 240 -79 331 -79 m 1064 324 q 1107 465 1083 393 q 1161 603 1131 536 q 1038 471 1101 539 q 913 339 974 403 q 989 334 949 338 q 1064 324 1029 331 m 179 -26 q 344 3 261 -26 q 506 82 426 33 q 657 187 585 131 q 790 297 729 243 q 678 294 747 297 q 526 283 608 290 q 363 259 444 275 q 213 217 282 243 q 101 150 144 190 q 53 53 58 110 q 71 5 50 22 q 123 -19 92 -12 q 179 -26 154 -26 m 1346 876 q 1276 907 1300 876 q 1253 971 1253 938 q 1261 999 1253 988 q 1279 1011 1269 1011 q 1293 994 1293 1011 q 1310 951 1293 968 q 1356 933 1328 933 q 1424 950 1392 933 q 1479 1001 1456 967 q 1490 1007 1485 1007 q 1497 1000 1497 1007 q 1497 995 1497 999 q 1496 989 1496 992 q 1436 907 1475 938 q 1346 876 1397 876 m 1289 1040 q 1278 1050 1278 1040 q 1299 1099 1278 1082 q 1353 1117 1319 1117 q 1410 1107 1381 1117 q 1463 1094 1443 1094 q 1503 1121 1489 1094 l 1507 1122 q 1519 1114 1515 1122 q 1499 1063 1521 1081 q 1443 1046 1478 1046 q 1388 1056 1415 1046 q 1333 1068 1354 1068 q 1310 1061 1319 1068 q 1293 1042 1300 1054 l 1289 1040 z "},"Ǎ":{"ha":1221,"x_min":14,"x_max":1546,"o":"m 1532 1026 q 1540 1014 1546 1026 q 1533 1004 1538 1008 q 1470 951 1499 974 q 1397 892 1442 928 q 1368 878 1381 878 q 1347 892 1357 878 q 1308 948 1325 921 q 1276 1006 1292 975 q 1276 1011 1276 1008 q 1276 1015 1275 1014 q 1290 1026 1276 1026 q 1317 1010 1297 1026 q 1358 974 1338 993 q 1388 944 1379 954 q 1420 965 1399 951 q 1465 992 1442 978 q 1508 1016 1489 1006 q 1532 1026 1526 1026 m 240 -79 q 140 -66 193 -79 q 51 -20 88 -53 q 14 71 14 13 q 40 158 14 119 q 101 226 67 197 q 223 290 151 267 q 377 326 294 314 q 545 342 460 338 q 707 346 631 346 q 777 345 743 346 q 840 344 811 344 q 931 436 879 381 q 1038 555 982 492 q 1150 674 1094 618 q 1172 683 1160 683 q 1185 682 1179 683 q 1197 676 1192 681 q 1224 728 1210 701 q 1256 776 1239 754 q 1284 798 1263 786 q 1328 819 1306 810 q 1363 829 1351 829 q 1388 808 1388 829 q 1384 797 1388 803 q 1378 789 1381 792 q 1241 560 1300 679 q 1139 313 1182 440 q 1167 307 1149 311 q 1202 297 1186 303 q 1218 279 1218 290 q 1211 267 1218 267 q 1193 267 1204 267 q 1163 274 1181 267 q 1131 283 1146 282 q 1094 150 1113 222 q 1076 13 1076 78 q 1085 -26 1076 -15 q 1119 -33 1093 -36 q 1153 -20 1135 -31 q 1185 1 1171 -10 q 1190 4 1190 4 q 1199 -8 1199 4 q 1194 -19 1199 -15 q 1137 -57 1171 -43 q 1085 -71 1103 -71 q 1026 -42 1042 -71 q 1010 25 1010 -12 q 1026 162 1010 90 q 1057 296 1042 233 q 1022 299 1040 299 q 985 299 1004 299 q 919 297 950 299 q 869 294 888 296 q 737 167 808 232 q 585 46 665 101 q 417 -44 504 -10 q 240 -79 331 -79 m 1064 324 q 1107 465 1083 393 q 1161 603 1131 536 q 1038 471 1101 539 q 913 339 974 403 q 989 334 949 338 q 1064 324 1029 331 m 179 -26 q 344 3 261 -26 q 506 82 426 33 q 657 187 585 131 q 790 297 729 243 q 678 294 747 297 q 526 283 608 290 q 363 259 444 275 q 213 217 282 243 q 101 150 144 190 q 53 53 58 110 q 71 5 50 22 q 123 -19 92 -12 q 179 -26 154 -26 z "},"Â":{"ha":1221,"x_min":14,"x_max":1504,"o":"m 240 -79 q 140 -66 193 -79 q 51 -20 88 -53 q 14 71 14 13 q 40 158 14 119 q 101 226 67 197 q 223 290 151 267 q 377 326 294 314 q 545 342 460 338 q 707 346 631 346 q 777 345 743 346 q 840 344 811 344 q 931 436 879 381 q 1038 555 982 492 q 1150 674 1094 618 q 1172 683 1160 683 q 1185 682 1179 683 q 1197 676 1192 681 q 1224 728 1210 701 q 1256 776 1239 754 q 1284 798 1263 786 q 1328 819 1306 810 q 1363 829 1351 829 q 1388 808 1388 829 q 1384 797 1388 803 q 1378 789 1381 792 q 1241 560 1300 679 q 1139 313 1182 440 q 1167 307 1149 311 q 1202 297 1186 303 q 1218 279 1218 290 q 1211 267 1218 267 q 1193 267 1204 267 q 1163 274 1181 267 q 1131 283 1146 282 q 1094 150 1113 222 q 1076 13 1076 78 q 1085 -26 1076 -15 q 1119 -33 1093 -36 q 1153 -20 1135 -31 q 1185 1 1171 -10 q 1190 4 1190 4 q 1199 -8 1199 4 q 1194 -19 1199 -15 q 1137 -57 1171 -43 q 1085 -71 1103 -71 q 1026 -42 1042 -71 q 1010 25 1010 -12 q 1026 162 1010 90 q 1057 296 1042 233 q 1022 299 1040 299 q 985 299 1004 299 q 919 297 950 299 q 869 294 888 296 q 737 167 808 232 q 585 46 665 101 q 417 -44 504 -10 q 240 -79 331 -79 m 1064 324 q 1107 465 1083 393 q 1161 603 1131 536 q 1038 471 1101 539 q 913 339 974 403 q 989 334 949 338 q 1064 324 1029 331 m 179 -26 q 344 3 261 -26 q 506 82 426 33 q 657 187 585 131 q 790 297 729 243 q 678 294 747 297 q 526 283 608 290 q 363 259 444 275 q 213 217 282 243 q 101 150 144 190 q 53 53 58 110 q 71 5 50 22 q 123 -19 92 -12 q 179 -26 154 -26 m 1239 878 q 1231 890 1228 878 q 1239 900 1233 896 q 1303 955 1274 932 q 1382 1013 1333 978 q 1411 1026 1399 1026 q 1432 1013 1422 1026 q 1472 956 1454 983 q 1503 899 1489 929 q 1503 894 1503 896 q 1503 889 1504 892 q 1489 878 1503 878 q 1462 894 1482 878 q 1421 931 1442 911 q 1392 960 1400 951 q 1358 940 1381 954 q 1309 913 1335 926 q 1264 888 1283 899 q 1239 878 1244 878 z "},"Ấ":{"ha":1221,"x_min":14,"x_max":1717,"o":"m 240 -79 q 140 -66 193 -79 q 51 -20 88 -53 q 14 71 14 13 q 40 158 14 119 q 101 226 67 197 q 223 290 151 267 q 377 326 294 314 q 545 342 460 338 q 707 346 631 346 q 777 345 743 346 q 840 344 811 344 q 931 436 879 381 q 1038 555 982 492 q 1150 674 1094 618 q 1172 683 1160 683 q 1185 682 1179 683 q 1197 676 1192 681 q 1224 728 1210 701 q 1256 776 1239 754 q 1284 798 1263 786 q 1328 819 1306 810 q 1363 829 1351 829 q 1388 808 1388 829 q 1384 797 1388 803 q 1378 789 1381 792 q 1241 560 1300 679 q 1139 313 1182 440 q 1167 307 1149 311 q 1202 297 1186 303 q 1218 279 1218 290 q 1211 267 1218 267 q 1193 267 1204 267 q 1163 274 1181 267 q 1131 283 1146 282 q 1094 150 1113 222 q 1076 13 1076 78 q 1085 -26 1076 -15 q 1119 -33 1093 -36 q 1153 -20 1135 -31 q 1185 1 1171 -10 q 1190 4 1190 4 q 1199 -8 1199 4 q 1194 -19 1199 -15 q 1137 -57 1171 -43 q 1085 -71 1103 -71 q 1026 -42 1042 -71 q 1010 25 1010 -12 q 1026 162 1010 90 q 1057 296 1042 233 q 1022 299 1040 299 q 985 299 1004 299 q 919 297 950 299 q 869 294 888 296 q 737 167 808 232 q 585 46 665 101 q 417 -44 504 -10 q 240 -79 331 -79 m 1064 324 q 1107 465 1083 393 q 1161 603 1131 536 q 1038 471 1101 539 q 913 339 974 403 q 989 334 949 338 q 1064 324 1029 331 m 179 -26 q 344 3 261 -26 q 506 82 426 33 q 657 187 585 131 q 790 297 729 243 q 678 294 747 297 q 526 283 608 290 q 363 259 444 275 q 213 217 282 243 q 101 150 144 190 q 53 53 58 110 q 71 5 50 22 q 123 -19 92 -12 q 179 -26 154 -26 m 1239 878 q 1231 890 1228 878 q 1239 900 1233 896 q 1303 955 1274 932 q 1382 1013 1333 978 q 1411 1026 1399 1026 q 1432 1013 1422 1026 q 1472 956 1454 983 q 1503 899 1489 929 q 1503 894 1503 896 q 1503 889 1504 892 q 1489 878 1503 878 q 1462 894 1482 878 q 1421 931 1442 911 q 1392 960 1400 951 q 1358 940 1381 954 q 1309 913 1335 926 q 1264 888 1283 899 q 1239 878 1244 878 m 1519 957 q 1508 968 1508 957 q 1515 978 1511 975 q 1590 1032 1550 1006 q 1674 1085 1631 1058 q 1691 1093 1685 1092 q 1703 1094 1697 1094 q 1713 1085 1710 1093 q 1717 1065 1717 1076 q 1712 1048 1717 1056 q 1701 1038 1707 1040 q 1672 1021 1697 1033 q 1613 993 1646 1008 q 1553 967 1579 978 q 1519 957 1526 956 z "},"Ậ":{"ha":1221,"x_min":14,"x_max":1504,"o":"m 240 -79 q 140 -66 193 -79 q 51 -20 88 -53 q 14 71 14 13 q 40 158 14 119 q 101 226 67 197 q 223 290 151 267 q 377 326 294 314 q 545 342 460 338 q 707 346 631 346 q 777 345 743 346 q 840 344 811 344 q 931 436 879 381 q 1038 555 982 492 q 1150 674 1094 618 q 1172 683 1160 683 q 1185 682 1179 683 q 1197 676 1192 681 q 1224 728 1210 701 q 1256 776 1239 754 q 1284 798 1263 786 q 1328 819 1306 810 q 1363 829 1351 829 q 1388 808 1388 829 q 1384 797 1388 803 q 1378 789 1381 792 q 1241 560 1300 679 q 1139 313 1182 440 q 1167 307 1149 311 q 1202 297 1186 303 q 1218 279 1218 290 q 1211 267 1218 267 q 1193 267 1204 267 q 1163 274 1181 267 q 1131 283 1146 282 q 1094 150 1113 222 q 1076 13 1076 78 q 1085 -26 1076 -15 q 1119 -33 1093 -36 q 1153 -20 1135 -31 q 1185 1 1171 -10 q 1190 4 1190 4 q 1199 -8 1199 4 q 1194 -19 1199 -15 q 1137 -57 1171 -43 q 1085 -71 1103 -71 q 1026 -42 1042 -71 q 1010 25 1010 -12 q 1026 162 1010 90 q 1057 296 1042 233 q 1022 299 1040 299 q 985 299 1004 299 q 919 297 950 299 q 869 294 888 296 q 737 167 808 232 q 585 46 665 101 q 417 -44 504 -10 q 240 -79 331 -79 m 1064 324 q 1107 465 1083 393 q 1161 603 1131 536 q 1038 471 1101 539 q 913 339 974 403 q 989 334 949 338 q 1064 324 1029 331 m 179 -26 q 344 3 261 -26 q 506 82 426 33 q 657 187 585 131 q 790 297 729 243 q 678 294 747 297 q 526 283 608 290 q 363 259 444 275 q 213 217 282 243 q 101 150 144 190 q 53 53 58 110 q 71 5 50 22 q 123 -19 92 -12 q 179 -26 154 -26 m 747 -161 q 718 -151 729 -161 q 707 -128 707 -142 q 722 -93 707 -108 q 754 -78 736 -78 q 781 -89 771 -78 q 792 -115 792 -100 q 778 -147 792 -133 q 747 -161 765 -161 m 1239 878 q 1231 890 1228 878 q 1239 900 1233 896 q 1303 955 1274 932 q 1382 1013 1333 978 q 1411 1026 1399 1026 q 1432 1013 1422 1026 q 1472 956 1454 983 q 1503 899 1489 929 q 1503 894 1503 896 q 1503 889 1504 892 q 1489 878 1503 878 q 1462 894 1482 878 q 1421 931 1442 911 q 1392 960 1400 951 q 1358 940 1381 954 q 1309 913 1335 926 q 1264 888 1283 899 q 1239 878 1244 878 z "},"Ầ":{"ha":1221,"x_min":14,"x_max":1551,"o":"m 240 -79 q 140 -66 193 -79 q 51 -20 88 -53 q 14 71 14 13 q 40 158 14 119 q 101 226 67 197 q 223 290 151 267 q 377 326 294 314 q 545 342 460 338 q 707 346 631 346 q 777 345 743 346 q 840 344 811 344 q 931 436 879 381 q 1038 555 982 492 q 1150 674 1094 618 q 1172 683 1160 683 q 1185 682 1179 683 q 1197 676 1192 681 q 1224 728 1210 701 q 1256 776 1239 754 q 1284 798 1263 786 q 1328 819 1306 810 q 1363 829 1351 829 q 1388 808 1388 829 q 1384 797 1388 803 q 1378 789 1381 792 q 1241 560 1300 679 q 1139 313 1182 440 q 1167 307 1149 311 q 1202 297 1186 303 q 1218 279 1218 290 q 1211 267 1218 267 q 1193 267 1204 267 q 1163 274 1181 267 q 1131 283 1146 282 q 1094 150 1113 222 q 1076 13 1076 78 q 1085 -26 1076 -15 q 1119 -33 1093 -36 q 1153 -20 1135 -31 q 1185 1 1171 -10 q 1190 4 1190 4 q 1199 -8 1199 4 q 1194 -19 1199 -15 q 1137 -57 1171 -43 q 1085 -71 1103 -71 q 1026 -42 1042 -71 q 1010 25 1010 -12 q 1026 162 1010 90 q 1057 296 1042 233 q 1022 299 1040 299 q 985 299 1004 299 q 919 297 950 299 q 869 294 888 296 q 737 167 808 232 q 585 46 665 101 q 417 -44 504 -10 q 240 -79 331 -79 m 1064 324 q 1107 465 1083 393 q 1161 603 1131 536 q 1038 471 1101 539 q 913 339 974 403 q 989 334 949 338 q 1064 324 1029 331 m 179 -26 q 344 3 261 -26 q 506 82 426 33 q 657 187 585 131 q 790 297 729 243 q 678 294 747 297 q 526 283 608 290 q 363 259 444 275 q 213 217 282 243 q 101 150 144 190 q 53 53 58 110 q 71 5 50 22 q 123 -19 92 -12 q 179 -26 154 -26 m 1239 878 q 1231 890 1228 878 q 1239 900 1233 896 q 1303 955 1274 932 q 1382 1013 1333 978 q 1411 1026 1399 1026 q 1432 1013 1422 1026 q 1472 956 1454 983 q 1503 899 1489 929 q 1503 894 1503 896 q 1503 889 1504 892 q 1489 878 1503 878 q 1462 894 1482 878 q 1421 931 1442 911 q 1392 960 1400 951 q 1358 940 1381 954 q 1309 913 1335 926 q 1264 888 1283 899 q 1239 878 1244 878 m 1540 1031 q 1508 1040 1535 1029 q 1447 1067 1481 1051 q 1388 1094 1414 1082 q 1358 1111 1363 1107 q 1349 1119 1354 1114 q 1343 1133 1344 1125 l 1343 1139 q 1347 1158 1343 1150 q 1357 1168 1351 1167 q 1369 1167 1363 1168 q 1386 1158 1376 1165 q 1470 1106 1431 1132 q 1544 1051 1510 1079 q 1551 1042 1549 1049 q 1540 1031 1551 1031 z "},"Ẩ":{"ha":1221,"x_min":14,"x_max":1640,"o":"m 240 -79 q 140 -66 193 -79 q 51 -20 88 -53 q 14 71 14 13 q 40 158 14 119 q 101 226 67 197 q 223 290 151 267 q 377 326 294 314 q 545 342 460 338 q 707 346 631 346 q 777 345 743 346 q 840 344 811 344 q 931 436 879 381 q 1038 555 982 492 q 1150 674 1094 618 q 1172 683 1160 683 q 1185 682 1179 683 q 1197 676 1192 681 q 1224 728 1210 701 q 1256 776 1239 754 q 1284 798 1263 786 q 1328 819 1306 810 q 1363 829 1351 829 q 1388 808 1388 829 q 1384 797 1388 803 q 1378 789 1381 792 q 1241 560 1300 679 q 1139 313 1182 440 q 1167 307 1149 311 q 1202 297 1186 303 q 1218 279 1218 290 q 1211 267 1218 267 q 1193 267 1204 267 q 1163 274 1181 267 q 1131 283 1146 282 q 1094 150 1113 222 q 1076 13 1076 78 q 1085 -26 1076 -15 q 1119 -33 1093 -36 q 1153 -20 1135 -31 q 1185 1 1171 -10 q 1190 4 1190 4 q 1199 -8 1199 4 q 1194 -19 1199 -15 q 1137 -57 1171 -43 q 1085 -71 1103 -71 q 1026 -42 1042 -71 q 1010 25 1010 -12 q 1026 162 1010 90 q 1057 296 1042 233 q 1022 299 1040 299 q 985 299 1004 299 q 919 297 950 299 q 869 294 888 296 q 737 167 808 232 q 585 46 665 101 q 417 -44 504 -10 q 240 -79 331 -79 m 1064 324 q 1107 465 1083 393 q 1161 603 1131 536 q 1038 471 1101 539 q 913 339 974 403 q 989 334 949 338 q 1064 324 1029 331 m 179 -26 q 344 3 261 -26 q 506 82 426 33 q 657 187 585 131 q 790 297 729 243 q 678 294 747 297 q 526 283 608 290 q 363 259 444 275 q 213 217 282 243 q 101 150 144 190 q 53 53 58 110 q 71 5 50 22 q 123 -19 92 -12 q 179 -26 154 -26 m 1239 878 q 1231 890 1228 878 q 1239 900 1233 896 q 1303 955 1274 932 q 1382 1013 1333 978 q 1411 1026 1399 1026 q 1432 1013 1422 1026 q 1472 956 1454 983 q 1503 899 1489 929 q 1503 894 1503 896 q 1503 889 1504 892 q 1489 878 1503 878 q 1462 894 1482 878 q 1421 931 1442 911 q 1392 960 1400 951 q 1358 940 1381 954 q 1309 913 1335 926 q 1264 888 1283 899 q 1239 878 1244 878 m 1531 960 q 1520 965 1522 960 q 1522 976 1518 971 q 1535 993 1525 983 q 1547 1007 1544 1003 q 1571 1033 1563 1026 q 1579 1058 1579 1040 q 1546 1083 1579 1083 q 1528 1082 1536 1083 q 1513 1078 1519 1081 l 1503 1076 q 1494 1088 1494 1076 q 1522 1110 1496 1099 q 1575 1122 1549 1122 q 1620 1110 1600 1122 q 1640 1071 1640 1097 q 1619 1019 1640 1036 q 1582 993 1597 1003 q 1566 981 1575 988 q 1550 969 1557 975 q 1531 960 1543 960 z "},"Ẫ":{"ha":1221,"x_min":14,"x_max":1553,"o":"m 240 -79 q 140 -66 193 -79 q 51 -20 88 -53 q 14 71 14 13 q 40 158 14 119 q 101 226 67 197 q 223 290 151 267 q 377 326 294 314 q 545 342 460 338 q 707 346 631 346 q 777 345 743 346 q 840 344 811 344 q 931 436 879 381 q 1038 555 982 492 q 1150 674 1094 618 q 1172 683 1160 683 q 1185 682 1179 683 q 1197 676 1192 681 q 1224 728 1210 701 q 1256 776 1239 754 q 1284 798 1263 786 q 1328 819 1306 810 q 1363 829 1351 829 q 1388 808 1388 829 q 1384 797 1388 803 q 1378 789 1381 792 q 1241 560 1300 679 q 1139 313 1182 440 q 1167 307 1149 311 q 1202 297 1186 303 q 1218 279 1218 290 q 1211 267 1218 267 q 1193 267 1204 267 q 1163 274 1181 267 q 1131 283 1146 282 q 1094 150 1113 222 q 1076 13 1076 78 q 1085 -26 1076 -15 q 1119 -33 1093 -36 q 1153 -20 1135 -31 q 1185 1 1171 -10 q 1190 4 1190 4 q 1199 -8 1199 4 q 1194 -19 1199 -15 q 1137 -57 1171 -43 q 1085 -71 1103 -71 q 1026 -42 1042 -71 q 1010 25 1010 -12 q 1026 162 1010 90 q 1057 296 1042 233 q 1022 299 1040 299 q 985 299 1004 299 q 919 297 950 299 q 869 294 888 296 q 737 167 808 232 q 585 46 665 101 q 417 -44 504 -10 q 240 -79 331 -79 m 1064 324 q 1107 465 1083 393 q 1161 603 1131 536 q 1038 471 1101 539 q 913 339 974 403 q 989 334 949 338 q 1064 324 1029 331 m 179 -26 q 344 3 261 -26 q 506 82 426 33 q 657 187 585 131 q 790 297 729 243 q 678 294 747 297 q 526 283 608 290 q 363 259 444 275 q 213 217 282 243 q 101 150 144 190 q 53 53 58 110 q 71 5 50 22 q 123 -19 92 -12 q 179 -26 154 -26 m 1239 878 q 1231 890 1228 878 q 1239 900 1233 896 q 1303 955 1274 932 q 1382 1013 1333 978 q 1411 1026 1399 1026 q 1432 1013 1422 1026 q 1472 956 1454 983 q 1503 899 1489 929 q 1503 894 1503 896 q 1503 889 1504 892 q 1489 878 1503 878 q 1462 894 1482 878 q 1421 931 1442 911 q 1392 960 1400 951 q 1358 940 1381 954 q 1309 913 1335 926 q 1264 888 1283 899 q 1239 878 1244 878 m 1321 1067 q 1310 1076 1310 1067 q 1331 1126 1310 1108 q 1385 1143 1351 1143 q 1442 1133 1413 1143 q 1494 1121 1475 1121 q 1535 1147 1521 1121 l 1539 1149 q 1551 1140 1547 1149 q 1531 1090 1553 1107 q 1475 1072 1510 1072 q 1419 1082 1447 1072 q 1365 1094 1386 1094 q 1342 1088 1351 1094 q 1325 1068 1332 1081 l 1321 1067 z "},"Ȁ":{"ha":1221,"x_min":14,"x_max":1410,"o":"m 240 -79 q 140 -66 193 -79 q 51 -20 88 -53 q 14 71 14 13 q 40 158 14 119 q 101 226 67 197 q 223 290 151 267 q 377 326 294 314 q 545 342 460 338 q 707 346 631 346 q 777 345 743 346 q 840 344 811 344 q 931 436 879 381 q 1038 555 982 492 q 1150 674 1094 618 q 1172 683 1160 683 q 1185 682 1179 683 q 1197 676 1192 681 q 1224 728 1210 701 q 1256 776 1239 754 q 1284 798 1263 786 q 1328 819 1306 810 q 1363 829 1351 829 q 1388 808 1388 829 q 1384 797 1388 803 q 1378 789 1381 792 q 1241 560 1300 679 q 1139 313 1182 440 q 1167 307 1149 311 q 1202 297 1186 303 q 1218 279 1218 290 q 1211 267 1218 267 q 1193 267 1204 267 q 1163 274 1181 267 q 1131 283 1146 282 q 1094 150 1113 222 q 1076 13 1076 78 q 1085 -26 1076 -15 q 1119 -33 1093 -36 q 1153 -20 1135 -31 q 1185 1 1171 -10 q 1190 4 1190 4 q 1199 -8 1199 4 q 1194 -19 1199 -15 q 1137 -57 1171 -43 q 1085 -71 1103 -71 q 1026 -42 1042 -71 q 1010 25 1010 -12 q 1026 162 1010 90 q 1057 296 1042 233 q 1022 299 1040 299 q 985 299 1004 299 q 919 297 950 299 q 869 294 888 296 q 737 167 808 232 q 585 46 665 101 q 417 -44 504 -10 q 240 -79 331 -79 m 1064 324 q 1107 465 1083 393 q 1161 603 1131 536 q 1038 471 1101 539 q 913 339 974 403 q 989 334 949 338 q 1064 324 1029 331 m 179 -26 q 344 3 261 -26 q 506 82 426 33 q 657 187 585 131 q 790 297 729 243 q 678 294 747 297 q 526 283 608 290 q 363 259 444 275 q 213 217 282 243 q 101 150 144 190 q 53 53 58 110 q 71 5 50 22 q 123 -19 92 -12 q 179 -26 154 -26 m 1394 874 q 1370 890 1389 875 q 1328 926 1351 906 q 1288 963 1306 946 q 1268 983 1271 979 q 1260 1008 1258 994 q 1282 1038 1267 1038 q 1296 1033 1288 1038 q 1310 1021 1304 1028 q 1360 958 1338 989 q 1406 893 1383 926 q 1408 882 1410 886 q 1394 874 1408 874 m 1299 878 q 1272 890 1293 878 q 1227 920 1251 903 q 1183 951 1203 938 q 1160 969 1164 965 q 1153 978 1157 972 q 1149 992 1149 983 q 1156 1016 1149 1007 q 1169 1025 1163 1025 q 1196 1011 1182 1025 q 1252 958 1225 985 q 1308 899 1279 932 q 1313 886 1313 890 q 1299 878 1313 878 z "},"Ä":{"ha":1221,"x_min":14,"x_max":1469,"o":"m 240 -79 q 140 -66 193 -79 q 51 -20 88 -53 q 14 71 14 13 q 40 158 14 119 q 101 226 67 197 q 223 290 151 267 q 377 326 294 314 q 545 342 460 338 q 707 346 631 346 q 777 345 743 346 q 840 344 811 344 q 931 436 879 381 q 1038 555 982 492 q 1150 674 1094 618 q 1172 683 1160 683 q 1185 682 1179 683 q 1197 676 1192 681 q 1224 728 1210 701 q 1256 776 1239 754 q 1284 798 1263 786 q 1328 819 1306 810 q 1363 829 1351 829 q 1388 808 1388 829 q 1384 797 1388 803 q 1378 789 1381 792 q 1241 560 1300 679 q 1139 313 1182 440 q 1167 307 1149 311 q 1202 297 1186 303 q 1218 279 1218 290 q 1211 267 1218 267 q 1193 267 1204 267 q 1163 274 1181 267 q 1131 283 1146 282 q 1094 150 1113 222 q 1076 13 1076 78 q 1085 -26 1076 -15 q 1119 -33 1093 -36 q 1153 -20 1135 -31 q 1185 1 1171 -10 q 1190 4 1190 4 q 1199 -8 1199 4 q 1194 -19 1199 -15 q 1137 -57 1171 -43 q 1085 -71 1103 -71 q 1026 -42 1042 -71 q 1010 25 1010 -12 q 1026 162 1010 90 q 1057 296 1042 233 q 1022 299 1040 299 q 985 299 1004 299 q 919 297 950 299 q 869 294 888 296 q 737 167 808 232 q 585 46 665 101 q 417 -44 504 -10 q 240 -79 331 -79 m 1064 324 q 1107 465 1083 393 q 1161 603 1131 536 q 1038 471 1101 539 q 913 339 974 403 q 989 334 949 338 q 1064 324 1029 331 m 179 -26 q 344 3 261 -26 q 506 82 426 33 q 657 187 585 131 q 790 297 729 243 q 678 294 747 297 q 526 283 608 290 q 363 259 444 275 q 213 217 282 243 q 101 150 144 190 q 53 53 58 110 q 71 5 50 22 q 123 -19 92 -12 q 179 -26 154 -26 m 1425 878 q 1396 888 1407 878 q 1385 911 1385 897 q 1399 946 1385 931 q 1432 961 1414 961 q 1459 950 1449 961 q 1469 924 1469 939 q 1456 892 1469 906 q 1425 878 1443 878 m 1285 878 q 1256 888 1267 878 q 1244 911 1244 897 q 1259 946 1244 931 q 1292 961 1274 961 q 1319 950 1308 961 q 1329 924 1329 939 q 1316 892 1329 906 q 1285 878 1303 878 z "},"Ạ":{"ha":1221,"x_min":14,"x_max":1388,"o":"m 240 -79 q 140 -66 193 -79 q 51 -20 88 -53 q 14 71 14 13 q 40 158 14 119 q 101 226 67 197 q 223 290 151 267 q 377 326 294 314 q 545 342 460 338 q 707 346 631 346 q 777 345 743 346 q 840 344 811 344 q 931 436 879 381 q 1038 555 982 492 q 1150 674 1094 618 q 1172 683 1160 683 q 1185 682 1179 683 q 1197 676 1192 681 q 1224 728 1210 701 q 1256 776 1239 754 q 1284 798 1263 786 q 1328 819 1306 810 q 1363 829 1351 829 q 1388 808 1388 829 q 1384 797 1388 803 q 1378 789 1381 792 q 1241 560 1300 679 q 1139 313 1182 440 q 1167 307 1149 311 q 1202 297 1186 303 q 1218 279 1218 290 q 1211 267 1218 267 q 1193 267 1204 267 q 1163 274 1181 267 q 1131 283 1146 282 q 1094 150 1113 222 q 1076 13 1076 78 q 1085 -26 1076 -15 q 1119 -33 1093 -36 q 1153 -20 1135 -31 q 1185 1 1171 -10 q 1190 4 1190 4 q 1199 -8 1199 4 q 1194 -19 1199 -15 q 1137 -57 1171 -43 q 1085 -71 1103 -71 q 1026 -42 1042 -71 q 1010 25 1010 -12 q 1026 162 1010 90 q 1057 296 1042 233 q 1022 299 1040 299 q 985 299 1004 299 q 919 297 950 299 q 869 294 888 296 q 737 167 808 232 q 585 46 665 101 q 417 -44 504 -10 q 240 -79 331 -79 m 1064 324 q 1107 465 1083 393 q 1161 603 1131 536 q 1038 471 1101 539 q 913 339 974 403 q 989 334 949 338 q 1064 324 1029 331 m 179 -26 q 344 3 261 -26 q 506 82 426 33 q 657 187 585 131 q 790 297 729 243 q 678 294 747 297 q 526 283 608 290 q 363 259 444 275 q 213 217 282 243 q 101 150 144 190 q 53 53 58 110 q 71 5 50 22 q 123 -19 92 -12 q 179 -26 154 -26 m 747 -161 q 718 -151 729 -161 q 707 -128 707 -142 q 722 -93 707 -108 q 754 -78 736 -78 q 781 -89 771 -78 q 792 -115 792 -100 q 778 -147 792 -133 q 747 -161 765 -161 z "},"À":{"ha":1221,"x_min":14,"x_max":1417,"o":"m 240 -79 q 140 -66 193 -79 q 51 -20 88 -53 q 14 71 14 13 q 40 158 14 119 q 101 226 67 197 q 223 290 151 267 q 377 326 294 314 q 545 342 460 338 q 707 346 631 346 q 777 345 743 346 q 840 344 811 344 q 931 436 879 381 q 1038 555 982 492 q 1150 674 1094 618 q 1172 683 1160 683 q 1185 682 1179 683 q 1197 676 1192 681 q 1224 728 1210 701 q 1256 776 1239 754 q 1284 798 1263 786 q 1328 819 1306 810 q 1363 829 1351 829 q 1388 808 1388 829 q 1384 797 1388 803 q 1378 789 1381 792 q 1241 560 1300 679 q 1139 313 1182 440 q 1167 307 1149 311 q 1202 297 1186 303 q 1218 279 1218 290 q 1211 267 1218 267 q 1193 267 1204 267 q 1163 274 1181 267 q 1131 283 1146 282 q 1094 150 1113 222 q 1076 13 1076 78 q 1085 -26 1076 -15 q 1119 -33 1093 -36 q 1153 -20 1135 -31 q 1185 1 1171 -10 q 1190 4 1190 4 q 1199 -8 1199 4 q 1194 -19 1199 -15 q 1137 -57 1171 -43 q 1085 -71 1103 -71 q 1026 -42 1042 -71 q 1010 25 1010 -12 q 1026 162 1010 90 q 1057 296 1042 233 q 1022 299 1040 299 q 985 299 1004 299 q 919 297 950 299 q 869 294 888 296 q 737 167 808 232 q 585 46 665 101 q 417 -44 504 -10 q 240 -79 331 -79 m 1064 324 q 1107 465 1083 393 q 1161 603 1131 536 q 1038 471 1101 539 q 913 339 974 403 q 989 334 949 338 q 1064 324 1029 331 m 179 -26 q 344 3 261 -26 q 506 82 426 33 q 657 187 585 131 q 790 297 729 243 q 678 294 747 297 q 526 283 608 290 q 363 259 444 275 q 213 217 282 243 q 101 150 144 190 q 53 53 58 110 q 71 5 50 22 q 123 -19 92 -12 q 179 -26 154 -26 m 1406 878 q 1373 888 1400 876 q 1313 914 1346 899 q 1253 942 1279 929 q 1224 958 1228 954 q 1215 967 1219 961 q 1208 981 1210 972 l 1208 986 q 1213 1006 1208 997 q 1222 1015 1217 1014 q 1235 1014 1228 1015 q 1251 1006 1242 1013 q 1335 953 1296 979 q 1410 899 1375 926 q 1417 889 1414 896 q 1406 878 1417 878 z "},"Ả":{"ha":1221,"x_min":14,"x_max":1485,"o":"m 240 -79 q 140 -66 193 -79 q 51 -20 88 -53 q 14 71 14 13 q 40 158 14 119 q 101 226 67 197 q 223 290 151 267 q 377 326 294 314 q 545 342 460 338 q 707 346 631 346 q 777 345 743 346 q 840 344 811 344 q 931 436 879 381 q 1038 555 982 492 q 1150 674 1094 618 q 1172 683 1160 683 q 1185 682 1179 683 q 1197 676 1192 681 q 1224 728 1210 701 q 1256 776 1239 754 q 1284 798 1263 786 q 1328 819 1306 810 q 1363 829 1351 829 q 1388 808 1388 829 q 1384 797 1388 803 q 1378 789 1381 792 q 1241 560 1300 679 q 1139 313 1182 440 q 1167 307 1149 311 q 1202 297 1186 303 q 1218 279 1218 290 q 1211 267 1218 267 q 1193 267 1204 267 q 1163 274 1181 267 q 1131 283 1146 282 q 1094 150 1113 222 q 1076 13 1076 78 q 1085 -26 1076 -15 q 1119 -33 1093 -36 q 1153 -20 1135 -31 q 1185 1 1171 -10 q 1190 4 1190 4 q 1199 -8 1199 4 q 1194 -19 1199 -15 q 1137 -57 1171 -43 q 1085 -71 1103 -71 q 1026 -42 1042 -71 q 1010 25 1010 -12 q 1026 162 1010 90 q 1057 296 1042 233 q 1022 299 1040 299 q 985 299 1004 299 q 919 297 950 299 q 869 294 888 296 q 737 167 808 232 q 585 46 665 101 q 417 -44 504 -10 q 240 -79 331 -79 m 1064 324 q 1107 465 1083 393 q 1161 603 1131 536 q 1038 471 1101 539 q 913 339 974 403 q 989 334 949 338 q 1064 324 1029 331 m 179 -26 q 344 3 261 -26 q 506 82 426 33 q 657 187 585 131 q 790 297 729 243 q 678 294 747 297 q 526 283 608 290 q 363 259 444 275 q 213 217 282 243 q 101 150 144 190 q 53 53 58 110 q 71 5 50 22 q 123 -19 92 -12 q 179 -26 154 -26 m 1375 878 q 1365 883 1367 878 q 1367 894 1363 889 q 1379 911 1369 901 q 1392 925 1389 921 q 1415 951 1407 944 q 1424 976 1424 958 q 1390 1001 1424 1001 q 1372 1000 1381 1001 q 1357 996 1364 999 l 1347 994 q 1339 1006 1339 994 q 1367 1028 1340 1017 q 1419 1040 1393 1040 q 1465 1028 1444 1040 q 1485 989 1485 1015 q 1463 938 1485 954 q 1426 911 1442 921 q 1410 899 1419 906 q 1394 888 1401 893 q 1375 878 1388 878 z "},"Ȃ":{"ha":1221,"x_min":14,"x_max":1510,"o":"m 1421 1006 q 1492 976 1474 1006 q 1510 919 1510 947 q 1503 887 1510 897 q 1488 876 1496 876 q 1478 886 1479 876 q 1476 910 1476 896 q 1459 941 1476 933 q 1415 949 1442 949 q 1347 935 1379 949 q 1292 886 1315 922 q 1279 881 1286 881 q 1271 889 1271 881 q 1275 906 1271 896 q 1331 976 1290 947 q 1421 1006 1371 1006 m 240 -79 q 140 -66 193 -79 q 51 -20 88 -53 q 14 71 14 13 q 40 158 14 119 q 101 226 67 197 q 223 290 151 267 q 377 326 294 314 q 545 342 460 338 q 707 346 631 346 q 777 345 743 346 q 840 344 811 344 q 931 436 879 381 q 1038 555 982 492 q 1150 674 1094 618 q 1172 683 1160 683 q 1185 682 1179 683 q 1197 676 1192 681 q 1224 728 1210 701 q 1256 776 1239 754 q 1284 798 1263 786 q 1328 819 1306 810 q 1363 829 1351 829 q 1388 808 1388 829 q 1384 797 1388 803 q 1378 789 1381 792 q 1241 560 1300 679 q 1139 313 1182 440 q 1167 307 1149 311 q 1202 297 1186 303 q 1218 279 1218 290 q 1211 267 1218 267 q 1193 267 1204 267 q 1163 274 1181 267 q 1131 283 1146 282 q 1094 150 1113 222 q 1076 13 1076 78 q 1085 -26 1076 -15 q 1119 -33 1093 -36 q 1153 -20 1135 -31 q 1185 1 1171 -10 q 1190 4 1190 4 q 1199 -8 1199 4 q 1194 -19 1199 -15 q 1137 -57 1171 -43 q 1085 -71 1103 -71 q 1026 -42 1042 -71 q 1010 25 1010 -12 q 1026 162 1010 90 q 1057 296 1042 233 q 1022 299 1040 299 q 985 299 1004 299 q 919 297 950 299 q 869 294 888 296 q 737 167 808 232 q 585 46 665 101 q 417 -44 504 -10 q 240 -79 331 -79 m 1064 324 q 1107 465 1083 393 q 1161 603 1131 536 q 1038 471 1101 539 q 913 339 974 403 q 989 334 949 338 q 1064 324 1029 331 m 179 -26 q 344 3 261 -26 q 506 82 426 33 q 657 187 585 131 q 790 297 729 243 q 678 294 747 297 q 526 283 608 290 q 363 259 444 275 q 213 217 282 243 q 101 150 144 190 q 53 53 58 110 q 71 5 50 22 q 123 -19 92 -12 q 179 -26 154 -26 z "},"Ā":{"ha":1221,"x_min":14,"x_max":1508,"o":"m 240 -79 q 140 -66 193 -79 q 51 -20 88 -53 q 14 71 14 13 q 40 158 14 119 q 101 226 67 197 q 223 290 151 267 q 377 326 294 314 q 545 342 460 338 q 707 346 631 346 q 777 345 743 346 q 840 344 811 344 q 931 436 879 381 q 1038 555 982 492 q 1150 674 1094 618 q 1172 683 1160 683 q 1185 682 1179 683 q 1197 676 1192 681 q 1224 728 1210 701 q 1256 776 1239 754 q 1284 798 1263 786 q 1328 819 1306 810 q 1363 829 1351 829 q 1388 808 1388 829 q 1384 797 1388 803 q 1378 789 1381 792 q 1241 560 1300 679 q 1139 313 1182 440 q 1167 307 1149 311 q 1202 297 1186 303 q 1218 279 1218 290 q 1211 267 1218 267 q 1193 267 1204 267 q 1163 274 1181 267 q 1131 283 1146 282 q 1094 150 1113 222 q 1076 13 1076 78 q 1085 -26 1076 -15 q 1119 -33 1093 -36 q 1153 -20 1135 -31 q 1185 1 1171 -10 q 1190 4 1190 4 q 1199 -8 1199 4 q 1194 -19 1199 -15 q 1137 -57 1171 -43 q 1085 -71 1103 -71 q 1026 -42 1042 -71 q 1010 25 1010 -12 q 1026 162 1010 90 q 1057 296 1042 233 q 1022 299 1040 299 q 985 299 1004 299 q 919 297 950 299 q 869 294 888 296 q 737 167 808 232 q 585 46 665 101 q 417 -44 504 -10 q 240 -79 331 -79 m 1064 324 q 1107 465 1083 393 q 1161 603 1131 536 q 1038 471 1101 539 q 913 339 974 403 q 989 334 949 338 q 1064 324 1029 331 m 179 -26 q 344 3 261 -26 q 506 82 426 33 q 657 187 585 131 q 790 297 729 243 q 678 294 747 297 q 526 283 608 290 q 363 259 444 275 q 213 217 282 243 q 101 150 144 190 q 53 53 58 110 q 71 5 50 22 q 123 -19 92 -12 q 179 -26 154 -26 m 1342 893 q 1300 894 1324 893 q 1265 897 1276 894 q 1254 910 1254 901 q 1261 926 1254 917 q 1277 936 1267 933 q 1297 940 1288 939 q 1311 942 1304 942 q 1326 942 1318 942 q 1406 938 1363 942 q 1474 928 1449 933 q 1498 922 1488 926 q 1508 911 1508 918 q 1503 901 1508 903 q 1486 897 1497 899 q 1453 896 1479 897 q 1399 894 1426 894 q 1358 893 1371 893 l 1342 893 z "},"Ą":{"ha":1221,"x_min":14,"x_max":1388,"o":"m 240 -79 q 140 -66 193 -79 q 51 -20 88 -53 q 14 71 14 13 q 40 158 14 119 q 101 226 67 197 q 223 290 151 267 q 377 326 294 314 q 545 342 460 338 q 707 346 631 346 q 777 345 743 346 q 840 344 811 344 q 931 436 879 381 q 1038 555 982 492 q 1150 674 1094 618 q 1172 683 1160 683 q 1185 682 1179 683 q 1197 676 1192 681 q 1224 728 1210 701 q 1256 776 1239 754 q 1284 798 1263 786 q 1328 819 1306 810 q 1363 829 1351 829 q 1388 808 1388 829 q 1384 797 1388 803 q 1378 789 1381 792 q 1241 560 1300 679 q 1139 313 1182 440 q 1167 307 1149 311 q 1202 297 1186 303 q 1218 279 1218 290 q 1211 267 1218 267 q 1193 267 1204 267 q 1163 274 1181 267 q 1131 283 1146 282 q 1094 150 1113 222 q 1076 13 1076 78 q 1085 -26 1076 -15 q 1119 -33 1093 -36 q 1153 -20 1135 -31 q 1185 1 1171 -10 q 1190 4 1190 4 q 1199 -8 1199 4 q 1194 -19 1199 -15 q 1137 -57 1171 -43 q 1085 -71 1103 -71 q 1026 -42 1042 -71 q 1010 25 1010 -12 q 1026 162 1010 90 q 1057 296 1042 233 q 1022 299 1040 299 q 985 299 1004 299 q 919 297 950 299 q 869 294 888 296 q 737 167 808 232 q 585 46 665 101 q 417 -44 504 -10 q 240 -79 331 -79 m 1064 324 q 1107 465 1083 393 q 1161 603 1131 536 q 1038 471 1101 539 q 913 339 974 403 q 989 334 949 338 q 1064 324 1029 331 m 179 -26 q 344 3 261 -26 q 506 82 426 33 q 657 187 585 131 q 790 297 729 243 q 678 294 747 297 q 526 283 608 290 q 363 259 444 275 q 213 217 282 243 q 101 150 144 190 q 53 53 58 110 q 71 5 50 22 q 123 -19 92 -12 q 179 -26 154 -26 m 1050 -267 q 1008 -275 1029 -275 q 962 -259 981 -275 q 943 -212 943 -243 q 956 -167 943 -192 q 986 -118 968 -142 q 1028 -74 1010 -90 q 1060 -49 1046 -58 q 1071 -46 1063 -46 q 1085 -49 1079 -46 q 1090 -58 1092 -51 l 1089 -60 q 1068 -84 1082 -67 q 1035 -128 1054 -101 q 1008 -196 1008 -165 q 1013 -214 1008 -207 q 1044 -225 1024 -225 q 1101 -196 1071 -225 q 1108 -193 1107 -193 q 1118 -200 1115 -193 q 1117 -212 1121 -207 q 1086 -243 1104 -226 q 1050 -267 1068 -260 z "},"Å":{"ha":1221,"x_min":14,"x_max":1493,"o":"m 240 -79 q 140 -66 193 -79 q 51 -20 88 -53 q 14 71 14 13 q 40 158 14 119 q 101 226 67 197 q 223 290 151 267 q 377 326 294 314 q 545 342 460 338 q 707 346 631 346 q 777 345 743 346 q 840 344 811 344 q 931 436 879 381 q 1038 555 982 492 q 1150 674 1094 618 q 1172 683 1160 683 q 1185 682 1179 683 q 1197 676 1192 681 q 1224 728 1210 701 q 1256 776 1239 754 q 1284 798 1263 786 q 1328 819 1306 810 q 1363 829 1351 829 q 1388 808 1388 829 q 1384 797 1388 803 q 1378 789 1381 792 q 1241 560 1300 679 q 1139 313 1182 440 q 1167 307 1149 311 q 1202 297 1186 303 q 1218 279 1218 290 q 1211 267 1218 267 q 1193 267 1204 267 q 1163 274 1181 267 q 1131 283 1146 282 q 1094 150 1113 222 q 1076 13 1076 78 q 1085 -26 1076 -15 q 1119 -33 1093 -36 q 1153 -20 1135 -31 q 1185 1 1171 -10 q 1190 4 1190 4 q 1199 -8 1199 4 q 1194 -19 1199 -15 q 1137 -57 1171 -43 q 1085 -71 1103 -71 q 1026 -42 1042 -71 q 1010 25 1010 -12 q 1026 162 1010 90 q 1057 296 1042 233 q 1022 299 1040 299 q 985 299 1004 299 q 919 297 950 299 q 869 294 888 296 q 737 167 808 232 q 585 46 665 101 q 417 -44 504 -10 q 240 -79 331 -79 m 1064 324 q 1107 465 1083 393 q 1161 603 1131 536 q 1038 471 1101 539 q 913 339 974 403 q 989 334 949 338 q 1064 324 1029 331 m 179 -26 q 344 3 261 -26 q 506 82 426 33 q 657 187 585 131 q 790 297 729 243 q 678 294 747 297 q 526 283 608 290 q 363 259 444 275 q 213 217 282 243 q 101 150 144 190 q 53 53 58 110 q 71 5 50 22 q 123 -19 92 -12 q 179 -26 154 -26 m 1372 875 q 1315 892 1333 875 q 1297 936 1297 908 q 1333 1001 1297 974 q 1418 1029 1368 1029 q 1469 1016 1446 1029 q 1493 975 1493 1003 q 1473 918 1493 940 q 1424 885 1453 896 q 1372 875 1396 875 m 1375 901 q 1415 922 1394 901 q 1435 976 1435 942 q 1414 1001 1435 1001 q 1376 983 1396 1001 q 1356 928 1356 964 q 1375 901 1356 901 z "},"Ǻ":{"ha":1221,"x_min":14,"x_max":1549,"o":"m 240 -79 q 140 -66 193 -79 q 51 -20 88 -53 q 14 71 14 13 q 40 158 14 119 q 101 226 67 197 q 223 290 151 267 q 377 326 294 314 q 545 342 460 338 q 707 346 631 346 q 777 345 743 346 q 840 344 811 344 q 931 436 879 381 q 1038 555 982 492 q 1150 674 1094 618 q 1172 683 1160 683 q 1185 682 1179 683 q 1197 676 1192 681 q 1224 728 1210 701 q 1256 776 1239 754 q 1284 798 1263 786 q 1328 819 1306 810 q 1363 829 1351 829 q 1388 808 1388 829 q 1384 797 1388 803 q 1378 789 1381 792 q 1241 560 1300 679 q 1139 313 1182 440 q 1167 307 1149 311 q 1202 297 1186 303 q 1218 279 1218 290 q 1211 267 1218 267 q 1193 267 1204 267 q 1163 274 1181 267 q 1131 283 1146 282 q 1094 150 1113 222 q 1076 13 1076 78 q 1085 -26 1076 -15 q 1119 -33 1093 -36 q 1153 -20 1135 -31 q 1185 1 1171 -10 q 1190 4 1190 4 q 1199 -8 1199 4 q 1194 -19 1199 -15 q 1137 -57 1171 -43 q 1085 -71 1103 -71 q 1026 -42 1042 -71 q 1010 25 1010 -12 q 1026 162 1010 90 q 1057 296 1042 233 q 1022 299 1040 299 q 985 299 1004 299 q 919 297 950 299 q 869 294 888 296 q 737 167 808 232 q 585 46 665 101 q 417 -44 504 -10 q 240 -79 331 -79 m 1064 324 q 1107 465 1083 393 q 1161 603 1131 536 q 1038 471 1101 539 q 913 339 974 403 q 989 334 949 338 q 1064 324 1029 331 m 179 -26 q 344 3 261 -26 q 506 82 426 33 q 657 187 585 131 q 790 297 729 243 q 678 294 747 297 q 526 283 608 290 q 363 259 444 275 q 213 217 282 243 q 101 150 144 190 q 53 53 58 110 q 71 5 50 22 q 123 -19 92 -12 q 179 -26 154 -26 m 1372 875 q 1315 892 1333 875 q 1297 936 1297 908 q 1333 1001 1297 974 q 1418 1029 1368 1029 q 1469 1016 1446 1029 q 1493 975 1493 1003 q 1473 918 1493 940 q 1424 885 1453 896 q 1372 875 1396 875 m 1375 901 q 1415 922 1394 901 q 1435 976 1435 942 q 1414 1001 1435 1001 q 1376 983 1396 1001 q 1356 928 1356 964 q 1375 901 1356 901 m 1351 1061 q 1340 1072 1340 1061 q 1347 1082 1343 1079 q 1422 1136 1382 1110 q 1506 1189 1463 1163 q 1523 1197 1517 1196 q 1535 1199 1529 1199 q 1545 1189 1542 1197 q 1549 1169 1549 1181 q 1544 1152 1549 1160 q 1533 1142 1539 1144 q 1503 1125 1529 1138 q 1444 1097 1478 1113 q 1385 1071 1411 1082 q 1351 1061 1358 1060 z "},"Ã":{"ha":1221,"x_min":14,"x_max":1501,"o":"m 240 -79 q 140 -66 193 -79 q 51 -20 88 -53 q 14 71 14 13 q 40 158 14 119 q 101 226 67 197 q 223 290 151 267 q 377 326 294 314 q 545 342 460 338 q 707 346 631 346 q 777 345 743 346 q 840 344 811 344 q 931 436 879 381 q 1038 555 982 492 q 1150 674 1094 618 q 1172 683 1160 683 q 1185 682 1179 683 q 1197 676 1192 681 q 1224 728 1210 701 q 1256 776 1239 754 q 1284 798 1263 786 q 1328 819 1306 810 q 1363 829 1351 829 q 1388 808 1388 829 q 1384 797 1388 803 q 1378 789 1381 792 q 1241 560 1300 679 q 1139 313 1182 440 q 1167 307 1149 311 q 1202 297 1186 303 q 1218 279 1218 290 q 1211 267 1218 267 q 1193 267 1204 267 q 1163 274 1181 267 q 1131 283 1146 282 q 1094 150 1113 222 q 1076 13 1076 78 q 1085 -26 1076 -15 q 1119 -33 1093 -36 q 1153 -20 1135 -31 q 1185 1 1171 -10 q 1190 4 1190 4 q 1199 -8 1199 4 q 1194 -19 1199 -15 q 1137 -57 1171 -43 q 1085 -71 1103 -71 q 1026 -42 1042 -71 q 1010 25 1010 -12 q 1026 162 1010 90 q 1057 296 1042 233 q 1022 299 1040 299 q 985 299 1004 299 q 919 297 950 299 q 869 294 888 296 q 737 167 808 232 q 585 46 665 101 q 417 -44 504 -10 q 240 -79 331 -79 m 1064 324 q 1107 465 1083 393 q 1161 603 1131 536 q 1038 471 1101 539 q 913 339 974 403 q 989 334 949 338 q 1064 324 1029 331 m 179 -26 q 344 3 261 -26 q 506 82 426 33 q 657 187 585 131 q 790 297 729 243 q 678 294 747 297 q 526 283 608 290 q 363 259 444 275 q 213 217 282 243 q 101 150 144 190 q 53 53 58 110 q 71 5 50 22 q 123 -19 92 -12 q 179 -26 154 -26 m 1269 888 q 1258 897 1258 888 q 1279 947 1258 929 q 1333 964 1300 964 q 1390 954 1361 964 q 1443 942 1424 942 q 1483 968 1469 942 l 1488 969 q 1500 961 1496 969 q 1480 910 1501 928 q 1424 893 1458 893 q 1368 903 1396 893 q 1314 915 1335 915 q 1290 908 1300 915 q 1274 889 1281 901 l 1269 888 z "},"B":{"ha":1083,"x_min":-8,"x_max":1113,"o":"m 354 -81 q 278 -76 324 -81 q 183 -59 233 -71 q 90 -28 133 -47 q 19 21 47 -8 q -8 90 -8 50 q 25 188 -8 147 q 110 253 58 228 q 219 291 163 278 q 321 307 275 304 q 393 438 353 367 q 478 578 433 510 q 568 693 524 646 q 612 720 588 714 q 664 726 636 726 q 685 723 674 726 q 697 707 696 719 q 681 681 694 694 q 660 658 668 667 q 528 494 596 588 q 401 307 460 401 q 594 293 494 306 q 788 252 693 281 q 960 171 882 224 q 992 215 978 190 q 1006 268 1006 240 q 976 338 1006 308 q 901 385 947 367 q 803 415 856 404 q 705 431 751 426 q 629 435 658 435 q 603 434 621 435 q 572 438 586 433 q 558 456 558 442 q 578 485 558 478 q 615 496 599 493 q 747 517 681 508 q 878 547 814 526 q 996 610 942 567 q 1020 631 1007 618 q 1033 657 1033 643 q 998 697 1033 681 q 908 722 963 713 q 797 737 854 732 q 693 743 739 742 q 629 744 647 744 q 409 728 511 744 q 192 682 307 711 q 153 670 179 679 q 102 654 126 661 q 69 647 78 647 q 53 652 60 647 q 46 667 46 657 q 78 717 46 696 q 164 753 111 739 q 279 776 217 768 q 402 790 342 785 q 510 796 463 794 q 578 797 557 797 q 651 795 603 797 q 759 788 699 793 q 881 771 819 782 q 996 743 943 760 q 1081 702 1049 726 q 1113 644 1113 678 q 1085 586 1113 613 q 1015 538 1058 560 q 922 501 971 517 q 831 477 874 486 q 760 465 788 468 q 865 447 807 461 q 978 406 924 432 q 1067 344 1032 381 q 1101 263 1101 308 q 1076 183 1101 219 q 1021 119 1050 147 q 1048 82 1032 108 q 1064 39 1064 56 q 1060 22 1064 29 q 1051 15 1057 15 q 1042 22 1046 15 q 1014 61 1029 42 q 988 92 999 81 q 794 -8 904 31 q 570 -63 685 -46 q 354 -81 456 -81 m 354 -47 q 556 -29 451 -47 q 760 29 661 -11 q 936 136 860 69 q 715 228 843 199 q 451 258 588 258 q 420 258 436 258 q 389 257 404 258 l 371 256 q 325 169 347 215 q 288 81 303 124 q 274 4 274 38 q 267 -22 274 -7 q 250 -36 261 -36 q 354 -47 303 -47 m 225 -29 q 212 -5 215 -22 q 208 24 208 13 q 223 96 208 54 q 257 178 238 138 q 290 247 276 219 q 199 222 246 240 q 119 170 151 204 q 88 79 88 136 q 112 26 88 47 q 169 -9 136 4 q 225 -29 201 -22 z "},"C":{"ha":1064,"x_min":47,"x_max":1185,"o":"m 350 -60 q 251 -51 303 -60 q 152 -22 199 -43 q 76 38 106 0 q 47 135 47 76 q 78 267 47 203 q 162 391 110 332 q 277 500 214 450 q 403 590 340 550 q 519 656 467 629 q 981 772 753 772 q 1045 769 1010 772 q 1113 753 1081 765 q 1165 718 1144 742 q 1185 656 1185 694 q 1144 544 1185 592 q 1043 463 1104 496 q 917 414 982 431 q 804 397 853 397 q 744 403 775 397 q 691 428 713 410 q 669 483 669 447 q 678 523 669 503 q 696 543 686 543 q 717 525 717 543 q 715 511 717 518 q 714 497 714 504 q 736 449 714 467 q 817 431 758 431 q 917 447 863 431 q 1019 491 971 463 q 1096 558 1067 519 q 1128 635 1128 600 q 1087 697 1128 675 q 985 718 1046 718 q 751 682 869 718 q 527 586 633 646 q 338 453 421 526 q 206 303 254 379 q 157 161 157 228 q 189 61 157 100 q 269 4 221 22 q 369 -14 318 -14 q 626 17 503 -14 q 864 114 749 49 q 900 137 876 121 q 949 173 924 153 q 990 210 974 193 q 1007 214 1001 214 q 1017 209 1015 214 q 1015 197 1019 204 q 918 110 979 150 q 783 38 857 69 q 631 -15 708 7 q 480 -48 553 -36 q 350 -60 407 -60 z "},"Ć":{"ha":1064,"x_min":47,"x_max":1185,"o":"m 350 -60 q 251 -51 303 -60 q 152 -22 199 -43 q 76 38 106 0 q 47 135 47 76 q 78 267 47 203 q 162 391 110 332 q 277 500 214 450 q 403 590 340 550 q 519 656 467 629 q 981 772 753 772 q 1045 769 1010 772 q 1113 753 1081 765 q 1165 718 1144 742 q 1185 656 1185 694 q 1144 544 1185 592 q 1043 463 1104 496 q 917 414 982 431 q 804 397 853 397 q 744 403 775 397 q 691 428 713 410 q 669 483 669 447 q 678 523 669 503 q 696 543 686 543 q 717 525 717 543 q 715 511 717 518 q 714 497 714 504 q 736 449 714 467 q 817 431 758 431 q 917 447 863 431 q 1019 491 971 463 q 1096 558 1067 519 q 1128 635 1128 600 q 1087 697 1128 675 q 985 718 1046 718 q 751 682 869 718 q 527 586 633 646 q 338 453 421 526 q 206 303 254 379 q 157 161 157 228 q 189 61 157 100 q 269 4 221 22 q 369 -14 318 -14 q 626 17 503 -14 q 864 114 749 49 q 900 137 876 121 q 949 173 924 153 q 990 210 974 193 q 1007 214 1001 214 q 1017 209 1015 214 q 1015 197 1019 204 q 918 110 979 150 q 783 38 857 69 q 631 -15 708 7 q 480 -48 553 -36 q 350 -60 407 -60 m 879 826 q 868 838 868 826 q 875 847 871 844 q 950 901 910 875 q 1033 954 990 928 q 1051 963 1044 961 q 1063 964 1057 964 q 1073 954 1069 963 q 1076 935 1076 946 q 1072 917 1076 925 q 1061 907 1067 910 q 1031 890 1057 903 q 972 863 1006 878 q 913 836 939 847 q 879 826 886 825 z "},"Č":{"ha":1064,"x_min":47,"x_max":1185,"o":"m 1138 975 q 1146 963 1151 975 q 1139 953 1143 957 q 1076 899 1104 922 q 1003 840 1047 876 q 974 826 986 826 q 953 840 963 826 q 914 897 931 869 q 882 954 897 924 q 881 960 882 957 q 882 964 881 963 q 896 975 882 975 q 923 958 903 975 q 964 922 943 942 q 993 893 985 903 q 1026 913 1004 900 q 1071 940 1047 926 q 1113 965 1094 954 q 1138 975 1132 975 m 350 -60 q 251 -51 303 -60 q 152 -22 199 -43 q 76 38 106 0 q 47 135 47 76 q 78 267 47 203 q 162 391 110 332 q 277 500 214 450 q 403 590 340 550 q 519 656 467 629 q 981 772 753 772 q 1045 769 1010 772 q 1113 753 1081 765 q 1165 718 1144 742 q 1185 656 1185 694 q 1144 544 1185 592 q 1043 463 1104 496 q 917 414 982 431 q 804 397 853 397 q 744 403 775 397 q 691 428 713 410 q 669 483 669 447 q 678 523 669 503 q 696 543 686 543 q 717 525 717 543 q 715 511 717 518 q 714 497 714 504 q 736 449 714 467 q 817 431 758 431 q 917 447 863 431 q 1019 491 971 463 q 1096 558 1067 519 q 1128 635 1128 600 q 1087 697 1128 675 q 985 718 1046 718 q 751 682 869 718 q 527 586 633 646 q 338 453 421 526 q 206 303 254 379 q 157 161 157 228 q 189 61 157 100 q 269 4 221 22 q 369 -14 318 -14 q 626 17 503 -14 q 864 114 749 49 q 900 137 876 121 q 949 173 924 153 q 990 210 974 193 q 1007 214 1001 214 q 1017 209 1015 214 q 1015 197 1019 204 q 918 110 979 150 q 783 38 857 69 q 631 -15 708 7 q 480 -48 553 -36 q 350 -60 407 -60 z "},"Ç":{"ha":1064,"x_min":47,"x_max":1185,"o":"m 350 -60 q 251 -51 303 -60 q 152 -22 199 -43 q 76 38 106 0 q 47 135 47 76 q 78 267 47 203 q 162 391 110 332 q 277 500 214 450 q 403 590 340 550 q 519 656 467 629 q 981 772 753 772 q 1045 769 1010 772 q 1113 753 1081 765 q 1165 718 1144 742 q 1185 656 1185 694 q 1144 544 1185 592 q 1043 463 1104 496 q 917 414 982 431 q 804 397 853 397 q 744 403 775 397 q 691 428 713 410 q 669 483 669 447 q 678 523 669 503 q 696 543 686 543 q 717 525 717 543 q 715 511 717 518 q 714 497 714 504 q 736 449 714 467 q 817 431 758 431 q 917 447 863 431 q 1019 491 971 463 q 1096 558 1067 519 q 1128 635 1128 600 q 1087 697 1128 675 q 985 718 1046 718 q 751 682 869 718 q 527 586 633 646 q 338 453 421 526 q 206 303 254 379 q 157 161 157 228 q 189 61 157 100 q 269 4 221 22 q 369 -14 318 -14 q 626 17 503 -14 q 864 114 749 49 q 900 137 876 121 q 949 173 924 153 q 990 210 974 193 q 1007 214 1001 214 q 1017 209 1015 214 q 1015 197 1019 204 q 918 110 979 150 q 783 38 857 69 q 631 -15 708 7 q 480 -48 553 -36 q 350 -60 407 -60 m 224 -272 q 215 -268 218 -272 q 213 -260 211 -264 q 225 -249 213 -249 q 297 -231 271 -249 q 322 -189 322 -214 q 306 -147 322 -168 q 290 -106 290 -131 q 315 -51 290 -75 q 376 -28 339 -28 q 392 -36 389 -28 l 388 -42 q 369 -47 376 -43 q 356 -58 363 -51 q 342 -86 342 -72 q 347 -106 342 -96 q 360 -126 353 -115 q 374 -151 367 -137 q 382 -179 382 -164 q 335 -245 382 -218 q 224 -272 289 -272 z "},"Ĉ":{"ha":1064,"x_min":47,"x_max":1185,"o":"m 350 -60 q 251 -51 303 -60 q 152 -22 199 -43 q 76 38 106 0 q 47 135 47 76 q 78 267 47 203 q 162 391 110 332 q 277 500 214 450 q 403 590 340 550 q 519 656 467 629 q 981 772 753 772 q 1045 769 1010 772 q 1113 753 1081 765 q 1165 718 1144 742 q 1185 656 1185 694 q 1144 544 1185 592 q 1043 463 1104 496 q 917 414 982 431 q 804 397 853 397 q 744 403 775 397 q 691 428 713 410 q 669 483 669 447 q 678 523 669 503 q 696 543 686 543 q 717 525 717 543 q 715 511 717 518 q 714 497 714 504 q 736 449 714 467 q 817 431 758 431 q 917 447 863 431 q 1019 491 971 463 q 1096 558 1067 519 q 1128 635 1128 600 q 1087 697 1128 675 q 985 718 1046 718 q 751 682 869 718 q 527 586 633 646 q 338 453 421 526 q 206 303 254 379 q 157 161 157 228 q 189 61 157 100 q 269 4 221 22 q 369 -14 318 -14 q 626 17 503 -14 q 864 114 749 49 q 900 137 876 121 q 949 173 924 153 q 990 210 974 193 q 1007 214 1001 214 q 1017 209 1015 214 q 1015 197 1019 204 q 918 110 979 150 q 783 38 857 69 q 631 -15 708 7 q 480 -48 553 -36 q 350 -60 407 -60 m 844 826 q 836 839 833 826 q 844 849 839 844 q 909 903 879 881 q 988 961 939 926 q 1017 975 1004 975 q 1038 961 1028 975 q 1077 905 1060 932 q 1108 847 1094 878 q 1109 842 1108 844 q 1108 838 1110 840 q 1094 826 1108 826 q 1067 843 1088 826 q 1026 880 1047 860 q 997 908 1006 900 q 963 889 986 903 q 915 861 940 875 q 869 837 889 847 q 844 826 850 826 z "},"Ċ":{"ha":1064,"x_min":47,"x_max":1185,"o":"m 350 -60 q 251 -51 303 -60 q 152 -22 199 -43 q 76 38 106 0 q 47 135 47 76 q 78 267 47 203 q 162 391 110 332 q 277 500 214 450 q 403 590 340 550 q 519 656 467 629 q 981 772 753 772 q 1045 769 1010 772 q 1113 753 1081 765 q 1165 718 1144 742 q 1185 656 1185 694 q 1144 544 1185 592 q 1043 463 1104 496 q 917 414 982 431 q 804 397 853 397 q 744 403 775 397 q 691 428 713 410 q 669 483 669 447 q 678 523 669 503 q 696 543 686 543 q 717 525 717 543 q 715 511 717 518 q 714 497 714 504 q 736 449 714 467 q 817 431 758 431 q 917 447 863 431 q 1019 491 971 463 q 1096 558 1067 519 q 1128 635 1128 600 q 1087 697 1128 675 q 985 718 1046 718 q 751 682 869 718 q 527 586 633 646 q 338 453 421 526 q 206 303 254 379 q 157 161 157 228 q 189 61 157 100 q 269 4 221 22 q 369 -14 318 -14 q 626 17 503 -14 q 864 114 749 49 q 900 137 876 121 q 949 173 924 153 q 990 210 974 193 q 1007 214 1001 214 q 1017 209 1015 214 q 1015 197 1019 204 q 918 110 979 150 q 783 38 857 69 q 631 -15 708 7 q 480 -48 553 -36 q 350 -60 407 -60 m 974 826 q 944 836 956 826 q 933 860 933 846 q 948 894 933 879 q 981 910 963 910 q 1008 899 997 910 q 1018 872 1018 888 q 1005 840 1018 854 q 974 826 992 826 z "},"D":{"ha":1389,"x_min":19,"x_max":1390,"o":"m 414 -82 q 335 -77 383 -82 q 232 -61 286 -72 q 129 -31 178 -50 q 50 19 81 -11 q 19 90 19 49 q 53 188 19 149 q 138 253 86 228 q 245 291 189 278 q 347 307 301 304 q 385 373 361 332 q 437 462 408 414 q 495 556 465 510 q 551 638 525 601 q 596 693 578 675 q 640 719 617 713 q 690 726 663 726 q 722 722 701 726 q 743 704 742 717 q 727 678 740 692 q 706 656 714 665 q 549 471 614 554 q 436 308 485 388 q 594 295 511 307 q 760 260 678 283 q 913 201 842 238 q 1032 113 983 164 q 1117 172 1071 136 q 1206 251 1164 207 q 1276 347 1249 296 q 1304 453 1304 399 q 1260 579 1304 526 q 1143 667 1215 632 q 989 721 1071 701 q 830 749 907 740 q 699 757 753 757 q 490 737 592 757 q 286 681 388 717 q 249 666 272 676 q 204 647 226 656 q 169 639 182 639 q 139 668 139 639 q 172 717 139 696 q 260 753 206 738 q 379 777 315 768 q 504 792 443 786 q 613 799 565 797 q 682 801 661 801 q 810 795 738 801 q 963 774 883 789 q 1119 734 1043 760 q 1256 669 1194 708 q 1353 575 1317 631 q 1390 446 1390 519 q 1358 324 1390 382 q 1276 215 1326 265 q 1172 126 1226 165 q 1072 60 1118 86 q 1080 47 1076 54 q 1083 33 1083 40 q 1065 21 1083 21 q 1051 28 1060 21 q 1039 40 1043 36 q 734 -57 889 -32 q 414 -82 579 -82 m 426 -49 q 716 -11 572 -49 q 990 92 860 26 q 842 185 931 146 q 658 247 754 225 q 476 268 561 268 q 451 268 464 268 q 428 267 439 268 l 413 265 q 363 179 389 225 q 320 85 338 133 q 303 -11 303 36 q 283 -37 303 -33 q 355 -47 319 -44 q 426 -49 390 -49 m 250 -29 q 240 -12 243 -22 q 238 8 238 -1 q 247 65 238 31 q 272 137 257 99 q 301 208 286 175 q 325 263 315 242 q 231 235 281 256 q 148 179 182 215 q 114 88 114 143 q 138 33 114 57 q 194 -7 163 8 q 250 -29 226 -22 z "},"Ǆ":{"ha":2069,"x_min":19,"x_max":2226,"o":"m 2078 975 q 2086 963 2092 975 q 2079 953 2083 957 q 2016 899 2044 922 q 1943 840 1988 876 q 1914 826 1926 826 q 1893 840 1903 826 q 1854 897 1871 869 q 1822 954 1838 924 q 1822 960 1822 957 q 1822 964 1821 963 q 1836 975 1822 975 q 1863 958 1843 975 q 1904 922 1883 942 q 1933 893 1925 903 q 1966 913 1944 900 q 2011 940 1988 926 q 2053 965 2035 954 q 2078 975 2072 975 m 414 -82 q 335 -77 383 -82 q 232 -61 286 -72 q 129 -31 178 -50 q 50 19 81 -11 q 19 90 19 49 q 53 188 19 149 q 138 253 86 228 q 245 291 189 278 q 347 307 301 304 q 385 373 361 332 q 437 462 408 414 q 495 556 465 510 q 551 638 525 601 q 596 693 578 675 q 640 719 617 713 q 690 726 663 726 q 722 722 701 726 q 743 704 742 717 q 727 678 740 692 q 706 656 714 665 q 549 471 614 554 q 436 308 485 388 q 594 295 511 307 q 760 260 678 283 q 913 201 842 238 q 1032 113 983 164 q 1117 172 1071 136 q 1206 251 1164 207 q 1276 347 1249 296 q 1304 453 1304 399 q 1260 579 1304 526 q 1143 667 1215 632 q 989 721 1071 701 q 830 749 907 740 q 699 757 753 757 q 490 737 592 757 q 286 681 388 717 q 249 666 272 676 q 204 647 226 656 q 169 639 182 639 q 139 668 139 639 q 172 717 139 696 q 260 753 206 738 q 379 777 315 768 q 504 792 443 786 q 613 799 565 797 q 682 801 661 801 q 810 795 738 801 q 963 774 883 789 q 1119 734 1043 760 q 1256 669 1194 708 q 1353 575 1317 631 q 1390 446 1390 519 q 1358 324 1390 382 q 1276 215 1326 265 q 1172 126 1226 165 q 1072 60 1118 86 q 1080 47 1076 54 q 1083 33 1083 40 q 1065 21 1083 21 q 1051 28 1060 21 q 1039 40 1043 36 q 734 -57 889 -32 q 414 -82 579 -82 m 426 -49 q 716 -11 572 -49 q 990 92 860 26 q 842 185 931 146 q 658 247 754 225 q 476 268 561 268 q 451 268 464 268 q 428 267 439 268 l 413 265 q 363 179 389 225 q 320 85 338 133 q 303 -11 303 36 q 283 -37 303 -33 q 355 -47 319 -44 q 426 -49 390 -49 m 250 -29 q 240 -12 243 -22 q 238 8 238 -1 q 247 65 238 31 q 272 137 257 99 q 301 208 286 175 q 325 263 315 242 q 231 235 281 256 q 148 179 182 215 q 114 88 114 143 q 138 33 114 57 q 194 -7 163 8 q 250 -29 226 -22 m 1765 -17 q 1673 -6 1726 -17 q 1563 18 1619 4 q 1453 42 1506 32 q 1361 53 1400 53 q 1250 39 1310 53 q 1131 14 1190 25 q 1114 17 1117 14 q 1105 25 1107 19 q 1103 36 1103 31 q 1128 57 1103 51 q 1261 101 1189 67 q 1406 183 1333 135 q 1545 281 1479 231 q 1661 374 1611 332 q 1777 472 1713 417 q 1910 583 1842 528 q 2042 679 1979 639 q 1908 691 1985 686 q 1749 696 1831 696 l 1704 696 q 1582 678 1639 696 q 1487 629 1525 660 q 1442 557 1449 599 q 1440 543 1440 553 q 1455 506 1440 519 q 1489 492 1469 492 q 1567 512 1540 492 q 1628 563 1594 532 q 1636 565 1631 565 q 1647 560 1643 565 q 1647 550 1651 556 q 1580 489 1621 515 q 1493 463 1539 463 q 1413 486 1447 463 q 1378 549 1378 510 q 1378 557 1378 553 q 1379 565 1378 561 q 1440 676 1392 628 q 1560 751 1489 724 q 1707 778 1631 778 q 1795 771 1743 778 q 1901 754 1847 764 q 1999 738 1956 744 q 2060 731 2042 731 q 2117 741 2094 731 q 2168 769 2139 751 q 2187 779 2179 776 q 2200 782 2194 782 q 2221 769 2215 782 q 2224 746 2226 757 q 2217 731 2224 740 q 2203 718 2210 721 q 2030 625 2114 685 q 1862 492 1946 565 q 1689 343 1778 418 q 1544 228 1614 279 q 1404 135 1474 178 q 1485 121 1440 133 q 1579 92 1531 108 q 1674 65 1628 76 q 1754 54 1719 54 q 1907 97 1824 54 q 2063 232 1990 140 q 2075 240 2069 240 q 2082 221 2086 240 q 2068 201 2076 210 q 1978 98 2021 149 q 1885 15 1935 47 q 1765 -17 1835 -17 z "},"Ď":{"ha":1389,"x_min":19,"x_max":1390,"o":"m 1165 975 q 1174 963 1179 975 q 1167 953 1171 957 q 1103 899 1132 922 q 1031 840 1075 876 q 1001 826 1014 826 q 981 840 990 826 q 942 897 958 869 q 910 954 925 924 q 909 960 910 957 q 910 964 908 963 q 924 975 910 975 q 951 958 931 975 q 992 922 971 942 q 1021 893 1013 903 q 1053 913 1032 900 q 1099 940 1075 926 q 1141 965 1122 954 q 1165 975 1160 975 m 414 -82 q 335 -77 383 -82 q 232 -61 286 -72 q 129 -31 178 -50 q 50 19 81 -11 q 19 90 19 49 q 53 188 19 149 q 138 253 86 228 q 245 291 189 278 q 347 307 301 304 q 385 373 361 332 q 437 462 408 414 q 495 556 465 510 q 551 638 525 601 q 596 693 578 675 q 640 719 617 713 q 690 726 663 726 q 722 722 701 726 q 743 704 742 717 q 727 678 740 692 q 706 656 714 665 q 549 471 614 554 q 436 308 485 388 q 594 295 511 307 q 760 260 678 283 q 913 201 842 238 q 1032 113 983 164 q 1117 172 1071 136 q 1206 251 1164 207 q 1276 347 1249 296 q 1304 453 1304 399 q 1260 579 1304 526 q 1143 667 1215 632 q 989 721 1071 701 q 830 749 907 740 q 699 757 753 757 q 490 737 592 757 q 286 681 388 717 q 249 666 272 676 q 204 647 226 656 q 169 639 182 639 q 139 668 139 639 q 172 717 139 696 q 260 753 206 738 q 379 777 315 768 q 504 792 443 786 q 613 799 565 797 q 682 801 661 801 q 810 795 738 801 q 963 774 883 789 q 1119 734 1043 760 q 1256 669 1194 708 q 1353 575 1317 631 q 1390 446 1390 519 q 1358 324 1390 382 q 1276 215 1326 265 q 1172 126 1226 165 q 1072 60 1118 86 q 1080 47 1076 54 q 1083 33 1083 40 q 1065 21 1083 21 q 1051 28 1060 21 q 1039 40 1043 36 q 734 -57 889 -32 q 414 -82 579 -82 m 426 -49 q 716 -11 572 -49 q 990 92 860 26 q 842 185 931 146 q 658 247 754 225 q 476 268 561 268 q 451 268 464 268 q 428 267 439 268 l 413 265 q 363 179 389 225 q 320 85 338 133 q 303 -11 303 36 q 283 -37 303 -33 q 355 -47 319 -44 q 426 -49 390 -49 m 250 -29 q 240 -12 243 -22 q 238 8 238 -1 q 247 65 238 31 q 272 137 257 99 q 301 208 286 175 q 325 263 315 242 q 231 235 281 256 q 148 179 182 215 q 114 88 114 143 q 138 33 114 57 q 194 -7 163 8 q 250 -29 226 -22 z "},"Đ":{"ha":1389,"x_min":19,"x_max":1390,"o":"m 414 -96 q 335 -91 383 -96 q 232 -75 286 -86 q 129 -44 178 -64 q 50 5 81 -25 q 19 76 19 35 q 53 174 19 135 q 138 239 86 214 q 245 277 189 264 q 347 293 301 290 q 385 358 363 321 q 326 358 356 358 q 297 361 314 358 q 281 376 281 364 q 306 399 281 392 q 365 410 332 407 q 415 413 397 413 q 480 517 446 464 q 544 615 514 571 q 596 679 575 658 q 640 706 617 699 q 690 713 663 713 q 722 708 701 713 q 743 690 742 703 q 727 665 740 678 q 706 642 714 651 q 608 529 656 586 q 515 411 560 472 q 597 404 558 410 q 636 386 636 399 q 615 375 636 379 q 572 369 594 371 q 543 365 550 367 q 481 363 510 364 q 436 294 457 328 q 594 281 511 293 q 760 247 678 269 q 913 187 842 224 q 1032 99 983 150 q 1117 158 1071 122 q 1206 238 1164 193 q 1276 333 1249 282 q 1304 439 1304 385 q 1260 565 1304 513 q 1143 653 1215 618 q 989 707 1071 688 q 830 735 907 726 q 699 743 753 743 q 490 723 592 743 q 286 667 388 703 q 250 652 274 663 q 204 633 226 642 q 169 625 182 625 q 139 654 139 625 q 172 703 139 682 q 260 739 206 724 q 379 763 315 754 q 504 778 443 772 q 613 785 565 783 q 682 788 661 788 q 810 781 738 788 q 963 760 883 775 q 1119 720 1043 746 q 1256 656 1194 694 q 1353 561 1317 617 q 1390 432 1390 506 q 1358 310 1390 368 q 1276 201 1326 251 q 1172 112 1226 151 q 1072 46 1118 72 q 1080 33 1076 40 q 1083 19 1083 26 q 1065 7 1083 7 q 1051 15 1060 7 q 1039 26 1043 22 q 734 -71 889 -46 q 414 -96 579 -96 m 426 -62 q 716 -25 572 -62 q 990 78 860 13 q 872 156 942 122 q 724 213 803 190 q 569 245 646 235 q 428 253 493 256 l 413 251 q 363 165 389 211 q 320 71 338 119 q 303 -25 303 22 q 283 -51 303 -47 q 355 -60 319 -58 q 426 -62 390 -62 m 250 -43 q 240 -26 243 -36 q 238 -6 238 -15 q 247 51 238 17 q 272 123 257 85 q 301 194 286 161 q 325 249 315 228 q 231 222 281 242 q 148 165 182 201 q 114 74 114 129 q 138 19 114 43 q 194 -21 163 -6 q 250 -43 226 -36 z "},"ǅ":{"ha":1789,"x_min":19,"x_max":1917,"o":"m 1882 560 q 1890 547 1896 560 q 1883 538 1888 542 q 1820 484 1849 507 q 1747 425 1792 461 q 1718 411 1731 411 q 1697 425 1707 411 q 1658 481 1675 454 q 1626 539 1642 508 q 1626 544 1626 542 q 1626 549 1625 547 q 1640 560 1626 560 q 1667 543 1647 560 q 1708 507 1688 526 q 1738 478 1729 488 q 1770 498 1749 485 q 1815 525 1792 511 q 1858 549 1839 539 q 1882 560 1876 560 m 414 -82 q 335 -77 383 -82 q 232 -61 286 -72 q 129 -31 178 -50 q 50 19 81 -11 q 19 90 19 49 q 53 188 19 149 q 138 253 86 228 q 245 291 189 278 q 347 307 301 304 q 385 373 361 332 q 437 462 408 414 q 495 556 465 510 q 551 638 525 601 q 596 693 578 675 q 640 719 617 713 q 690 726 663 726 q 722 722 701 726 q 743 704 742 717 q 727 678 740 692 q 706 656 714 665 q 549 471 614 554 q 436 308 485 388 q 594 295 511 307 q 760 260 678 283 q 913 201 842 238 q 1032 113 983 164 q 1117 172 1071 136 q 1206 251 1164 207 q 1276 347 1249 296 q 1304 453 1304 399 q 1260 579 1304 526 q 1143 667 1215 632 q 989 721 1071 701 q 830 749 907 740 q 699 757 753 757 q 490 737 592 757 q 286 681 388 717 q 249 666 272 676 q 204 647 226 656 q 169 639 182 639 q 139 668 139 639 q 172 717 139 696 q 260 753 206 738 q 379 777 315 768 q 504 792 443 786 q 613 799 565 797 q 682 801 661 801 q 810 795 738 801 q 963 774 883 789 q 1119 734 1043 760 q 1256 669 1194 708 q 1353 575 1317 631 q 1390 446 1390 519 q 1358 324 1390 382 q 1276 215 1326 265 q 1172 126 1226 165 q 1072 60 1118 86 q 1080 47 1076 54 q 1083 33 1083 40 q 1065 21 1083 21 q 1051 28 1060 21 q 1039 40 1043 36 q 734 -57 889 -32 q 414 -82 579 -82 m 426 -49 q 716 -11 572 -49 q 990 92 860 26 q 842 185 931 146 q 658 247 754 225 q 476 268 561 268 q 451 268 464 268 q 428 267 439 268 l 413 265 q 363 179 389 225 q 320 85 338 133 q 303 -11 303 36 q 283 -37 303 -33 q 355 -47 319 -44 q 426 -49 390 -49 m 250 -29 q 240 -12 243 -22 q 238 8 238 -1 q 247 65 238 31 q 272 137 257 99 q 301 208 286 175 q 325 263 315 242 q 231 235 281 256 q 148 179 182 215 q 114 88 114 143 q 138 33 114 57 q 194 -7 163 8 q 250 -29 226 -22 m 1625 -6 q 1552 8 1582 1 q 1478 14 1522 14 q 1424 8 1451 14 q 1369 3 1397 3 q 1342 21 1342 3 q 1349 40 1342 31 q 1382 56 1354 47 q 1440 74 1410 65 q 1481 86 1471 82 q 1560 132 1519 101 q 1644 199 1601 163 q 1726 267 1686 235 q 1663 278 1699 272 q 1594 283 1626 283 q 1506 258 1544 283 q 1433 194 1468 233 q 1356 110 1399 154 q 1346 106 1351 106 q 1333 115 1333 106 q 1340 129 1333 122 q 1361 153 1347 138 q 1390 185 1375 168 q 1411 213 1404 203 q 1516 318 1465 290 q 1615 346 1567 346 q 1690 329 1654 346 q 1761 313 1726 313 q 1803 324 1790 313 q 1829 336 1817 336 q 1849 328 1840 336 q 1857 310 1857 321 q 1843 290 1857 294 q 1818 281 1829 285 q 1723 224 1768 260 q 1635 147 1678 188 q 1546 74 1592 107 q 1603 57 1567 64 q 1672 50 1640 50 q 1772 77 1728 50 q 1848 138 1815 104 q 1901 192 1881 172 q 1908 196 1906 196 q 1917 183 1917 196 q 1911 168 1917 174 q 1836 94 1881 135 q 1742 23 1792 53 q 1644 -7 1692 -7 q 1635 -7 1639 -7 q 1625 -6 1631 -7 z "},"E":{"ha":1010,"x_min":14,"x_max":1156,"o":"m 321 -60 q 221 -51 274 -60 q 122 -22 168 -43 q 48 37 76 -1 q 19 135 19 75 q 40 233 19 189 q 90 322 60 278 q 67 317 81 321 q 42 314 54 314 q 22 319 31 314 q 14 343 14 325 q 40 388 14 375 q 98 404 65 401 q 153 410 131 407 q 318 555 225 489 q 518 669 411 621 q 736 745 625 718 q 954 772 847 772 q 1018 769 983 772 q 1084 753 1053 765 q 1135 718 1115 742 q 1156 656 1156 694 q 1130 574 1156 617 q 1064 496 1104 531 q 978 444 1024 461 q 944 440 965 440 q 920 443 931 440 q 910 453 910 446 q 922 471 910 463 q 969 502 938 483 q 1035 544 1001 521 q 1093 597 1069 568 q 1117 657 1117 625 q 1098 692 1117 679 q 1052 710 1079 704 q 998 717 1025 715 q 956 718 971 718 q 776 694 868 718 q 594 628 683 669 q 426 532 506 586 q 282 418 346 478 q 349 422 318 421 q 410 422 379 422 l 514 422 q 644 419 581 422 q 752 410 707 415 q 808 401 797 406 q 822 389 822 397 q 775 375 822 374 q 704 378 747 378 q 618 378 661 378 l 519 378 q 417 377 458 378 q 334 374 375 376 q 232 364 293 371 q 150 243 176 299 q 124 143 124 188 q 186 34 124 72 q 358 -4 249 -4 q 570 17 475 -4 q 738 72 665 39 q 859 136 810 104 q 935 190 908 168 q 967 211 963 211 q 985 206 985 211 q 979 192 985 199 q 925 141 967 172 q 819 75 883 110 q 674 10 754 40 q 503 -40 593 -21 q 321 -60 414 -60 z "},"É":{"ha":1010,"x_min":14,"x_max":1156,"o":"m 321 -60 q 221 -51 274 -60 q 122 -22 168 -43 q 48 37 76 -1 q 19 135 19 75 q 40 233 19 189 q 90 322 60 278 q 67 317 81 321 q 42 314 54 314 q 22 319 31 314 q 14 343 14 325 q 40 388 14 375 q 98 404 65 401 q 153 410 131 407 q 318 555 225 489 q 518 669 411 621 q 736 745 625 718 q 954 772 847 772 q 1018 769 983 772 q 1084 753 1053 765 q 1135 718 1115 742 q 1156 656 1156 694 q 1130 574 1156 617 q 1064 496 1104 531 q 978 444 1024 461 q 944 440 965 440 q 920 443 931 440 q 910 453 910 446 q 922 471 910 463 q 969 502 938 483 q 1035 544 1001 521 q 1093 597 1069 568 q 1117 657 1117 625 q 1098 692 1117 679 q 1052 710 1079 704 q 998 717 1025 715 q 956 718 971 718 q 776 694 868 718 q 594 628 683 669 q 426 532 506 586 q 282 418 346 478 q 349 422 318 421 q 410 422 379 422 l 514 422 q 644 419 581 422 q 752 410 707 415 q 808 401 797 406 q 822 389 822 397 q 775 375 822 374 q 704 378 747 378 q 618 378 661 378 l 519 378 q 417 377 458 378 q 334 374 375 376 q 232 364 293 371 q 150 243 176 299 q 124 143 124 188 q 186 34 124 72 q 358 -4 249 -4 q 570 17 475 -4 q 738 72 665 39 q 859 136 810 104 q 935 190 908 168 q 967 211 963 211 q 985 206 985 211 q 979 192 985 199 q 925 141 967 172 q 819 75 883 110 q 674 10 754 40 q 503 -40 593 -21 q 321 -60 414 -60 m 853 826 q 842 838 842 826 q 849 847 844 844 q 924 901 883 875 q 1007 954 964 928 q 1024 963 1018 961 q 1036 964 1031 964 q 1047 954 1043 963 q 1050 935 1050 946 q 1045 917 1050 925 q 1035 907 1040 910 q 1005 890 1031 903 q 946 863 979 878 q 886 836 913 847 q 853 826 860 825 z "},"Ĕ":{"ha":1010,"x_min":14,"x_max":1156,"o":"m 321 -60 q 221 -51 274 -60 q 122 -22 168 -43 q 48 37 76 -1 q 19 135 19 75 q 40 233 19 189 q 90 322 60 278 q 67 317 81 321 q 42 314 54 314 q 22 319 31 314 q 14 343 14 325 q 40 388 14 375 q 98 404 65 401 q 153 410 131 407 q 318 555 225 489 q 518 669 411 621 q 736 745 625 718 q 954 772 847 772 q 1018 769 983 772 q 1084 753 1053 765 q 1135 718 1115 742 q 1156 656 1156 694 q 1130 574 1156 617 q 1064 496 1104 531 q 978 444 1024 461 q 944 440 965 440 q 920 443 931 440 q 910 453 910 446 q 922 471 910 463 q 969 502 938 483 q 1035 544 1001 521 q 1093 597 1069 568 q 1117 657 1117 625 q 1098 692 1117 679 q 1052 710 1079 704 q 998 717 1025 715 q 956 718 971 718 q 776 694 868 718 q 594 628 683 669 q 426 532 506 586 q 282 418 346 478 q 349 422 318 421 q 410 422 379 422 l 514 422 q 644 419 581 422 q 752 410 707 415 q 808 401 797 406 q 822 389 822 397 q 775 375 822 374 q 704 378 747 378 q 618 378 661 378 l 519 378 q 417 377 458 378 q 334 374 375 376 q 232 364 293 371 q 150 243 176 299 q 124 143 124 188 q 186 34 124 72 q 358 -4 249 -4 q 570 17 475 -4 q 738 72 665 39 q 859 136 810 104 q 935 190 908 168 q 967 211 963 211 q 985 206 985 211 q 979 192 985 199 q 925 141 967 172 q 819 75 883 110 q 674 10 754 40 q 503 -40 593 -21 q 321 -60 414 -60 m 925 825 q 856 856 879 825 q 832 919 832 886 q 840 948 832 936 q 858 960 849 960 q 872 943 872 960 q 890 899 872 917 q 935 882 907 882 q 1003 899 971 882 q 1058 950 1035 915 q 1069 956 1064 956 q 1076 949 1076 956 q 1076 944 1076 947 q 1075 938 1075 940 q 1015 856 1054 886 q 925 825 976 825 z "},"Ě":{"ha":1010,"x_min":14,"x_max":1156,"o":"m 1111 975 q 1119 963 1125 975 q 1113 953 1117 957 q 1049 899 1078 922 q 976 840 1021 876 q 947 826 960 826 q 926 840 936 826 q 888 897 904 869 q 856 954 871 924 q 855 960 856 957 q 856 964 854 963 q 869 975 856 975 q 897 958 876 975 q 938 922 917 942 q 967 893 958 903 q 999 913 978 900 q 1044 940 1021 926 q 1087 965 1068 954 q 1111 975 1106 975 m 321 -60 q 221 -51 274 -60 q 122 -22 168 -43 q 48 37 76 -1 q 19 135 19 75 q 40 233 19 189 q 90 322 60 278 q 67 317 81 321 q 42 314 54 314 q 22 319 31 314 q 14 343 14 325 q 40 388 14 375 q 98 404 65 401 q 153 410 131 407 q 318 555 225 489 q 518 669 411 621 q 736 745 625 718 q 954 772 847 772 q 1018 769 983 772 q 1084 753 1053 765 q 1135 718 1115 742 q 1156 656 1156 694 q 1130 574 1156 617 q 1064 496 1104 531 q 978 444 1024 461 q 944 440 965 440 q 920 443 931 440 q 910 453 910 446 q 922 471 910 463 q 969 502 938 483 q 1035 544 1001 521 q 1093 597 1069 568 q 1117 657 1117 625 q 1098 692 1117 679 q 1052 710 1079 704 q 998 717 1025 715 q 956 718 971 718 q 776 694 868 718 q 594 628 683 669 q 426 532 506 586 q 282 418 346 478 q 349 422 318 421 q 410 422 379 422 l 514 422 q 644 419 581 422 q 752 410 707 415 q 808 401 797 406 q 822 389 822 397 q 775 375 822 374 q 704 378 747 378 q 618 378 661 378 l 519 378 q 417 377 458 378 q 334 374 375 376 q 232 364 293 371 q 150 243 176 299 q 124 143 124 188 q 186 34 124 72 q 358 -4 249 -4 q 570 17 475 -4 q 738 72 665 39 q 859 136 810 104 q 935 190 908 168 q 967 211 963 211 q 985 206 985 211 q 979 192 985 199 q 925 141 967 172 q 819 75 883 110 q 674 10 754 40 q 503 -40 593 -21 q 321 -60 414 -60 z "},"Ê":{"ha":1010,"x_min":14,"x_max":1156,"o":"m 321 -60 q 221 -51 274 -60 q 122 -22 168 -43 q 48 37 76 -1 q 19 135 19 75 q 40 233 19 189 q 90 322 60 278 q 67 317 81 321 q 42 314 54 314 q 22 319 31 314 q 14 343 14 325 q 40 388 14 375 q 98 404 65 401 q 153 410 131 407 q 318 555 225 489 q 518 669 411 621 q 736 745 625 718 q 954 772 847 772 q 1018 769 983 772 q 1084 753 1053 765 q 1135 718 1115 742 q 1156 656 1156 694 q 1130 574 1156 617 q 1064 496 1104 531 q 978 444 1024 461 q 944 440 965 440 q 920 443 931 440 q 910 453 910 446 q 922 471 910 463 q 969 502 938 483 q 1035 544 1001 521 q 1093 597 1069 568 q 1117 657 1117 625 q 1098 692 1117 679 q 1052 710 1079 704 q 998 717 1025 715 q 956 718 971 718 q 776 694 868 718 q 594 628 683 669 q 426 532 506 586 q 282 418 346 478 q 349 422 318 421 q 410 422 379 422 l 514 422 q 644 419 581 422 q 752 410 707 415 q 808 401 797 406 q 822 389 822 397 q 775 375 822 374 q 704 378 747 378 q 618 378 661 378 l 519 378 q 417 377 458 378 q 334 374 375 376 q 232 364 293 371 q 150 243 176 299 q 124 143 124 188 q 186 34 124 72 q 358 -4 249 -4 q 570 17 475 -4 q 738 72 665 39 q 859 136 810 104 q 935 190 908 168 q 967 211 963 211 q 985 206 985 211 q 979 192 985 199 q 925 141 967 172 q 819 75 883 110 q 674 10 754 40 q 503 -40 593 -21 q 321 -60 414 -60 m 818 826 q 810 839 807 826 q 818 849 813 844 q 883 903 853 881 q 961 961 913 926 q 990 975 978 975 q 1011 961 1001 975 q 1051 905 1033 932 q 1082 847 1068 878 q 1083 842 1082 844 q 1082 838 1083 840 q 1068 826 1082 826 q 1041 843 1061 826 q 1000 880 1021 860 q 971 908 979 900 q 937 889 960 903 q 888 861 914 875 q 843 837 863 847 q 818 826 824 826 z "},"Ế":{"ha":1010,"x_min":14,"x_max":1296,"o":"m 321 -60 q 221 -51 274 -60 q 122 -22 168 -43 q 48 37 76 -1 q 19 135 19 75 q 40 233 19 189 q 90 322 60 278 q 67 317 81 321 q 42 314 54 314 q 22 319 31 314 q 14 343 14 325 q 40 388 14 375 q 98 404 65 401 q 153 410 131 407 q 318 555 225 489 q 518 669 411 621 q 736 745 625 718 q 954 772 847 772 q 1018 769 983 772 q 1084 753 1053 765 q 1135 718 1115 742 q 1156 656 1156 694 q 1130 574 1156 617 q 1064 496 1104 531 q 978 444 1024 461 q 944 440 965 440 q 920 443 931 440 q 910 453 910 446 q 922 471 910 463 q 969 502 938 483 q 1035 544 1001 521 q 1093 597 1069 568 q 1117 657 1117 625 q 1098 692 1117 679 q 1052 710 1079 704 q 998 717 1025 715 q 956 718 971 718 q 776 694 868 718 q 594 628 683 669 q 426 532 506 586 q 282 418 346 478 q 349 422 318 421 q 410 422 379 422 l 514 422 q 644 419 581 422 q 752 410 707 415 q 808 401 797 406 q 822 389 822 397 q 775 375 822 374 q 704 378 747 378 q 618 378 661 378 l 519 378 q 417 377 458 378 q 334 374 375 376 q 232 364 293 371 q 150 243 176 299 q 124 143 124 188 q 186 34 124 72 q 358 -4 249 -4 q 570 17 475 -4 q 738 72 665 39 q 859 136 810 104 q 935 190 908 168 q 967 211 963 211 q 985 206 985 211 q 979 192 985 199 q 925 141 967 172 q 819 75 883 110 q 674 10 754 40 q 503 -40 593 -21 q 321 -60 414 -60 m 818 826 q 810 839 807 826 q 818 849 813 844 q 883 903 853 881 q 961 961 913 926 q 990 975 978 975 q 1011 961 1001 975 q 1051 905 1033 932 q 1082 847 1068 878 q 1083 842 1082 844 q 1082 838 1083 840 q 1068 826 1082 826 q 1041 843 1061 826 q 1000 880 1021 860 q 971 908 979 900 q 937 889 960 903 q 888 861 914 875 q 843 837 863 847 q 818 826 824 826 m 1099 906 q 1088 917 1088 906 q 1094 926 1090 924 q 1169 981 1129 954 q 1253 1033 1210 1007 q 1270 1042 1264 1040 q 1282 1043 1276 1043 q 1292 1033 1289 1042 q 1296 1014 1296 1025 q 1291 997 1296 1004 q 1281 986 1286 989 q 1251 969 1276 982 q 1192 942 1225 957 q 1132 915 1158 926 q 1099 906 1106 904 z "},"Ệ":{"ha":1010,"x_min":14,"x_max":1156,"o":"m 321 -60 q 221 -51 274 -60 q 122 -22 168 -43 q 48 37 76 -1 q 19 135 19 75 q 40 233 19 189 q 90 322 60 278 q 67 317 81 321 q 42 314 54 314 q 22 319 31 314 q 14 343 14 325 q 40 388 14 375 q 98 404 65 401 q 153 410 131 407 q 318 555 225 489 q 518 669 411 621 q 736 745 625 718 q 954 772 847 772 q 1018 769 983 772 q 1084 753 1053 765 q 1135 718 1115 742 q 1156 656 1156 694 q 1130 574 1156 617 q 1064 496 1104 531 q 978 444 1024 461 q 944 440 965 440 q 920 443 931 440 q 910 453 910 446 q 922 471 910 463 q 969 502 938 483 q 1035 544 1001 521 q 1093 597 1069 568 q 1117 657 1117 625 q 1098 692 1117 679 q 1052 710 1079 704 q 998 717 1025 715 q 956 718 971 718 q 776 694 868 718 q 594 628 683 669 q 426 532 506 586 q 282 418 346 478 q 349 422 318 421 q 410 422 379 422 l 514 422 q 644 419 581 422 q 752 410 707 415 q 808 401 797 406 q 822 389 822 397 q 775 375 822 374 q 704 378 747 378 q 618 378 661 378 l 519 378 q 417 377 458 378 q 334 374 375 376 q 232 364 293 371 q 150 243 176 299 q 124 143 124 188 q 186 34 124 72 q 358 -4 249 -4 q 570 17 475 -4 q 738 72 665 39 q 859 136 810 104 q 935 190 908 168 q 967 211 963 211 q 985 206 985 211 q 979 192 985 199 q 925 141 967 172 q 819 75 883 110 q 674 10 754 40 q 503 -40 593 -21 q 321 -60 414 -60 m 308 -211 q 279 -201 290 -211 q 268 -178 268 -192 q 283 -143 268 -158 q 315 -128 297 -128 q 342 -139 332 -128 q 353 -165 353 -150 q 340 -197 353 -183 q 308 -211 326 -211 m 818 826 q 810 839 807 826 q 818 849 813 844 q 883 903 853 881 q 961 961 913 926 q 990 975 978 975 q 1011 961 1001 975 q 1051 905 1033 932 q 1082 847 1068 878 q 1083 842 1082 844 q 1082 838 1083 840 q 1068 826 1082 826 q 1041 843 1061 826 q 1000 880 1021 860 q 971 908 979 900 q 937 889 960 903 q 888 861 914 875 q 843 837 863 847 q 818 826 824 826 z "},"Ề":{"ha":1010,"x_min":14,"x_max":1156,"o":"m 321 -60 q 221 -51 274 -60 q 122 -22 168 -43 q 48 37 76 -1 q 19 135 19 75 q 40 233 19 189 q 90 322 60 278 q 67 317 81 321 q 42 314 54 314 q 22 319 31 314 q 14 343 14 325 q 40 388 14 375 q 98 404 65 401 q 153 410 131 407 q 318 555 225 489 q 518 669 411 621 q 736 745 625 718 q 954 772 847 772 q 1018 769 983 772 q 1084 753 1053 765 q 1135 718 1115 742 q 1156 656 1156 694 q 1130 574 1156 617 q 1064 496 1104 531 q 978 444 1024 461 q 944 440 965 440 q 920 443 931 440 q 910 453 910 446 q 922 471 910 463 q 969 502 938 483 q 1035 544 1001 521 q 1093 597 1069 568 q 1117 657 1117 625 q 1098 692 1117 679 q 1052 710 1079 704 q 998 717 1025 715 q 956 718 971 718 q 776 694 868 718 q 594 628 683 669 q 426 532 506 586 q 282 418 346 478 q 349 422 318 421 q 410 422 379 422 l 514 422 q 644 419 581 422 q 752 410 707 415 q 808 401 797 406 q 822 389 822 397 q 775 375 822 374 q 704 378 747 378 q 618 378 661 378 l 519 378 q 417 377 458 378 q 334 374 375 376 q 232 364 293 371 q 150 243 176 299 q 124 143 124 188 q 186 34 124 72 q 358 -4 249 -4 q 570 17 475 -4 q 738 72 665 39 q 859 136 810 104 q 935 190 908 168 q 967 211 963 211 q 985 206 985 211 q 979 192 985 199 q 925 141 967 172 q 819 75 883 110 q 674 10 754 40 q 503 -40 593 -21 q 321 -60 414 -60 m 818 826 q 810 839 807 826 q 818 849 813 844 q 883 903 853 881 q 961 961 913 926 q 990 975 978 975 q 1011 961 1001 975 q 1051 905 1033 932 q 1082 847 1068 878 q 1083 842 1082 844 q 1082 838 1083 840 q 1068 826 1082 826 q 1041 843 1061 826 q 1000 880 1021 860 q 971 908 979 900 q 937 889 960 903 q 888 861 914 875 q 843 837 863 847 q 818 826 824 826 m 1119 979 q 1087 989 1114 978 q 1026 1015 1060 1000 q 967 1043 993 1031 q 938 1060 942 1056 q 928 1068 933 1063 q 922 1082 924 1074 l 922 1088 q 926 1107 922 1099 q 936 1117 931 1115 q 949 1115 942 1117 q 965 1107 956 1114 q 1049 1054 1010 1081 q 1124 1000 1089 1028 q 1131 990 1128 997 q 1119 979 1131 979 z "},"Ể":{"ha":1010,"x_min":14,"x_max":1219,"o":"m 321 -60 q 221 -51 274 -60 q 122 -22 168 -43 q 48 37 76 -1 q 19 135 19 75 q 40 233 19 189 q 90 322 60 278 q 67 317 81 321 q 42 314 54 314 q 22 319 31 314 q 14 343 14 325 q 40 388 14 375 q 98 404 65 401 q 153 410 131 407 q 318 555 225 489 q 518 669 411 621 q 736 745 625 718 q 954 772 847 772 q 1018 769 983 772 q 1084 753 1053 765 q 1135 718 1115 742 q 1156 656 1156 694 q 1130 574 1156 617 q 1064 496 1104 531 q 978 444 1024 461 q 944 440 965 440 q 920 443 931 440 q 910 453 910 446 q 922 471 910 463 q 969 502 938 483 q 1035 544 1001 521 q 1093 597 1069 568 q 1117 657 1117 625 q 1098 692 1117 679 q 1052 710 1079 704 q 998 717 1025 715 q 956 718 971 718 q 776 694 868 718 q 594 628 683 669 q 426 532 506 586 q 282 418 346 478 q 349 422 318 421 q 410 422 379 422 l 514 422 q 644 419 581 422 q 752 410 707 415 q 808 401 797 406 q 822 389 822 397 q 775 375 822 374 q 704 378 747 378 q 618 378 661 378 l 519 378 q 417 377 458 378 q 334 374 375 376 q 232 364 293 371 q 150 243 176 299 q 124 143 124 188 q 186 34 124 72 q 358 -4 249 -4 q 570 17 475 -4 q 738 72 665 39 q 859 136 810 104 q 935 190 908 168 q 967 211 963 211 q 985 206 985 211 q 979 192 985 199 q 925 141 967 172 q 819 75 883 110 q 674 10 754 40 q 503 -40 593 -21 q 321 -60 414 -60 m 818 826 q 810 839 807 826 q 818 849 813 844 q 883 903 853 881 q 961 961 913 926 q 990 975 978 975 q 1011 961 1001 975 q 1051 905 1033 932 q 1082 847 1068 878 q 1083 842 1082 844 q 1082 838 1083 840 q 1068 826 1082 826 q 1041 843 1061 826 q 1000 880 1021 860 q 971 908 979 900 q 937 889 960 903 q 888 861 914 875 q 843 837 863 847 q 818 826 824 826 m 1110 908 q 1099 914 1101 908 q 1101 925 1097 919 q 1114 942 1104 932 q 1126 956 1124 951 q 1150 982 1142 975 q 1158 1007 1158 989 q 1125 1032 1158 1032 q 1107 1031 1115 1032 q 1092 1026 1099 1029 l 1082 1025 q 1074 1036 1074 1025 q 1101 1059 1075 1047 q 1154 1071 1128 1071 q 1199 1058 1179 1071 q 1219 1019 1219 1046 q 1198 968 1219 985 q 1161 942 1176 951 q 1145 930 1154 936 q 1129 918 1136 924 q 1110 908 1122 908 z "},"Ễ":{"ha":1010,"x_min":14,"x_max":1156,"o":"m 321 -60 q 221 -51 274 -60 q 122 -22 168 -43 q 48 37 76 -1 q 19 135 19 75 q 40 233 19 189 q 90 322 60 278 q 67 317 81 321 q 42 314 54 314 q 22 319 31 314 q 14 343 14 325 q 40 388 14 375 q 98 404 65 401 q 153 410 131 407 q 318 555 225 489 q 518 669 411 621 q 736 745 625 718 q 954 772 847 772 q 1018 769 983 772 q 1084 753 1053 765 q 1135 718 1115 742 q 1156 656 1156 694 q 1130 574 1156 617 q 1064 496 1104 531 q 978 444 1024 461 q 944 440 965 440 q 920 443 931 440 q 910 453 910 446 q 922 471 910 463 q 969 502 938 483 q 1035 544 1001 521 q 1093 597 1069 568 q 1117 657 1117 625 q 1098 692 1117 679 q 1052 710 1079 704 q 998 717 1025 715 q 956 718 971 718 q 776 694 868 718 q 594 628 683 669 q 426 532 506 586 q 282 418 346 478 q 349 422 318 421 q 410 422 379 422 l 514 422 q 644 419 581 422 q 752 410 707 415 q 808 401 797 406 q 822 389 822 397 q 775 375 822 374 q 704 378 747 378 q 618 378 661 378 l 519 378 q 417 377 458 378 q 334 374 375 376 q 232 364 293 371 q 150 243 176 299 q 124 143 124 188 q 186 34 124 72 q 358 -4 249 -4 q 570 17 475 -4 q 738 72 665 39 q 859 136 810 104 q 935 190 908 168 q 967 211 963 211 q 985 206 985 211 q 979 192 985 199 q 925 141 967 172 q 819 75 883 110 q 674 10 754 40 q 503 -40 593 -21 q 321 -60 414 -60 m 818 826 q 810 839 807 826 q 818 849 813 844 q 883 903 853 881 q 961 961 913 926 q 990 975 978 975 q 1011 961 1001 975 q 1051 905 1033 932 q 1082 847 1068 878 q 1083 842 1082 844 q 1082 838 1083 840 q 1068 826 1082 826 q 1041 843 1061 826 q 1000 880 1021 860 q 971 908 979 900 q 937 889 960 903 q 888 861 914 875 q 843 837 863 847 q 818 826 824 826 m 900 1015 q 889 1025 889 1015 q 910 1074 889 1057 q 964 1092 931 1092 q 1021 1082 992 1092 q 1074 1069 1054 1069 q 1114 1096 1100 1069 l 1118 1097 q 1131 1089 1126 1097 q 1110 1038 1132 1056 q 1054 1021 1089 1021 q 999 1031 1026 1021 q 944 1043 965 1043 q 921 1036 931 1043 q 904 1017 911 1029 l 900 1015 z "},"Ȅ":{"ha":1010,"x_min":14,"x_max":1156,"o":"m 321 -60 q 221 -51 274 -60 q 122 -22 168 -43 q 48 37 76 -1 q 19 135 19 75 q 40 233 19 189 q 90 322 60 278 q 67 317 81 321 q 42 314 54 314 q 22 319 31 314 q 14 343 14 325 q 40 388 14 375 q 98 404 65 401 q 153 410 131 407 q 318 555 225 489 q 518 669 411 621 q 736 745 625 718 q 954 772 847 772 q 1018 769 983 772 q 1084 753 1053 765 q 1135 718 1115 742 q 1156 656 1156 694 q 1130 574 1156 617 q 1064 496 1104 531 q 978 444 1024 461 q 944 440 965 440 q 920 443 931 440 q 910 453 910 446 q 922 471 910 463 q 969 502 938 483 q 1035 544 1001 521 q 1093 597 1069 568 q 1117 657 1117 625 q 1098 692 1117 679 q 1052 710 1079 704 q 998 717 1025 715 q 956 718 971 718 q 776 694 868 718 q 594 628 683 669 q 426 532 506 586 q 282 418 346 478 q 349 422 318 421 q 410 422 379 422 l 514 422 q 644 419 581 422 q 752 410 707 415 q 808 401 797 406 q 822 389 822 397 q 775 375 822 374 q 704 378 747 378 q 618 378 661 378 l 519 378 q 417 377 458 378 q 334 374 375 376 q 232 364 293 371 q 150 243 176 299 q 124 143 124 188 q 186 34 124 72 q 358 -4 249 -4 q 570 17 475 -4 q 738 72 665 39 q 859 136 810 104 q 935 190 908 168 q 967 211 963 211 q 985 206 985 211 q 979 192 985 199 q 925 141 967 172 q 819 75 883 110 q 674 10 754 40 q 503 -40 593 -21 q 321 -60 414 -60 m 974 822 q 949 839 968 824 q 908 874 931 854 q 867 911 885 894 q 847 932 850 928 q 839 957 838 943 q 861 986 846 986 q 875 981 867 986 q 889 969 883 976 q 940 906 917 938 q 985 842 963 875 q 988 831 989 835 q 974 822 988 822 m 878 826 q 851 839 872 826 q 806 869 831 851 q 763 900 782 886 q 739 918 743 914 q 732 926 736 921 q 728 940 728 932 q 735 965 728 956 q 749 974 742 974 q 775 960 761 974 q 831 907 804 933 q 888 847 858 881 q 892 835 892 839 q 878 826 892 826 z "},"Ë":{"ha":1010,"x_min":14,"x_max":1156,"o":"m 321 -60 q 221 -51 274 -60 q 122 -22 168 -43 q 48 37 76 -1 q 19 135 19 75 q 40 233 19 189 q 90 322 60 278 q 67 317 81 321 q 42 314 54 314 q 22 319 31 314 q 14 343 14 325 q 40 388 14 375 q 98 404 65 401 q 153 410 131 407 q 318 555 225 489 q 518 669 411 621 q 736 745 625 718 q 954 772 847 772 q 1018 769 983 772 q 1084 753 1053 765 q 1135 718 1115 742 q 1156 656 1156 694 q 1130 574 1156 617 q 1064 496 1104 531 q 978 444 1024 461 q 944 440 965 440 q 920 443 931 440 q 910 453 910 446 q 922 471 910 463 q 969 502 938 483 q 1035 544 1001 521 q 1093 597 1069 568 q 1117 657 1117 625 q 1098 692 1117 679 q 1052 710 1079 704 q 998 717 1025 715 q 956 718 971 718 q 776 694 868 718 q 594 628 683 669 q 426 532 506 586 q 282 418 346 478 q 349 422 318 421 q 410 422 379 422 l 514 422 q 644 419 581 422 q 752 410 707 415 q 808 401 797 406 q 822 389 822 397 q 775 375 822 374 q 704 378 747 378 q 618 378 661 378 l 519 378 q 417 377 458 378 q 334 374 375 376 q 232 364 293 371 q 150 243 176 299 q 124 143 124 188 q 186 34 124 72 q 358 -4 249 -4 q 570 17 475 -4 q 738 72 665 39 q 859 136 810 104 q 935 190 908 168 q 967 211 963 211 q 985 206 985 211 q 979 192 985 199 q 925 141 967 172 q 819 75 883 110 q 674 10 754 40 q 503 -40 593 -21 q 321 -60 414 -60 m 1004 826 q 975 836 986 826 q 964 860 964 846 q 978 894 964 879 q 1011 910 993 910 q 1038 899 1028 910 q 1049 872 1049 888 q 1035 840 1049 854 q 1004 826 1022 826 m 864 826 q 835 836 846 826 q 824 860 824 846 q 838 894 824 879 q 871 910 853 910 q 898 899 888 910 q 908 872 908 888 q 895 840 908 854 q 864 826 882 826 z "},"Ė":{"ha":1010,"x_min":14,"x_max":1156,"o":"m 321 -60 q 221 -51 274 -60 q 122 -22 168 -43 q 48 37 76 -1 q 19 135 19 75 q 40 233 19 189 q 90 322 60 278 q 67 317 81 321 q 42 314 54 314 q 22 319 31 314 q 14 343 14 325 q 40 388 14 375 q 98 404 65 401 q 153 410 131 407 q 318 555 225 489 q 518 669 411 621 q 736 745 625 718 q 954 772 847 772 q 1018 769 983 772 q 1084 753 1053 765 q 1135 718 1115 742 q 1156 656 1156 694 q 1130 574 1156 617 q 1064 496 1104 531 q 978 444 1024 461 q 944 440 965 440 q 920 443 931 440 q 910 453 910 446 q 922 471 910 463 q 969 502 938 483 q 1035 544 1001 521 q 1093 597 1069 568 q 1117 657 1117 625 q 1098 692 1117 679 q 1052 710 1079 704 q 998 717 1025 715 q 956 718 971 718 q 776 694 868 718 q 594 628 683 669 q 426 532 506 586 q 282 418 346 478 q 349 422 318 421 q 410 422 379 422 l 514 422 q 644 419 581 422 q 752 410 707 415 q 808 401 797 406 q 822 389 822 397 q 775 375 822 374 q 704 378 747 378 q 618 378 661 378 l 519 378 q 417 377 458 378 q 334 374 375 376 q 232 364 293 371 q 150 243 176 299 q 124 143 124 188 q 186 34 124 72 q 358 -4 249 -4 q 570 17 475 -4 q 738 72 665 39 q 859 136 810 104 q 935 190 908 168 q 967 211 963 211 q 985 206 985 211 q 979 192 985 199 q 925 141 967 172 q 819 75 883 110 q 674 10 754 40 q 503 -40 593 -21 q 321 -60 414 -60 m 947 826 q 918 836 929 826 q 907 860 907 846 q 922 894 907 879 q 954 910 936 910 q 981 899 971 910 q 992 872 992 888 q 978 840 992 854 q 947 826 965 826 z "},"Ẹ":{"ha":1010,"x_min":14,"x_max":1156,"o":"m 321 -60 q 221 -51 274 -60 q 122 -22 168 -43 q 48 37 76 -1 q 19 135 19 75 q 40 233 19 189 q 90 322 60 278 q 67 317 81 321 q 42 314 54 314 q 22 319 31 314 q 14 343 14 325 q 40 388 14 375 q 98 404 65 401 q 153 410 131 407 q 318 555 225 489 q 518 669 411 621 q 736 745 625 718 q 954 772 847 772 q 1018 769 983 772 q 1084 753 1053 765 q 1135 718 1115 742 q 1156 656 1156 694 q 1130 574 1156 617 q 1064 496 1104 531 q 978 444 1024 461 q 944 440 965 440 q 920 443 931 440 q 910 453 910 446 q 922 471 910 463 q 969 502 938 483 q 1035 544 1001 521 q 1093 597 1069 568 q 1117 657 1117 625 q 1098 692 1117 679 q 1052 710 1079 704 q 998 717 1025 715 q 956 718 971 718 q 776 694 868 718 q 594 628 683 669 q 426 532 506 586 q 282 418 346 478 q 349 422 318 421 q 410 422 379 422 l 514 422 q 644 419 581 422 q 752 410 707 415 q 808 401 797 406 q 822 389 822 397 q 775 375 822 374 q 704 378 747 378 q 618 378 661 378 l 519 378 q 417 377 458 378 q 334 374 375 376 q 232 364 293 371 q 150 243 176 299 q 124 143 124 188 q 186 34 124 72 q 358 -4 249 -4 q 570 17 475 -4 q 738 72 665 39 q 859 136 810 104 q 935 190 908 168 q 967 211 963 211 q 985 206 985 211 q 979 192 985 199 q 925 141 967 172 q 819 75 883 110 q 674 10 754 40 q 503 -40 593 -21 q 321 -60 414 -60 m 308 -211 q 279 -201 290 -211 q 268 -178 268 -192 q 283 -143 268 -158 q 315 -128 297 -128 q 342 -139 332 -128 q 353 -165 353 -150 q 340 -197 353 -183 q 308 -211 326 -211 z "},"È":{"ha":1010,"x_min":14,"x_max":1156,"o":"m 321 -60 q 221 -51 274 -60 q 122 -22 168 -43 q 48 37 76 -1 q 19 135 19 75 q 40 233 19 189 q 90 322 60 278 q 67 317 81 321 q 42 314 54 314 q 22 319 31 314 q 14 343 14 325 q 40 388 14 375 q 98 404 65 401 q 153 410 131 407 q 318 555 225 489 q 518 669 411 621 q 736 745 625 718 q 954 772 847 772 q 1018 769 983 772 q 1084 753 1053 765 q 1135 718 1115 742 q 1156 656 1156 694 q 1130 574 1156 617 q 1064 496 1104 531 q 978 444 1024 461 q 944 440 965 440 q 920 443 931 440 q 910 453 910 446 q 922 471 910 463 q 969 502 938 483 q 1035 544 1001 521 q 1093 597 1069 568 q 1117 657 1117 625 q 1098 692 1117 679 q 1052 710 1079 704 q 998 717 1025 715 q 956 718 971 718 q 776 694 868 718 q 594 628 683 669 q 426 532 506 586 q 282 418 346 478 q 349 422 318 421 q 410 422 379 422 l 514 422 q 644 419 581 422 q 752 410 707 415 q 808 401 797 406 q 822 389 822 397 q 775 375 822 374 q 704 378 747 378 q 618 378 661 378 l 519 378 q 417 377 458 378 q 334 374 375 376 q 232 364 293 371 q 150 243 176 299 q 124 143 124 188 q 186 34 124 72 q 358 -4 249 -4 q 570 17 475 -4 q 738 72 665 39 q 859 136 810 104 q 935 190 908 168 q 967 211 963 211 q 985 206 985 211 q 979 192 985 199 q 925 141 967 172 q 819 75 883 110 q 674 10 754 40 q 503 -40 593 -21 q 321 -60 414 -60 m 985 826 q 952 836 979 825 q 892 863 925 847 q 833 890 858 878 q 803 907 807 903 q 794 915 799 910 q 788 929 789 921 l 788 935 q 792 954 788 946 q 801 964 796 963 q 814 963 807 964 q 831 954 821 961 q 915 901 875 928 q 989 847 954 875 q 996 838 993 844 q 985 826 996 826 z "},"Ẻ":{"ha":1010,"x_min":14,"x_max":1156,"o":"m 321 -60 q 221 -51 274 -60 q 122 -22 168 -43 q 48 37 76 -1 q 19 135 19 75 q 40 233 19 189 q 90 322 60 278 q 67 317 81 321 q 42 314 54 314 q 22 319 31 314 q 14 343 14 325 q 40 388 14 375 q 98 404 65 401 q 153 410 131 407 q 318 555 225 489 q 518 669 411 621 q 736 745 625 718 q 954 772 847 772 q 1018 769 983 772 q 1084 753 1053 765 q 1135 718 1115 742 q 1156 656 1156 694 q 1130 574 1156 617 q 1064 496 1104 531 q 978 444 1024 461 q 944 440 965 440 q 920 443 931 440 q 910 453 910 446 q 922 471 910 463 q 969 502 938 483 q 1035 544 1001 521 q 1093 597 1069 568 q 1117 657 1117 625 q 1098 692 1117 679 q 1052 710 1079 704 q 998 717 1025 715 q 956 718 971 718 q 776 694 868 718 q 594 628 683 669 q 426 532 506 586 q 282 418 346 478 q 349 422 318 421 q 410 422 379 422 l 514 422 q 644 419 581 422 q 752 410 707 415 q 808 401 797 406 q 822 389 822 397 q 775 375 822 374 q 704 378 747 378 q 618 378 661 378 l 519 378 q 417 377 458 378 q 334 374 375 376 q 232 364 293 371 q 150 243 176 299 q 124 143 124 188 q 186 34 124 72 q 358 -4 249 -4 q 570 17 475 -4 q 738 72 665 39 q 859 136 810 104 q 935 190 908 168 q 967 211 963 211 q 985 206 985 211 q 979 192 985 199 q 925 141 967 172 q 819 75 883 110 q 674 10 754 40 q 503 -40 593 -21 q 321 -60 414 -60 m 954 826 q 944 832 946 826 q 946 843 942 838 q 958 860 949 850 q 971 874 968 869 q 994 900 986 893 q 1003 925 1003 907 q 969 950 1003 950 q 951 949 960 950 q 936 944 943 947 l 926 943 q 918 954 918 943 q 946 977 919 965 q 999 989 972 989 q 1044 976 1024 989 q 1064 938 1064 964 q 1042 886 1064 903 q 1006 860 1021 869 q 990 848 999 854 q 974 836 981 842 q 954 826 967 826 z "},"Ȇ":{"ha":1010,"x_min":14,"x_max":1156,"o":"m 1000 954 q 1071 925 1053 954 q 1089 868 1089 896 q 1082 835 1089 846 q 1067 825 1075 825 q 1057 835 1058 825 q 1056 858 1056 844 q 1038 890 1056 882 q 994 897 1021 897 q 926 884 958 897 q 871 835 894 871 q 858 829 865 829 q 850 838 850 829 q 854 854 850 844 q 910 925 869 896 q 1000 954 950 954 m 321 -60 q 221 -51 274 -60 q 122 -22 168 -43 q 48 37 76 -1 q 19 135 19 75 q 40 233 19 189 q 90 322 60 278 q 67 317 81 321 q 42 314 54 314 q 22 319 31 314 q 14 343 14 325 q 40 388 14 375 q 98 404 65 401 q 153 410 131 407 q 318 555 225 489 q 518 669 411 621 q 736 745 625 718 q 954 772 847 772 q 1018 769 983 772 q 1084 753 1053 765 q 1135 718 1115 742 q 1156 656 1156 694 q 1130 574 1156 617 q 1064 496 1104 531 q 978 444 1024 461 q 944 440 965 440 q 920 443 931 440 q 910 453 910 446 q 922 471 910 463 q 969 502 938 483 q 1035 544 1001 521 q 1093 597 1069 568 q 1117 657 1117 625 q 1098 692 1117 679 q 1052 710 1079 704 q 998 717 1025 715 q 956 718 971 718 q 776 694 868 718 q 594 628 683 669 q 426 532 506 586 q 282 418 346 478 q 349 422 318 421 q 410 422 379 422 l 514 422 q 644 419 581 422 q 752 410 707 415 q 808 401 797 406 q 822 389 822 397 q 775 375 822 374 q 704 378 747 378 q 618 378 661 378 l 519 378 q 417 377 458 378 q 334 374 375 376 q 232 364 293 371 q 150 243 176 299 q 124 143 124 188 q 186 34 124 72 q 358 -4 249 -4 q 570 17 475 -4 q 738 72 665 39 q 859 136 810 104 q 935 190 908 168 q 967 211 963 211 q 985 206 985 211 q 979 192 985 199 q 925 141 967 172 q 819 75 883 110 q 674 10 754 40 q 503 -40 593 -21 q 321 -60 414 -60 z "},"Ē":{"ha":1010,"x_min":14,"x_max":1156,"o":"m 321 -60 q 221 -51 274 -60 q 122 -22 168 -43 q 48 37 76 -1 q 19 135 19 75 q 40 233 19 189 q 90 322 60 278 q 67 317 81 321 q 42 314 54 314 q 22 319 31 314 q 14 343 14 325 q 40 388 14 375 q 98 404 65 401 q 153 410 131 407 q 318 555 225 489 q 518 669 411 621 q 736 745 625 718 q 954 772 847 772 q 1018 769 983 772 q 1084 753 1053 765 q 1135 718 1115 742 q 1156 656 1156 694 q 1130 574 1156 617 q 1064 496 1104 531 q 978 444 1024 461 q 944 440 965 440 q 920 443 931 440 q 910 453 910 446 q 922 471 910 463 q 969 502 938 483 q 1035 544 1001 521 q 1093 597 1069 568 q 1117 657 1117 625 q 1098 692 1117 679 q 1052 710 1079 704 q 998 717 1025 715 q 956 718 971 718 q 776 694 868 718 q 594 628 683 669 q 426 532 506 586 q 282 418 346 478 q 349 422 318 421 q 410 422 379 422 l 514 422 q 644 419 581 422 q 752 410 707 415 q 808 401 797 406 q 822 389 822 397 q 775 375 822 374 q 704 378 747 378 q 618 378 661 378 l 519 378 q 417 377 458 378 q 334 374 375 376 q 232 364 293 371 q 150 243 176 299 q 124 143 124 188 q 186 34 124 72 q 358 -4 249 -4 q 570 17 475 -4 q 738 72 665 39 q 859 136 810 104 q 935 190 908 168 q 967 211 963 211 q 985 206 985 211 q 979 192 985 199 q 925 141 967 172 q 819 75 883 110 q 674 10 754 40 q 503 -40 593 -21 q 321 -60 414 -60 m 921 842 q 879 842 903 842 q 844 846 856 843 q 833 858 833 850 q 840 875 833 865 q 856 885 846 882 q 876 889 867 888 q 890 890 883 890 q 906 890 897 890 q 985 886 942 890 q 1053 876 1028 882 q 1077 871 1067 875 q 1088 860 1088 867 q 1082 849 1088 851 q 1065 846 1076 847 q 1032 844 1058 846 q 978 842 1006 843 q 938 842 950 842 l 921 842 z "},"Ŋ":{"ha":793,"x_min":-129,"x_max":779,"o":"m 17 -487 q -87 -457 -44 -487 q -129 -376 -129 -426 q -116 -324 -129 -350 q -84 -275 -103 -297 q -50 -240 -65 -253 q -12 -221 -24 -221 q -1 -232 -1 -221 q -22 -279 -1 -247 q -49 -332 -40 -306 q -58 -382 -58 -358 q -40 -437 -58 -415 q 17 -458 -21 -458 q 166 -406 96 -458 q 310 -261 236 -354 q 370 -172 335 -229 q 444 -40 406 -114 q 524 115 483 33 q 600 281 564 197 q 671 461 646 385 q 696 575 696 538 q 679 604 696 604 q 658 601 672 604 q 632 590 643 597 q 509 497 572 556 q 360 340 446 438 q 236 192 294 267 q 133 49 178 117 q 96 -2 115 22 q 57 -50 76 -26 l 50 -53 q 6 -14 6 -53 q 13 8 6 1 q 101 128 54 53 q 201 307 149 203 q 313 629 313 528 q 282 750 313 711 q 210 789 251 789 q 188 794 196 789 q 179 804 179 799 q 211 821 179 821 q 345 769 293 821 q 397 632 397 717 q 318 374 397 524 l 342 399 q 397 459 372 431 q 444 510 422 488 q 663 642 574 642 q 753 615 728 642 q 779 542 779 588 q 750 409 779 486 q 685 249 721 332 q 522 -85 601 56 q 372 -304 442 -226 q 281 -394 329 -351 q 170 -462 233 -436 q 17 -487 107 -487 z "},"Ę":{"ha":1010,"x_min":14,"x_max":1156,"o":"m 321 -60 q 221 -51 274 -60 q 122 -22 168 -43 q 48 37 76 -1 q 19 135 19 75 q 40 233 19 189 q 90 322 60 278 q 67 317 81 321 q 42 314 54 314 q 22 319 31 314 q 14 343 14 325 q 40 388 14 375 q 98 404 65 401 q 153 410 131 407 q 318 555 225 489 q 518 669 411 621 q 736 745 625 718 q 954 772 847 772 q 1018 769 983 772 q 1084 753 1053 765 q 1135 718 1115 742 q 1156 656 1156 694 q 1130 574 1156 617 q 1064 496 1104 531 q 978 444 1024 461 q 944 440 965 440 q 920 443 931 440 q 910 453 910 446 q 922 471 910 463 q 969 502 938 483 q 1035 544 1001 521 q 1093 597 1069 568 q 1117 657 1117 625 q 1098 692 1117 679 q 1052 710 1079 704 q 998 717 1025 715 q 956 718 971 718 q 776 694 868 718 q 594 628 683 669 q 426 532 506 586 q 282 418 346 478 q 349 422 318 421 q 410 422 379 422 l 514 422 q 644 419 581 422 q 752 410 707 415 q 808 401 797 406 q 822 389 822 397 q 775 375 822 374 q 704 378 747 378 q 618 378 661 378 l 519 378 q 417 377 458 378 q 334 374 375 376 q 232 364 293 371 q 150 243 176 299 q 124 143 124 188 q 186 34 124 72 q 358 -4 249 -4 q 570 17 475 -4 q 738 72 665 39 q 859 136 810 104 q 935 190 908 168 q 967 211 963 211 q 985 206 985 211 q 979 192 985 199 q 925 141 967 172 q 819 75 883 110 q 674 10 754 40 q 503 -40 593 -21 q 321 -60 414 -60 m 675 -176 q 633 -185 654 -185 q 587 -169 606 -185 q 568 -122 568 -153 q 581 -76 568 -101 q 611 -28 593 -51 q 653 16 635 0 q 685 42 671 32 q 696 44 688 44 q 710 42 704 44 q 715 32 717 39 l 714 31 q 693 6 707 24 q 660 -37 679 -11 q 633 -106 633 -75 q 638 -124 633 -117 q 669 -135 649 -135 q 726 -106 696 -135 q 733 -103 732 -103 q 743 -110 740 -103 q 742 -122 746 -117 q 711 -153 729 -136 q 675 -176 693 -169 z "},"Ð":{"ha":1389,"x_min":19,"x_max":1390,"o":"m 414 -82 q 335 -77 383 -82 q 232 -61 286 -72 q 129 -31 178 -50 q 50 19 81 -11 q 19 90 19 49 q 53 188 19 149 q 138 253 86 228 q 245 291 189 278 q 347 307 301 304 q 385 373 361 332 q 437 462 408 414 q 495 556 465 510 q 551 638 525 601 q 596 693 578 675 q 640 719 617 713 q 690 726 663 726 q 722 722 701 726 q 743 704 742 717 q 727 678 740 692 q 706 656 714 665 q 549 471 614 554 q 436 308 485 388 q 594 295 511 307 q 760 260 678 283 q 913 201 842 238 q 1032 113 983 164 q 1117 172 1071 136 q 1206 251 1164 207 q 1276 347 1249 296 q 1304 453 1304 399 q 1260 579 1304 526 q 1143 667 1215 632 q 989 721 1071 701 q 830 749 907 740 q 699 757 753 757 q 490 737 592 757 q 286 681 388 717 q 249 666 272 676 q 204 647 226 656 q 169 639 182 639 q 139 668 139 639 q 172 717 139 696 q 260 753 206 738 q 379 777 315 768 q 504 792 443 786 q 613 799 565 797 q 682 801 661 801 q 810 795 738 801 q 963 774 883 789 q 1119 734 1043 760 q 1256 669 1194 708 q 1353 575 1317 631 q 1390 446 1390 519 q 1358 324 1390 382 q 1276 215 1326 265 q 1172 126 1226 165 q 1072 60 1118 86 q 1080 47 1076 54 q 1083 33 1083 40 q 1065 21 1083 21 q 1051 28 1060 21 q 1039 40 1043 36 q 734 -57 889 -32 q 414 -82 579 -82 m 426 -49 q 716 -11 572 -49 q 990 92 860 26 q 842 185 931 146 q 658 247 754 225 q 476 268 561 268 q 451 268 464 268 q 428 267 439 268 l 413 265 q 363 179 389 225 q 320 85 338 133 q 303 -11 303 36 q 283 -37 303 -33 q 355 -47 319 -44 q 426 -49 390 -49 m 250 -29 q 240 -12 243 -22 q 238 8 238 -1 q 247 65 238 31 q 272 137 257 99 q 301 208 286 175 q 325 263 315 242 q 231 235 281 256 q 148 179 182 215 q 114 88 114 143 q 138 33 114 57 q 194 -7 163 8 q 250 -29 226 -22 m 421 354 q 370 355 399 354 q 328 358 342 356 q 315 374 315 363 q 322 388 315 381 q 341 397 329 394 q 365 401 353 400 q 406 403 383 403 q 450 404 428 404 q 515 403 483 404 q 569 397 547 401 q 607 379 607 393 q 575 358 607 361 q 529 356 563 357 q 442 354 496 354 l 421 354 z "},"Ẽ":{"ha":1010,"x_min":14,"x_max":1156,"o":"m 321 -60 q 221 -51 274 -60 q 122 -22 168 -43 q 48 37 76 -1 q 19 135 19 75 q 40 233 19 189 q 90 322 60 278 q 67 317 81 321 q 42 314 54 314 q 22 319 31 314 q 14 343 14 325 q 40 388 14 375 q 98 404 65 401 q 153 410 131 407 q 318 555 225 489 q 518 669 411 621 q 736 745 625 718 q 954 772 847 772 q 1018 769 983 772 q 1084 753 1053 765 q 1135 718 1115 742 q 1156 656 1156 694 q 1130 574 1156 617 q 1064 496 1104 531 q 978 444 1024 461 q 944 440 965 440 q 920 443 931 440 q 910 453 910 446 q 922 471 910 463 q 969 502 938 483 q 1035 544 1001 521 q 1093 597 1069 568 q 1117 657 1117 625 q 1098 692 1117 679 q 1052 710 1079 704 q 998 717 1025 715 q 956 718 971 718 q 776 694 868 718 q 594 628 683 669 q 426 532 506 586 q 282 418 346 478 q 349 422 318 421 q 410 422 379 422 l 514 422 q 644 419 581 422 q 752 410 707 415 q 808 401 797 406 q 822 389 822 397 q 775 375 822 374 q 704 378 747 378 q 618 378 661 378 l 519 378 q 417 377 458 378 q 334 374 375 376 q 232 364 293 371 q 150 243 176 299 q 124 143 124 188 q 186 34 124 72 q 358 -4 249 -4 q 570 17 475 -4 q 738 72 665 39 q 859 136 810 104 q 935 190 908 168 q 967 211 963 211 q 985 206 985 211 q 979 192 985 199 q 925 141 967 172 q 819 75 883 110 q 674 10 754 40 q 503 -40 593 -21 q 321 -60 414 -60 m 849 836 q 838 846 838 836 q 858 895 838 878 q 913 913 879 913 q 969 903 940 913 q 1022 890 1003 890 q 1063 917 1049 890 l 1067 918 q 1079 910 1075 918 q 1059 859 1081 876 q 1003 842 1038 842 q 947 851 975 842 q 893 864 914 864 q 869 857 879 864 q 853 838 860 850 l 849 836 z "},"F":{"ha":1144,"x_min":4,"x_max":1494,"o":"m 701 -68 q 634 -43 656 -68 q 613 25 613 -18 q 627 115 613 67 q 663 211 642 164 q 701 294 683 258 l 617 294 q 472 299 549 294 q 317 315 394 303 q 172 351 240 328 q 50 411 103 374 q 19 441 33 424 q 4 481 4 458 q 55 590 4 547 q 192 657 106 633 q 386 690 278 681 q 611 700 494 700 q 776 694 693 700 q 940 682 858 689 q 985 730 965 713 q 1030 755 1004 747 q 1096 763 1056 763 q 1117 760 1107 763 q 1129 744 1128 757 q 1096 708 1111 726 q 1064 669 1081 689 q 1181 663 1126 665 q 1299 661 1236 661 q 1372 663 1329 661 q 1444 676 1414 665 q 1469 682 1458 682 q 1485 677 1478 682 q 1493 660 1492 672 q 1469 640 1494 647 q 1406 629 1443 632 q 1334 626 1368 626 q 1285 625 1300 625 q 1160 626 1219 625 q 1035 633 1101 628 q 987 585 1018 619 q 920 506 956 550 q 853 416 885 461 q 800 336 821 371 q 981 350 890 342 q 1163 369 1071 358 l 1164 369 q 1184 364 1172 369 q 1188 353 1196 358 q 1147 338 1174 344 q 1094 328 1121 332 q 1054 322 1068 325 q 924 307 994 314 q 781 297 853 300 q 737 211 761 261 q 694 110 713 161 q 676 18 676 60 q 688 -20 676 -8 q 715 -32 699 -32 q 753 -22 733 -32 q 789 0 774 -12 q 797 3 792 3 q 803 -1 801 3 q 801 -12 806 -6 q 774 -40 793 -28 q 733 -60 754 -53 q 701 -68 713 -68 m 690 332 l 718 333 q 778 437 743 381 q 851 548 814 493 q 919 646 889 603 q 660 654 790 654 q 581 652 632 654 q 466 643 529 650 q 338 624 403 636 q 220 592 274 613 q 133 543 167 572 q 100 474 100 514 q 136 419 100 442 q 232 380 172 396 q 360 354 292 364 q 496 340 429 344 q 615 333 563 335 q 690 332 667 332 z "},"G":{"ha":1072,"x_min":-193,"x_max":1232,"o":"m 71 -371 q -22 -364 25 -371 q -107 -338 -68 -357 q -169 -284 -146 -319 q -193 -193 -193 -249 q -154 -70 -193 -126 q -52 32 -115 -14 q 84 114 11 78 q 227 177 157 150 q 349 221 297 204 q 333 265 333 240 q 368 388 333 331 q 461 496 403 446 q 592 588 519 546 q 740 663 664 631 q 884 719 815 696 q 1004 756 953 743 q 1039 782 1011 782 q 1094 751 1075 782 q 1149 742 1117 750 q 1206 719 1181 735 q 1232 674 1232 703 q 1219 639 1232 657 q 1189 608 1207 621 q 1154 594 1171 594 q 1143 606 1143 594 q 1158 624 1143 617 q 1172 656 1172 631 q 1172 664 1172 660 q 1171 672 1172 668 q 1143 708 1167 693 q 1104 722 1119 722 l 1097 722 q 1066 551 1088 643 q 1022 382 1044 458 l 1038 382 q 1081 380 1056 382 q 1126 372 1107 378 q 1146 353 1146 367 q 1128 339 1146 339 q 1099 342 1117 339 q 1061 344 1082 344 q 1036 344 1049 344 q 1011 342 1024 343 q 870 56 961 186 q 656 -169 779 -74 q 383 -318 532 -265 q 71 -371 235 -371 m 457 250 q 594 292 533 274 q 732 328 654 310 q 844 420 789 372 q 943 539 899 468 q 1008 721 988 610 q 807 651 908 697 q 619 538 706 604 q 472 383 532 471 q 443 335 460 365 q 426 282 426 306 q 457 250 426 254 m 846 353 l 922 367 l 944 461 q 897 405 922 432 q 846 353 872 378 m 106 -331 q 473 -245 313 -331 q 745 -10 633 -160 q 915 329 857 139 l 776 297 q 678 234 735 265 q 563 183 622 203 q 447 163 503 163 q 404 168 425 163 q 365 186 383 174 q 261 149 322 172 q 137 92 200 125 q 18 19 74 60 q -72 -71 -37 -22 q -106 -175 -106 -119 q -72 -267 -106 -233 q 12 -316 -37 -301 q 106 -331 61 -331 z "},"Ğ":{"ha":1072,"x_min":-193,"x_max":1232,"o":"m 71 -371 q -22 -364 25 -371 q -107 -338 -68 -357 q -169 -284 -146 -319 q -193 -193 -193 -249 q -154 -70 -193 -126 q -52 32 -115 -14 q 84 114 11 78 q 227 177 157 150 q 349 221 297 204 q 333 265 333 240 q 368 388 333 331 q 461 496 403 446 q 592 588 519 546 q 740 663 664 631 q 884 719 815 696 q 1004 756 953 743 q 1039 782 1011 782 q 1094 751 1075 782 q 1149 742 1117 750 q 1206 719 1181 735 q 1232 674 1232 703 q 1219 639 1232 657 q 1189 608 1207 621 q 1154 594 1171 594 q 1143 606 1143 594 q 1158 624 1143 617 q 1172 656 1172 631 q 1172 664 1172 660 q 1171 672 1172 668 q 1143 708 1167 693 q 1104 722 1119 722 l 1097 722 q 1066 551 1088 643 q 1022 382 1044 458 l 1038 382 q 1081 380 1056 382 q 1126 372 1107 378 q 1146 353 1146 367 q 1128 339 1146 339 q 1099 342 1117 339 q 1061 344 1082 344 q 1036 344 1049 344 q 1011 342 1024 343 q 870 56 961 186 q 656 -169 779 -74 q 383 -318 532 -265 q 71 -371 235 -371 m 457 250 q 594 292 533 274 q 732 328 654 310 q 844 420 789 372 q 943 539 899 468 q 1008 721 988 610 q 807 651 908 697 q 619 538 706 604 q 472 383 532 471 q 443 335 460 365 q 426 282 426 306 q 457 250 426 254 m 846 353 l 922 367 l 944 461 q 897 405 922 432 q 846 353 872 378 m 106 -331 q 473 -245 313 -331 q 745 -10 633 -160 q 915 329 857 139 l 776 297 q 678 234 735 265 q 563 183 622 203 q 447 163 503 163 q 404 168 425 163 q 365 186 383 174 q 261 149 322 172 q 137 92 200 125 q 18 19 74 60 q -72 -71 -37 -22 q -106 -175 -106 -119 q -72 -267 -106 -233 q 12 -316 -37 -301 q 106 -331 61 -331 m 894 825 q 825 856 849 825 q 801 919 801 886 q 810 948 801 936 q 828 960 818 960 q 842 943 842 960 q 859 899 842 917 q 904 882 876 882 q 972 899 940 882 q 1028 950 1004 915 q 1039 956 1033 956 q 1046 949 1046 956 q 1045 944 1046 947 q 1044 938 1044 940 q 985 856 1024 886 q 894 825 946 825 z "},"Ǧ":{"ha":1072,"x_min":-193,"x_max":1232,"o":"m 1081 975 q 1089 963 1094 975 q 1082 953 1086 957 q 1019 899 1047 922 q 946 840 990 876 q 917 826 929 826 q 896 840 906 826 q 857 897 874 869 q 825 954 840 924 q 824 960 825 957 q 825 964 824 963 q 839 975 825 975 q 866 958 846 975 q 907 922 886 942 q 936 893 928 903 q 969 913 947 900 q 1014 940 990 926 q 1056 965 1038 954 q 1081 975 1075 975 m 71 -371 q -22 -364 25 -371 q -107 -338 -68 -357 q -169 -284 -146 -319 q -193 -193 -193 -249 q -154 -70 -193 -126 q -52 32 -115 -14 q 84 114 11 78 q 227 177 157 150 q 349 221 297 204 q 333 265 333 240 q 368 388 333 331 q 461 496 403 446 q 592 588 519 546 q 740 663 664 631 q 884 719 815 696 q 1004 756 953 743 q 1039 782 1011 782 q 1094 751 1075 782 q 1149 742 1117 750 q 1206 719 1181 735 q 1232 674 1232 703 q 1219 639 1232 657 q 1189 608 1207 621 q 1154 594 1171 594 q 1143 606 1143 594 q 1158 624 1143 617 q 1172 656 1172 631 q 1172 664 1172 660 q 1171 672 1172 668 q 1143 708 1167 693 q 1104 722 1119 722 l 1097 722 q 1066 551 1088 643 q 1022 382 1044 458 l 1038 382 q 1081 380 1056 382 q 1126 372 1107 378 q 1146 353 1146 367 q 1128 339 1146 339 q 1099 342 1117 339 q 1061 344 1082 344 q 1036 344 1049 344 q 1011 342 1024 343 q 870 56 961 186 q 656 -169 779 -74 q 383 -318 532 -265 q 71 -371 235 -371 m 457 250 q 594 292 533 274 q 732 328 654 310 q 844 420 789 372 q 943 539 899 468 q 1008 721 988 610 q 807 651 908 697 q 619 538 706 604 q 472 383 532 471 q 443 335 460 365 q 426 282 426 306 q 457 250 426 254 m 846 353 l 922 367 l 944 461 q 897 405 922 432 q 846 353 872 378 m 106 -331 q 473 -245 313 -331 q 745 -10 633 -160 q 915 329 857 139 l 776 297 q 678 234 735 265 q 563 183 622 203 q 447 163 503 163 q 404 168 425 163 q 365 186 383 174 q 261 149 322 172 q 137 92 200 125 q 18 19 74 60 q -72 -71 -37 -22 q -106 -175 -106 -119 q -72 -267 -106 -233 q 12 -316 -37 -301 q 106 -331 61 -331 z "},"Ĝ":{"ha":1072,"x_min":-193,"x_max":1232,"o":"m 71 -371 q -22 -364 25 -371 q -107 -338 -68 -357 q -169 -284 -146 -319 q -193 -193 -193 -249 q -154 -70 -193 -126 q -52 32 -115 -14 q 84 114 11 78 q 227 177 157 150 q 349 221 297 204 q 333 265 333 240 q 368 388 333 331 q 461 496 403 446 q 592 588 519 546 q 740 663 664 631 q 884 719 815 696 q 1004 756 953 743 q 1039 782 1011 782 q 1094 751 1075 782 q 1149 742 1117 750 q 1206 719 1181 735 q 1232 674 1232 703 q 1219 639 1232 657 q 1189 608 1207 621 q 1154 594 1171 594 q 1143 606 1143 594 q 1158 624 1143 617 q 1172 656 1172 631 q 1172 664 1172 660 q 1171 672 1172 668 q 1143 708 1167 693 q 1104 722 1119 722 l 1097 722 q 1066 551 1088 643 q 1022 382 1044 458 l 1038 382 q 1081 380 1056 382 q 1126 372 1107 378 q 1146 353 1146 367 q 1128 339 1146 339 q 1099 342 1117 339 q 1061 344 1082 344 q 1036 344 1049 344 q 1011 342 1024 343 q 870 56 961 186 q 656 -169 779 -74 q 383 -318 532 -265 q 71 -371 235 -371 m 457 250 q 594 292 533 274 q 732 328 654 310 q 844 420 789 372 q 943 539 899 468 q 1008 721 988 610 q 807 651 908 697 q 619 538 706 604 q 472 383 532 471 q 443 335 460 365 q 426 282 426 306 q 457 250 426 254 m 846 353 l 922 367 l 944 461 q 897 405 922 432 q 846 353 872 378 m 106 -331 q 473 -245 313 -331 q 745 -10 633 -160 q 915 329 857 139 l 776 297 q 678 234 735 265 q 563 183 622 203 q 447 163 503 163 q 404 168 425 163 q 365 186 383 174 q 261 149 322 172 q 137 92 200 125 q 18 19 74 60 q -72 -71 -37 -22 q -106 -175 -106 -119 q -72 -267 -106 -233 q 12 -316 -37 -301 q 106 -331 61 -331 m 788 826 q 779 839 776 826 q 788 849 782 844 q 852 903 822 881 q 931 961 882 926 q 960 975 947 975 q 981 961 971 975 q 1020 905 1003 932 q 1051 847 1038 878 q 1052 842 1051 844 q 1051 838 1053 840 q 1038 826 1051 826 q 1010 843 1031 826 q 969 880 990 860 q 940 908 949 900 q 906 889 929 903 q 858 861 883 875 q 813 837 832 847 q 788 826 793 826 z "},"Ģ":{"ha":1072,"x_min":-193,"x_max":1232,"o":"m 71 -371 q -22 -364 25 -371 q -107 -338 -68 -357 q -169 -284 -146 -319 q -193 -193 -193 -249 q -154 -70 -193 -126 q -52 32 -115 -14 q 84 114 11 78 q 227 177 157 150 q 349 221 297 204 q 333 265 333 240 q 368 388 333 331 q 461 496 403 446 q 592 588 519 546 q 740 663 664 631 q 884 719 815 696 q 1004 756 953 743 q 1039 782 1011 782 q 1094 751 1075 782 q 1149 742 1117 750 q 1206 719 1181 735 q 1232 674 1232 703 q 1219 639 1232 657 q 1189 608 1207 621 q 1154 594 1171 594 q 1143 606 1143 594 q 1158 624 1143 617 q 1172 656 1172 631 q 1172 664 1172 660 q 1171 672 1172 668 q 1143 708 1167 693 q 1104 722 1119 722 l 1097 722 q 1066 551 1088 643 q 1022 382 1044 458 l 1038 382 q 1081 380 1056 382 q 1126 372 1107 378 q 1146 353 1146 367 q 1128 339 1146 339 q 1099 342 1117 339 q 1061 344 1082 344 q 1036 344 1049 344 q 1011 342 1024 343 q 870 56 961 186 q 656 -169 779 -74 q 383 -318 532 -265 q 71 -371 235 -371 m 457 250 q 594 292 533 274 q 732 328 654 310 q 844 420 789 372 q 943 539 899 468 q 1008 721 988 610 q 807 651 908 697 q 619 538 706 604 q 472 383 532 471 q 443 335 460 365 q 426 282 426 306 q 457 250 426 254 m 846 353 l 922 367 l 944 461 q 897 405 922 432 q 846 353 872 378 m 106 -331 q 473 -245 313 -331 q 745 -10 633 -160 q 915 329 857 139 l 776 297 q 678 234 735 265 q 563 183 622 203 q 447 163 503 163 q 404 168 425 163 q 365 186 383 174 q 261 149 322 172 q 137 92 200 125 q 18 19 74 60 q -72 -71 -37 -22 q -106 -175 -106 -119 q -72 -267 -106 -233 q 12 -316 -37 -301 q 106 -331 61 -331 m 76 -621 q 69 -615 69 -621 q 78 -600 69 -608 q 80 -597 78 -599 q 81 -596 82 -594 q 108 -562 90 -585 q 132 -522 126 -540 q 113 -494 113 -515 q 125 -464 113 -478 q 153 -450 138 -450 q 185 -483 185 -450 q 142 -567 185 -514 q 90 -617 114 -603 q 83 -619 88 -618 q 76 -621 79 -621 z "},"Ġ":{"ha":1072,"x_min":-193,"x_max":1232,"o":"m 71 -371 q -22 -364 25 -371 q -107 -338 -68 -357 q -169 -284 -146 -319 q -193 -193 -193 -249 q -154 -70 -193 -126 q -52 32 -115 -14 q 84 114 11 78 q 227 177 157 150 q 349 221 297 204 q 333 265 333 240 q 368 388 333 331 q 461 496 403 446 q 592 588 519 546 q 740 663 664 631 q 884 719 815 696 q 1004 756 953 743 q 1039 782 1011 782 q 1094 751 1075 782 q 1149 742 1117 750 q 1206 719 1181 735 q 1232 674 1232 703 q 1219 639 1232 657 q 1189 608 1207 621 q 1154 594 1171 594 q 1143 606 1143 594 q 1158 624 1143 617 q 1172 656 1172 631 q 1172 664 1172 660 q 1171 672 1172 668 q 1143 708 1167 693 q 1104 722 1119 722 l 1097 722 q 1066 551 1088 643 q 1022 382 1044 458 l 1038 382 q 1081 380 1056 382 q 1126 372 1107 378 q 1146 353 1146 367 q 1128 339 1146 339 q 1099 342 1117 339 q 1061 344 1082 344 q 1036 344 1049 344 q 1011 342 1024 343 q 870 56 961 186 q 656 -169 779 -74 q 383 -318 532 -265 q 71 -371 235 -371 m 457 250 q 594 292 533 274 q 732 328 654 310 q 844 420 789 372 q 943 539 899 468 q 1008 721 988 610 q 807 651 908 697 q 619 538 706 604 q 472 383 532 471 q 443 335 460 365 q 426 282 426 306 q 457 250 426 254 m 846 353 l 922 367 l 944 461 q 897 405 922 432 q 846 353 872 378 m 106 -331 q 473 -245 313 -331 q 745 -10 633 -160 q 915 329 857 139 l 776 297 q 678 234 735 265 q 563 183 622 203 q 447 163 503 163 q 404 168 425 163 q 365 186 383 174 q 261 149 322 172 q 137 92 200 125 q 18 19 74 60 q -72 -71 -37 -22 q -106 -175 -106 -119 q -72 -267 -106 -233 q 12 -316 -37 -301 q 106 -331 61 -331 m 917 826 q 888 836 899 826 q 876 860 876 846 q 891 894 876 879 q 924 910 906 910 q 951 899 940 910 q 961 872 961 888 q 948 840 961 854 q 917 826 935 826 z "},"ẞ":{"ha":949,"x_min":-262,"x_max":1090,"o":"m -219 -301 q -247 -300 -232 -301 q -262 -289 -262 -299 q -253 -278 -262 -282 q -235 -274 -244 -274 q -147 -249 -189 -274 q -68 -187 -106 -225 q 0 -109 -31 -150 q 53 -35 31 -68 q 164 158 114 57 q 263 361 214 258 q 367 561 311 464 q 457 697 408 633 q 571 799 506 760 q 726 839 636 839 q 833 819 779 839 q 922 761 886 800 q 957 661 957 722 q 921 550 957 597 q 831 474 885 503 q 719 433 776 446 q 828 405 775 426 q 917 343 882 383 q 951 236 951 303 q 939 157 951 197 q 900 88 926 117 q 963 112 932 93 q 1019 153 993 131 q 1060 192 1044 175 q 1076 211 1075 210 q 1082 215 1081 215 q 1088 208 1086 215 q 1088 196 1090 201 q 1054 149 1082 175 q 987 97 1026 122 q 907 55 947 71 q 836 39 867 39 q 733 -16 785 4 q 617 -36 681 -36 q 533 -28 578 -36 q 448 -1 488 -19 q 383 51 408 18 q 357 135 357 85 q 380 207 357 174 q 443 240 403 240 q 471 231 457 240 q 494 207 485 222 q 576 124 528 158 q 676 78 625 90 q 708 72 692 74 q 739 71 724 71 q 761 72 750 71 q 782 74 772 72 q 842 149 818 106 q 865 239 865 192 q 837 319 865 288 q 765 370 808 351 q 674 397 721 389 q 589 404 626 404 q 545 399 567 404 q 500 394 524 394 q 460 401 485 394 q 436 431 436 408 q 444 450 436 442 q 460 464 453 458 q 492 448 474 451 q 528 444 510 444 q 636 455 576 444 q 751 490 696 465 q 843 558 807 515 q 879 664 879 600 q 835 770 879 732 q 725 808 792 808 q 606 770 654 808 q 518 669 558 732 q 447 545 488 621 q 360 378 407 469 q 260 192 313 288 q 149 9 207 97 q 31 -149 92 -79 q -93 -260 -31 -219 q -219 -301 -156 -301 m 604 8 q 681 19 636 8 q 753 43 725 29 q 661 51 706 44 q 565 86 617 57 q 443 181 513 115 q 424 163 429 176 q 419 138 419 150 q 449 63 419 92 q 522 22 479 35 q 604 8 565 8 z "},"H":{"ha":1474,"x_min":15,"x_max":1703,"o":"m 324 -128 q 225 -118 278 -128 q 124 -85 172 -108 q 46 -24 76 -62 q 15 71 15 14 q 60 186 15 138 q 181 269 106 235 q 351 325 257 303 q 545 360 446 347 q 738 377 644 372 q 901 382 831 382 q 956 381 931 382 q 999 379 981 381 q 1036 460 1017 415 q 1070 551 1056 504 q 1085 636 1085 597 q 1073 673 1085 654 q 1042 692 1061 692 q 997 683 1015 692 q 957 664 979 675 q 947 661 949 661 q 936 672 936 661 q 955 695 936 685 q 1000 715 974 706 q 1051 728 1026 724 q 1085 733 1075 733 q 1153 706 1133 733 q 1174 635 1174 679 q 1149 500 1174 571 q 1096 372 1124 429 q 1204 359 1150 367 q 1311 338 1258 351 q 1365 435 1332 378 q 1435 552 1397 492 q 1510 664 1472 613 q 1582 742 1549 715 q 1625 761 1601 757 q 1671 765 1649 765 q 1690 763 1679 765 q 1703 750 1701 761 q 1683 721 1700 738 q 1657 693 1667 704 q 1500 503 1568 596 q 1378 314 1432 411 q 1419 294 1397 307 q 1458 265 1442 282 q 1475 224 1475 247 q 1460 174 1475 193 q 1433 160 1449 160 q 1425 165 1425 160 q 1431 176 1425 171 q 1440 215 1440 189 q 1440 224 1440 219 q 1439 232 1440 228 q 1424 256 1438 244 q 1393 276 1410 267 q 1367 288 1376 285 q 1326 206 1350 256 q 1283 106 1301 157 q 1265 18 1265 56 q 1273 -14 1265 4 q 1299 -32 1281 -32 q 1336 -25 1318 -32 q 1381 0 1354 -18 q 1388 3 1386 3 q 1392 -4 1392 3 q 1374 -33 1392 -18 q 1333 -56 1357 -47 q 1286 -62 1308 -64 q 1220 -39 1242 -60 q 1199 25 1199 -18 q 1217 117 1199 65 q 1259 221 1235 169 q 1300 308 1283 272 q 1191 328 1246 321 q 1081 340 1136 336 q 947 174 1025 257 q 771 23 868 92 q 561 -87 674 -46 q 324 -128 449 -128 m 315 -99 q 547 -59 444 -99 q 728 46 649 -19 q 869 190 807 111 q 981 346 931 268 q 944 348 963 347 q 907 349 925 349 q 789 343 865 349 q 619 325 713 338 q 433 290 526 313 q 260 235 339 268 q 132 156 181 201 q 83 47 83 110 q 108 -24 83 4 q 168 -68 132 -51 q 244 -92 204 -85 q 315 -99 285 -99 z "},"Ħ":{"ha":1474,"x_min":15,"x_max":1703,"o":"m 324 -142 q 225 -132 278 -142 q 124 -99 172 -122 q 46 -38 76 -76 q 15 57 15 0 q 60 172 15 124 q 181 255 106 221 q 351 311 257 289 q 545 346 446 333 q 738 363 644 358 q 901 368 831 368 q 956 367 931 368 q 999 365 981 367 q 1035 444 1015 400 q 1068 532 1054 488 l 1053 532 q 1016 533 1040 532 q 971 538 992 533 q 950 553 950 542 q 986 578 950 571 q 1082 588 1022 586 q 1084 605 1083 596 q 1085 622 1085 614 q 1073 659 1085 640 q 1042 678 1061 678 q 997 669 1015 678 q 957 650 979 661 q 947 647 949 647 q 936 658 936 647 q 955 681 936 671 q 1000 701 974 692 q 1051 715 1026 710 q 1085 719 1075 719 q 1153 692 1133 719 q 1174 621 1174 665 q 1173 605 1174 613 q 1171 589 1172 597 l 1467 589 q 1526 669 1497 633 q 1582 728 1556 706 q 1625 747 1601 743 q 1671 751 1649 751 q 1690 749 1679 751 q 1703 736 1701 747 q 1683 707 1700 724 q 1657 679 1667 690 q 1615 632 1635 656 q 1574 583 1594 608 q 1638 576 1614 581 q 1663 564 1663 571 q 1644 556 1663 560 q 1597 549 1625 551 q 1542 543 1569 546 q 1378 300 1449 426 q 1419 281 1397 293 q 1458 251 1442 268 q 1475 210 1475 233 q 1460 160 1475 179 q 1433 146 1449 146 q 1425 151 1425 146 q 1431 163 1425 157 q 1440 201 1440 175 q 1440 210 1440 206 q 1439 218 1440 214 q 1424 242 1438 231 q 1393 262 1410 253 q 1367 274 1376 271 q 1326 192 1350 242 q 1283 92 1301 143 q 1265 4 1265 42 q 1273 -28 1265 -10 q 1299 -46 1281 -46 q 1336 -39 1318 -46 q 1381 -14 1354 -32 q 1388 -11 1386 -11 q 1392 -18 1392 -11 q 1374 -47 1392 -32 q 1333 -69 1357 -61 q 1286 -76 1308 -78 q 1220 -53 1242 -74 q 1199 11 1199 -32 q 1217 103 1199 51 q 1259 207 1235 156 q 1300 294 1283 258 q 1191 315 1246 307 q 1081 326 1136 322 q 947 160 1025 243 q 771 9 868 78 q 561 -101 674 -60 q 324 -142 449 -142 m 1311 324 q 1365 422 1332 364 q 1435 539 1397 479 q 1299 534 1367 536 q 1161 532 1231 532 q 1132 441 1150 486 q 1096 358 1114 396 q 1204 345 1150 353 q 1311 324 1258 338 m 315 -112 q 547 -73 444 -112 q 728 32 649 -33 q 869 176 807 97 q 981 332 931 254 q 944 334 963 333 q 907 335 925 335 q 789 329 865 335 q 619 311 713 324 q 433 276 526 299 q 260 221 339 254 q 132 142 181 188 q 83 33 83 96 q 108 -37 83 -10 q 168 -82 132 -65 q 244 -106 204 -99 q 315 -112 285 -112 z "},"Ĥ":{"ha":1474,"x_min":15,"x_max":1703,"o":"m 324 -128 q 225 -118 278 -128 q 124 -85 172 -108 q 46 -24 76 -62 q 15 71 15 14 q 60 186 15 138 q 181 269 106 235 q 351 325 257 303 q 545 360 446 347 q 738 377 644 372 q 901 382 831 382 q 956 381 931 382 q 999 379 981 381 q 1036 460 1017 415 q 1070 551 1056 504 q 1085 636 1085 597 q 1073 673 1085 654 q 1042 692 1061 692 q 997 683 1015 692 q 957 664 979 675 q 947 661 949 661 q 936 672 936 661 q 955 695 936 685 q 1000 715 974 706 q 1051 728 1026 724 q 1085 733 1075 733 q 1153 706 1133 733 q 1174 635 1174 679 q 1149 500 1174 571 q 1096 372 1124 429 q 1204 359 1150 367 q 1311 338 1258 351 q 1365 435 1332 378 q 1435 552 1397 492 q 1510 664 1472 613 q 1582 742 1549 715 q 1625 761 1601 757 q 1671 765 1649 765 q 1690 763 1679 765 q 1703 750 1701 761 q 1683 721 1700 738 q 1657 693 1667 704 q 1500 503 1568 596 q 1378 314 1432 411 q 1419 294 1397 307 q 1458 265 1442 282 q 1475 224 1475 247 q 1460 174 1475 193 q 1433 160 1449 160 q 1425 165 1425 160 q 1431 176 1425 171 q 1440 215 1440 189 q 1440 224 1440 219 q 1439 232 1440 228 q 1424 256 1438 244 q 1393 276 1410 267 q 1367 288 1376 285 q 1326 206 1350 256 q 1283 106 1301 157 q 1265 18 1265 56 q 1273 -14 1265 4 q 1299 -32 1281 -32 q 1336 -25 1318 -32 q 1381 0 1354 -18 q 1388 3 1386 3 q 1392 -4 1392 3 q 1374 -33 1392 -18 q 1333 -56 1357 -47 q 1286 -62 1308 -64 q 1220 -39 1242 -60 q 1199 25 1199 -18 q 1217 117 1199 65 q 1259 221 1235 169 q 1300 308 1283 272 q 1191 328 1246 321 q 1081 340 1136 336 q 947 174 1025 257 q 771 23 868 92 q 561 -87 674 -46 q 324 -128 449 -128 m 315 -99 q 547 -59 444 -99 q 728 46 649 -19 q 869 190 807 111 q 981 346 931 268 q 944 348 963 347 q 907 349 925 349 q 789 343 865 349 q 619 325 713 338 q 433 290 526 313 q 260 235 339 268 q 132 156 181 201 q 83 47 83 110 q 108 -24 83 4 q 168 -68 132 -51 q 244 -92 204 -85 q 315 -99 285 -99 m 1249 826 q 1240 839 1238 826 q 1249 849 1243 844 q 1313 903 1283 881 q 1392 961 1343 926 q 1421 975 1408 975 q 1442 961 1432 975 q 1481 905 1464 932 q 1513 847 1499 878 q 1513 842 1513 844 q 1513 838 1514 840 q 1499 826 1513 826 q 1472 843 1492 826 q 1431 880 1451 860 q 1401 908 1410 900 q 1367 889 1390 903 q 1319 861 1344 875 q 1274 837 1293 847 q 1249 826 1254 826 z "},"I":{"ha":926,"x_min":-125,"x_max":1046,"o":"m 346 -50 q 292 -32 314 -46 q 263 14 269 -18 q 88 -7 174 4 q -94 -37 1 -18 q -105 -40 -100 -39 q -114 -40 -110 -40 q -125 -28 -125 -40 q -91 -2 -125 -15 q -5 23 -57 11 q 103 44 47 35 q 203 61 158 54 q 264 71 247 68 q 301 190 274 124 q 367 328 328 256 q 450 469 406 400 q 538 599 494 539 q 617 700 582 658 l 607 700 q 547 699 592 700 q 447 695 503 699 q 338 685 392 692 q 250 667 285 678 q 215 638 215 656 q 239 600 215 617 q 326 564 263 583 q 342 554 342 560 q 314 543 342 543 q 307 543 311 543 q 299 544 303 543 q 260 554 286 547 q 207 573 235 561 q 160 603 179 585 q 140 647 140 622 q 181 701 139 681 q 288 733 222 722 q 426 749 354 744 q 557 753 497 753 q 621 752 593 753 q 663 750 649 751 q 705 770 681 767 q 751 774 729 774 q 773 772 760 774 q 786 757 786 769 l 779 743 q 821 742 790 743 q 890 737 851 740 q 963 728 928 733 q 1022 716 999 724 q 1046 697 1046 708 q 1037 681 1046 686 q 1018 678 1028 676 q 735 699 860 699 q 617 567 679 642 q 498 410 556 493 q 397 242 440 326 q 332 79 353 157 q 405 86 368 83 q 478 89 442 89 l 522 89 q 594 85 556 89 q 660 69 632 82 q 688 28 688 56 q 682 8 688 19 q 665 -4 676 -4 l 656 -3 q 553 18 606 13 q 449 24 501 24 l 436 24 q 449 4 449 18 q 433 -24 449 -10 q 393 -45 417 -37 q 346 -50 369 -53 m 353 -18 q 393 -12 372 -19 q 431 22 414 -6 q 374 21 408 21 q 315 18 339 21 q 326 -3 318 8 q 353 -18 335 -15 z "},"Ĳ":{"ha":1735,"x_min":-1,"x_max":1719,"o":"m 469 -50 q 415 -32 438 -46 q 386 14 393 -18 q 211 -7 297 4 q 29 -37 125 -18 q 19 -40 24 -39 q 10 -40 14 -40 q -1 -28 -1 -40 q 33 -2 -1 -15 q 119 23 67 11 q 226 44 171 35 q 326 61 282 54 q 388 71 371 68 q 424 190 397 124 q 490 328 451 256 q 574 469 529 400 q 662 599 618 539 q 740 700 706 658 l 731 700 q 671 699 715 700 q 571 695 626 699 q 462 685 515 692 q 374 667 408 678 q 339 638 339 656 q 363 600 339 617 q 450 564 386 583 q 465 554 465 560 q 438 543 465 543 q 431 543 435 543 q 422 544 426 543 q 384 554 410 547 q 331 573 358 561 q 283 603 303 585 q 264 647 264 622 q 304 701 263 681 q 412 733 346 722 q 549 749 478 744 q 681 753 621 753 q 744 752 717 753 q 786 750 772 751 q 828 770 804 767 q 875 774 853 774 q 897 772 883 774 q 910 757 910 769 l 903 743 q 956 741 917 743 q 1041 734 994 739 q 1124 722 1088 729 q 1168 703 1160 714 q 1304 748 1238 732 q 1422 764 1371 764 q 1618 695 1556 764 q 1681 500 1681 626 q 1660 326 1681 415 q 1611 157 1640 238 l 1631 157 q 1663 153 1643 157 q 1701 141 1683 149 q 1719 121 1718 133 l 1719 117 q 1697 99 1719 99 q 1651 117 1678 113 q 1599 118 1625 121 q 1503 -51 1563 35 q 1366 -215 1443 -137 q 1199 -355 1289 -293 q 1014 -453 1110 -417 q 821 -489 918 -489 q 720 -475 769 -489 q 638 -429 671 -461 q 606 -344 606 -397 q 615 -283 606 -314 q 692 -167 635 -221 q 833 -67 750 -112 q 1010 17 915 -21 q 1199 82 1104 54 q 1378 128 1294 110 q 1521 156 1463 147 q 1558 268 1542 206 q 1585 394 1575 331 q 1596 511 1596 457 q 1578 619 1596 568 q 1523 701 1561 669 q 1421 733 1485 733 q 1284 709 1357 733 q 1140 644 1211 685 q 1011 549 1069 603 q 918 438 953 496 q 883 324 883 381 q 901 273 883 292 q 944 247 918 254 q 996 240 971 240 q 1092 258 1043 240 q 1185 302 1142 276 q 1257 350 1229 328 q 1274 354 1268 354 q 1286 346 1286 354 q 1279 332 1286 342 q 1203 268 1253 299 q 1097 218 1153 238 q 994 199 1040 199 q 913 214 953 199 q 846 261 872 229 q 819 340 819 293 q 862 474 819 411 q 972 590 904 538 q 1119 681 1040 642 q 858 699 975 699 q 741 567 803 642 q 622 410 679 493 q 520 242 564 326 q 456 79 476 157 q 528 86 492 83 q 601 89 565 89 l 646 89 q 718 85 679 89 q 784 69 757 82 q 811 28 811 56 q 806 8 811 19 q 789 -4 800 -4 l 779 -3 q 677 18 729 13 q 572 24 625 24 l 560 24 q 572 4 572 18 q 556 -24 572 -10 q 517 -45 540 -37 q 469 -50 493 -53 m 825 -460 q 1012 -419 924 -457 q 1178 -321 1100 -382 q 1319 -185 1256 -260 q 1430 -33 1382 -111 q 1507 114 1478 44 q 1374 88 1453 107 q 1206 39 1296 68 q 1028 -29 1117 10 q 865 -115 940 -68 q 740 -218 790 -162 q 679 -336 690 -274 q 678 -347 678 -342 q 678 -358 678 -353 q 717 -434 678 -407 q 825 -460 756 -461 m 476 -18 q 517 -12 496 -19 q 554 22 538 -6 q 497 21 532 21 q 439 18 463 21 q 450 -3 442 8 q 476 -18 458 -15 z "},"Í":{"ha":926,"x_min":-125,"x_max":1046,"o":"m 346 -50 q 292 -32 314 -46 q 263 14 269 -18 q 88 -7 174 4 q -94 -37 1 -18 q -105 -40 -100 -39 q -114 -40 -110 -40 q -125 -28 -125 -40 q -91 -2 -125 -15 q -5 23 -57 11 q 103 44 47 35 q 203 61 158 54 q 264 71 247 68 q 301 190 274 124 q 367 328 328 256 q 450 469 406 400 q 538 599 494 539 q 617 700 582 658 l 607 700 q 547 699 592 700 q 447 695 503 699 q 338 685 392 692 q 250 667 285 678 q 215 638 215 656 q 239 600 215 617 q 326 564 263 583 q 342 554 342 560 q 314 543 342 543 q 307 543 311 543 q 299 544 303 543 q 260 554 286 547 q 207 573 235 561 q 160 603 179 585 q 140 647 140 622 q 181 701 139 681 q 288 733 222 722 q 426 749 354 744 q 557 753 497 753 q 621 752 593 753 q 663 750 649 751 q 705 770 681 767 q 751 774 729 774 q 773 772 760 774 q 786 757 786 769 l 779 743 q 821 742 790 743 q 890 737 851 740 q 963 728 928 733 q 1022 716 999 724 q 1046 697 1046 708 q 1037 681 1046 686 q 1018 678 1028 676 q 735 699 860 699 q 617 567 679 642 q 498 410 556 493 q 397 242 440 326 q 332 79 353 157 q 405 86 368 83 q 478 89 442 89 l 522 89 q 594 85 556 89 q 660 69 632 82 q 688 28 688 56 q 682 8 688 19 q 665 -4 676 -4 l 656 -3 q 553 18 606 13 q 449 24 501 24 l 436 24 q 449 4 449 18 q 433 -24 449 -10 q 393 -45 417 -37 q 346 -50 369 -53 m 353 -18 q 393 -12 372 -19 q 431 22 414 -6 q 374 21 408 21 q 315 18 339 21 q 326 -3 318 8 q 353 -18 335 -15 m 644 826 q 633 838 633 826 q 640 847 636 844 q 715 901 675 875 q 799 954 756 928 q 816 963 810 961 q 828 964 822 964 q 838 954 835 963 q 842 935 842 946 q 837 917 842 925 q 826 907 832 910 q 797 890 822 903 q 738 863 771 878 q 678 836 704 847 q 644 826 651 825 z "},"Ĭ":{"ha":926,"x_min":-125,"x_max":1046,"o":"m 346 -50 q 292 -32 314 -46 q 263 14 269 -18 q 88 -7 174 4 q -94 -37 1 -18 q -105 -40 -100 -39 q -114 -40 -110 -40 q -125 -28 -125 -40 q -91 -2 -125 -15 q -5 23 -57 11 q 103 44 47 35 q 203 61 158 54 q 264 71 247 68 q 301 190 274 124 q 367 328 328 256 q 450 469 406 400 q 538 599 494 539 q 617 700 582 658 l 607 700 q 547 699 592 700 q 447 695 503 699 q 338 685 392 692 q 250 667 285 678 q 215 638 215 656 q 239 600 215 617 q 326 564 263 583 q 342 554 342 560 q 314 543 342 543 q 307 543 311 543 q 299 544 303 543 q 260 554 286 547 q 207 573 235 561 q 160 603 179 585 q 140 647 140 622 q 181 701 139 681 q 288 733 222 722 q 426 749 354 744 q 557 753 497 753 q 621 752 593 753 q 663 750 649 751 q 705 770 681 767 q 751 774 729 774 q 773 772 760 774 q 786 757 786 769 l 779 743 q 821 742 790 743 q 890 737 851 740 q 963 728 928 733 q 1022 716 999 724 q 1046 697 1046 708 q 1037 681 1046 686 q 1018 678 1028 676 q 735 699 860 699 q 617 567 679 642 q 498 410 556 493 q 397 242 440 326 q 332 79 353 157 q 405 86 368 83 q 478 89 442 89 l 522 89 q 594 85 556 89 q 660 69 632 82 q 688 28 688 56 q 682 8 688 19 q 665 -4 676 -4 l 656 -3 q 553 18 606 13 q 449 24 501 24 l 436 24 q 449 4 449 18 q 433 -24 449 -10 q 393 -45 417 -37 q 346 -50 369 -53 m 353 -18 q 393 -12 372 -19 q 431 22 414 -6 q 374 21 408 21 q 315 18 339 21 q 326 -3 318 8 q 353 -18 335 -15 m 717 825 q 647 856 671 825 q 624 919 624 886 q 632 948 624 936 q 650 960 640 960 q 664 943 664 960 q 681 899 664 917 q 726 882 699 882 q 794 899 763 882 q 850 950 826 915 q 861 956 856 956 q 868 949 868 956 q 867 944 868 947 q 867 938 867 940 q 807 856 846 886 q 717 825 768 825 z "},"Ǐ":{"ha":926,"x_min":-125,"x_max":1046,"o":"m 903 975 q 911 963 917 975 q 904 953 908 957 q 841 899 869 922 q 768 840 813 876 q 739 826 751 826 q 718 840 728 826 q 679 897 696 869 q 647 954 663 924 q 647 960 647 957 q 647 964 646 963 q 661 975 647 975 q 688 958 668 975 q 729 922 708 942 q 758 893 750 903 q 791 913 769 900 q 836 940 813 926 q 878 965 860 954 q 903 975 897 975 m 346 -50 q 292 -32 314 -46 q 263 14 269 -18 q 88 -7 174 4 q -94 -37 1 -18 q -105 -40 -100 -39 q -114 -40 -110 -40 q -125 -28 -125 -40 q -91 -2 -125 -15 q -5 23 -57 11 q 103 44 47 35 q 203 61 158 54 q 264 71 247 68 q 301 190 274 124 q 367 328 328 256 q 450 469 406 400 q 538 599 494 539 q 617 700 582 658 l 607 700 q 547 699 592 700 q 447 695 503 699 q 338 685 392 692 q 250 667 285 678 q 215 638 215 656 q 239 600 215 617 q 326 564 263 583 q 342 554 342 560 q 314 543 342 543 q 307 543 311 543 q 299 544 303 543 q 260 554 286 547 q 207 573 235 561 q 160 603 179 585 q 140 647 140 622 q 181 701 139 681 q 288 733 222 722 q 426 749 354 744 q 557 753 497 753 q 621 752 593 753 q 663 750 649 751 q 705 770 681 767 q 751 774 729 774 q 773 772 760 774 q 786 757 786 769 l 779 743 q 821 742 790 743 q 890 737 851 740 q 963 728 928 733 q 1022 716 999 724 q 1046 697 1046 708 q 1037 681 1046 686 q 1018 678 1028 676 q 735 699 860 699 q 617 567 679 642 q 498 410 556 493 q 397 242 440 326 q 332 79 353 157 q 405 86 368 83 q 478 89 442 89 l 522 89 q 594 85 556 89 q 660 69 632 82 q 688 28 688 56 q 682 8 688 19 q 665 -4 676 -4 l 656 -3 q 553 18 606 13 q 449 24 501 24 l 436 24 q 449 4 449 18 q 433 -24 449 -10 q 393 -45 417 -37 q 346 -50 369 -53 m 353 -18 q 393 -12 372 -19 q 431 22 414 -6 q 374 21 408 21 q 315 18 339 21 q 326 -3 318 8 q 353 -18 335 -15 z "},"Î":{"ha":926,"x_min":-125,"x_max":1046,"o":"m 346 -50 q 292 -32 314 -46 q 263 14 269 -18 q 88 -7 174 4 q -94 -37 1 -18 q -105 -40 -100 -39 q -114 -40 -110 -40 q -125 -28 -125 -40 q -91 -2 -125 -15 q -5 23 -57 11 q 103 44 47 35 q 203 61 158 54 q 264 71 247 68 q 301 190 274 124 q 367 328 328 256 q 450 469 406 400 q 538 599 494 539 q 617 700 582 658 l 607 700 q 547 699 592 700 q 447 695 503 699 q 338 685 392 692 q 250 667 285 678 q 215 638 215 656 q 239 600 215 617 q 326 564 263 583 q 342 554 342 560 q 314 543 342 543 q 307 543 311 543 q 299 544 303 543 q 260 554 286 547 q 207 573 235 561 q 160 603 179 585 q 140 647 140 622 q 181 701 139 681 q 288 733 222 722 q 426 749 354 744 q 557 753 497 753 q 621 752 593 753 q 663 750 649 751 q 705 770 681 767 q 751 774 729 774 q 773 772 760 774 q 786 757 786 769 l 779 743 q 821 742 790 743 q 890 737 851 740 q 963 728 928 733 q 1022 716 999 724 q 1046 697 1046 708 q 1037 681 1046 686 q 1018 678 1028 676 q 735 699 860 699 q 617 567 679 642 q 498 410 556 493 q 397 242 440 326 q 332 79 353 157 q 405 86 368 83 q 478 89 442 89 l 522 89 q 594 85 556 89 q 660 69 632 82 q 688 28 688 56 q 682 8 688 19 q 665 -4 676 -4 l 656 -3 q 553 18 606 13 q 449 24 501 24 l 436 24 q 449 4 449 18 q 433 -24 449 -10 q 393 -45 417 -37 q 346 -50 369 -53 m 353 -18 q 393 -12 372 -19 q 431 22 414 -6 q 374 21 408 21 q 315 18 339 21 q 326 -3 318 8 q 353 -18 335 -15 m 610 826 q 601 839 599 826 q 610 849 604 844 q 674 903 644 881 q 753 961 704 926 q 782 975 769 975 q 803 961 793 975 q 842 905 825 932 q 874 847 860 878 q 874 842 874 844 q 874 838 875 840 q 860 826 874 826 q 833 843 853 826 q 792 880 813 860 q 763 908 771 900 q 728 889 751 903 q 680 861 706 875 q 635 837 654 847 q 610 826 615 826 z "},"Ȉ":{"ha":926,"x_min":-125,"x_max":1046,"o":"m 346 -50 q 292 -32 314 -46 q 263 14 269 -18 q 88 -7 174 4 q -94 -37 1 -18 q -105 -40 -100 -39 q -114 -40 -110 -40 q -125 -28 -125 -40 q -91 -2 -125 -15 q -5 23 -57 11 q 103 44 47 35 q 203 61 158 54 q 264 71 247 68 q 301 190 274 124 q 367 328 328 256 q 450 469 406 400 q 538 599 494 539 q 617 700 582 658 l 607 700 q 547 699 592 700 q 447 695 503 699 q 338 685 392 692 q 250 667 285 678 q 215 638 215 656 q 239 600 215 617 q 326 564 263 583 q 342 554 342 560 q 314 543 342 543 q 307 543 311 543 q 299 544 303 543 q 260 554 286 547 q 207 573 235 561 q 160 603 179 585 q 140 647 140 622 q 181 701 139 681 q 288 733 222 722 q 426 749 354 744 q 557 753 497 753 q 621 752 593 753 q 663 750 649 751 q 705 770 681 767 q 751 774 729 774 q 773 772 760 774 q 786 757 786 769 l 779 743 q 821 742 790 743 q 890 737 851 740 q 963 728 928 733 q 1022 716 999 724 q 1046 697 1046 708 q 1037 681 1046 686 q 1018 678 1028 676 q 735 699 860 699 q 617 567 679 642 q 498 410 556 493 q 397 242 440 326 q 332 79 353 157 q 405 86 368 83 q 478 89 442 89 l 522 89 q 594 85 556 89 q 660 69 632 82 q 688 28 688 56 q 682 8 688 19 q 665 -4 676 -4 l 656 -3 q 553 18 606 13 q 449 24 501 24 l 436 24 q 449 4 449 18 q 433 -24 449 -10 q 393 -45 417 -37 q 346 -50 369 -53 m 353 -18 q 393 -12 372 -19 q 431 22 414 -6 q 374 21 408 21 q 315 18 339 21 q 326 -3 318 8 q 353 -18 335 -15 m 765 822 q 741 839 760 824 q 699 874 722 854 q 659 911 676 894 q 639 932 642 928 q 631 957 629 943 q 653 986 638 986 q 667 981 658 986 q 681 969 675 976 q 731 906 708 938 q 776 842 754 875 q 779 831 781 835 q 765 822 779 822 m 669 826 q 643 839 664 826 q 598 869 622 851 q 554 900 574 886 q 531 918 535 914 q 524 926 528 921 q 519 940 519 932 q 526 965 519 956 q 540 974 533 974 q 567 960 553 974 q 623 907 596 933 q 679 847 650 881 q 683 835 683 839 q 669 826 683 826 z "},"Ï":{"ha":926,"x_min":-125,"x_max":1046,"o":"m 346 -50 q 292 -32 314 -46 q 263 14 269 -18 q 88 -7 174 4 q -94 -37 1 -18 q -105 -40 -100 -39 q -114 -40 -110 -40 q -125 -28 -125 -40 q -91 -2 -125 -15 q -5 23 -57 11 q 103 44 47 35 q 203 61 158 54 q 264 71 247 68 q 301 190 274 124 q 367 328 328 256 q 450 469 406 400 q 538 599 494 539 q 617 700 582 658 l 607 700 q 547 699 592 700 q 447 695 503 699 q 338 685 392 692 q 250 667 285 678 q 215 638 215 656 q 239 600 215 617 q 326 564 263 583 q 342 554 342 560 q 314 543 342 543 q 307 543 311 543 q 299 544 303 543 q 260 554 286 547 q 207 573 235 561 q 160 603 179 585 q 140 647 140 622 q 181 701 139 681 q 288 733 222 722 q 426 749 354 744 q 557 753 497 753 q 621 752 593 753 q 663 750 649 751 q 705 770 681 767 q 751 774 729 774 q 773 772 760 774 q 786 757 786 769 l 779 743 q 821 742 790 743 q 890 737 851 740 q 963 728 928 733 q 1022 716 999 724 q 1046 697 1046 708 q 1037 681 1046 686 q 1018 678 1028 676 q 735 699 860 699 q 617 567 679 642 q 498 410 556 493 q 397 242 440 326 q 332 79 353 157 q 405 86 368 83 q 478 89 442 89 l 522 89 q 594 85 556 89 q 660 69 632 82 q 688 28 688 56 q 682 8 688 19 q 665 -4 676 -4 l 656 -3 q 553 18 606 13 q 449 24 501 24 l 436 24 q 449 4 449 18 q 433 -24 449 -10 q 393 -45 417 -37 q 346 -50 369 -53 m 353 -18 q 393 -12 372 -19 q 431 22 414 -6 q 374 21 408 21 q 315 18 339 21 q 326 -3 318 8 q 353 -18 335 -15 m 796 826 q 767 836 778 826 q 756 860 756 846 q 770 894 756 879 q 803 910 785 910 q 830 899 819 910 q 840 872 840 888 q 827 840 840 854 q 796 826 814 826 m 656 826 q 626 836 638 826 q 615 860 615 846 q 630 894 615 879 q 663 910 644 910 q 690 899 679 910 q 700 872 700 888 q 687 840 700 854 q 656 826 674 826 z "},"İ":{"ha":926,"x_min":-125,"x_max":1046,"o":"m 346 -50 q 292 -32 314 -46 q 263 14 269 -18 q 88 -7 174 4 q -94 -37 1 -18 q -105 -40 -100 -39 q -114 -40 -110 -40 q -125 -28 -125 -40 q -91 -2 -125 -15 q -5 23 -57 11 q 103 44 47 35 q 203 61 158 54 q 264 71 247 68 q 301 190 274 124 q 367 328 328 256 q 450 469 406 400 q 538 599 494 539 q 617 700 582 658 l 607 700 q 547 699 592 700 q 447 695 503 699 q 338 685 392 692 q 250 667 285 678 q 215 638 215 656 q 239 600 215 617 q 326 564 263 583 q 342 554 342 560 q 314 543 342 543 q 307 543 311 543 q 299 544 303 543 q 260 554 286 547 q 207 573 235 561 q 160 603 179 585 q 140 647 140 622 q 181 701 139 681 q 288 733 222 722 q 426 749 354 744 q 557 753 497 753 q 621 752 593 753 q 663 750 649 751 q 705 770 681 767 q 751 774 729 774 q 773 772 760 774 q 786 757 786 769 l 779 743 q 821 742 790 743 q 890 737 851 740 q 963 728 928 733 q 1022 716 999 724 q 1046 697 1046 708 q 1037 681 1046 686 q 1018 678 1028 676 q 735 699 860 699 q 617 567 679 642 q 498 410 556 493 q 397 242 440 326 q 332 79 353 157 q 405 86 368 83 q 478 89 442 89 l 522 89 q 594 85 556 89 q 660 69 632 82 q 688 28 688 56 q 682 8 688 19 q 665 -4 676 -4 l 656 -3 q 553 18 606 13 q 449 24 501 24 l 436 24 q 449 4 449 18 q 433 -24 449 -10 q 393 -45 417 -37 q 346 -50 369 -53 m 353 -18 q 393 -12 372 -19 q 431 22 414 -6 q 374 21 408 21 q 315 18 339 21 q 326 -3 318 8 q 353 -18 335 -15 m 739 826 q 710 836 721 826 q 699 860 699 846 q 713 894 699 879 q 746 910 728 910 q 773 899 763 910 q 783 872 783 888 q 770 840 783 854 q 739 826 757 826 z "},"Ị":{"ha":926,"x_min":-125,"x_max":1046,"o":"m 346 -50 q 292 -32 314 -46 q 263 14 269 -18 q 88 -7 174 4 q -94 -37 1 -18 q -105 -40 -100 -39 q -114 -40 -110 -40 q -125 -28 -125 -40 q -91 -2 -125 -15 q -5 23 -57 11 q 103 44 47 35 q 203 61 158 54 q 264 71 247 68 q 301 190 274 124 q 367 328 328 256 q 450 469 406 400 q 538 599 494 539 q 617 700 582 658 l 607 700 q 547 699 592 700 q 447 695 503 699 q 338 685 392 692 q 250 667 285 678 q 215 638 215 656 q 239 600 215 617 q 326 564 263 583 q 342 554 342 560 q 314 543 342 543 q 307 543 311 543 q 299 544 303 543 q 260 554 286 547 q 207 573 235 561 q 160 603 179 585 q 140 647 140 622 q 181 701 139 681 q 288 733 222 722 q 426 749 354 744 q 557 753 497 753 q 621 752 593 753 q 663 750 649 751 q 705 770 681 767 q 751 774 729 774 q 773 772 760 774 q 786 757 786 769 l 779 743 q 821 742 790 743 q 890 737 851 740 q 963 728 928 733 q 1022 716 999 724 q 1046 697 1046 708 q 1037 681 1046 686 q 1018 678 1028 676 q 735 699 860 699 q 617 567 679 642 q 498 410 556 493 q 397 242 440 326 q 332 79 353 157 q 405 86 368 83 q 478 89 442 89 l 522 89 q 594 85 556 89 q 660 69 632 82 q 688 28 688 56 q 682 8 688 19 q 665 -4 676 -4 l 656 -3 q 553 18 606 13 q 449 24 501 24 l 436 24 q 449 4 449 18 q 433 -24 449 -10 q 393 -45 417 -37 q 346 -50 369 -53 m 353 -18 q 393 -12 372 -19 q 431 22 414 -6 q 374 21 408 21 q 315 18 339 21 q 326 -3 318 8 q 353 -18 335 -15 m 264 -161 q 235 -151 246 -161 q 224 -128 224 -142 q 238 -93 224 -108 q 271 -78 253 -78 q 298 -89 288 -78 q 308 -115 308 -100 q 295 -147 308 -133 q 264 -161 282 -161 z "},"Ì":{"ha":926,"x_min":-125,"x_max":1046,"o":"m 346 -50 q 292 -32 314 -46 q 263 14 269 -18 q 88 -7 174 4 q -94 -37 1 -18 q -105 -40 -100 -39 q -114 -40 -110 -40 q -125 -28 -125 -40 q -91 -2 -125 -15 q -5 23 -57 11 q 103 44 47 35 q 203 61 158 54 q 264 71 247 68 q 301 190 274 124 q 367 328 328 256 q 450 469 406 400 q 538 599 494 539 q 617 700 582 658 l 607 700 q 547 699 592 700 q 447 695 503 699 q 338 685 392 692 q 250 667 285 678 q 215 638 215 656 q 239 600 215 617 q 326 564 263 583 q 342 554 342 560 q 314 543 342 543 q 307 543 311 543 q 299 544 303 543 q 260 554 286 547 q 207 573 235 561 q 160 603 179 585 q 140 647 140 622 q 181 701 139 681 q 288 733 222 722 q 426 749 354 744 q 557 753 497 753 q 621 752 593 753 q 663 750 649 751 q 705 770 681 767 q 751 774 729 774 q 773 772 760 774 q 786 757 786 769 l 779 743 q 821 742 790 743 q 890 737 851 740 q 963 728 928 733 q 1022 716 999 724 q 1046 697 1046 708 q 1037 681 1046 686 q 1018 678 1028 676 q 735 699 860 699 q 617 567 679 642 q 498 410 556 493 q 397 242 440 326 q 332 79 353 157 q 405 86 368 83 q 478 89 442 89 l 522 89 q 594 85 556 89 q 660 69 632 82 q 688 28 688 56 q 682 8 688 19 q 665 -4 676 -4 l 656 -3 q 553 18 606 13 q 449 24 501 24 l 436 24 q 449 4 449 18 q 433 -24 449 -10 q 393 -45 417 -37 q 346 -50 369 -53 m 353 -18 q 393 -12 372 -19 q 431 22 414 -6 q 374 21 408 21 q 315 18 339 21 q 326 -3 318 8 q 353 -18 335 -15 m 776 826 q 744 836 771 825 q 683 863 717 847 q 624 890 650 878 q 594 907 599 903 q 585 915 590 910 q 579 929 581 921 l 579 935 q 583 954 579 946 q 593 964 588 963 q 606 963 599 964 q 622 954 613 961 q 706 901 667 928 q 781 847 746 875 q 788 838 785 844 q 776 826 788 826 z "},"Ỉ":{"ha":926,"x_min":-125,"x_max":1046,"o":"m 346 -50 q 292 -32 314 -46 q 263 14 269 -18 q 88 -7 174 4 q -94 -37 1 -18 q -105 -40 -100 -39 q -114 -40 -110 -40 q -125 -28 -125 -40 q -91 -2 -125 -15 q -5 23 -57 11 q 103 44 47 35 q 203 61 158 54 q 264 71 247 68 q 301 190 274 124 q 367 328 328 256 q 450 469 406 400 q 538 599 494 539 q 617 700 582 658 l 607 700 q 547 699 592 700 q 447 695 503 699 q 338 685 392 692 q 250 667 285 678 q 215 638 215 656 q 239 600 215 617 q 326 564 263 583 q 342 554 342 560 q 314 543 342 543 q 307 543 311 543 q 299 544 303 543 q 260 554 286 547 q 207 573 235 561 q 160 603 179 585 q 140 647 140 622 q 181 701 139 681 q 288 733 222 722 q 426 749 354 744 q 557 753 497 753 q 621 752 593 753 q 663 750 649 751 q 705 770 681 767 q 751 774 729 774 q 773 772 760 774 q 786 757 786 769 l 779 743 q 821 742 790 743 q 890 737 851 740 q 963 728 928 733 q 1022 716 999 724 q 1046 697 1046 708 q 1037 681 1046 686 q 1018 678 1028 676 q 735 699 860 699 q 617 567 679 642 q 498 410 556 493 q 397 242 440 326 q 332 79 353 157 q 405 86 368 83 q 478 89 442 89 l 522 89 q 594 85 556 89 q 660 69 632 82 q 688 28 688 56 q 682 8 688 19 q 665 -4 676 -4 l 656 -3 q 553 18 606 13 q 449 24 501 24 l 436 24 q 449 4 449 18 q 433 -24 449 -10 q 393 -45 417 -37 q 346 -50 369 -53 m 353 -18 q 393 -12 372 -19 q 431 22 414 -6 q 374 21 408 21 q 315 18 339 21 q 326 -3 318 8 q 353 -18 335 -15 m 746 826 q 735 832 738 826 q 738 843 733 838 q 750 860 740 850 q 763 874 760 869 q 786 900 778 893 q 794 925 794 907 q 761 950 794 950 q 743 949 751 950 q 728 944 735 947 l 718 943 q 710 954 710 943 q 738 977 711 965 q 790 989 764 989 q 835 976 815 989 q 856 938 856 964 q 834 886 856 903 q 797 860 813 869 q 781 848 790 854 q 765 836 772 842 q 746 826 758 826 z "},"Ȋ":{"ha":926,"x_min":-125,"x_max":1046,"o":"m 792 954 q 863 925 844 954 q 881 868 881 896 q 874 835 881 846 q 858 825 867 825 q 849 835 850 825 q 847 858 847 844 q 830 890 847 882 q 786 897 813 897 q 718 884 750 897 q 663 835 686 871 q 650 829 657 829 q 642 838 642 829 q 646 854 642 844 q 701 925 661 896 q 792 954 742 954 m 346 -50 q 292 -32 314 -46 q 263 14 269 -18 q 88 -7 174 4 q -94 -37 1 -18 q -105 -40 -100 -39 q -114 -40 -110 -40 q -125 -28 -125 -40 q -91 -2 -125 -15 q -5 23 -57 11 q 103 44 47 35 q 203 61 158 54 q 264 71 247 68 q 301 190 274 124 q 367 328 328 256 q 450 469 406 400 q 538 599 494 539 q 617 700 582 658 l 607 700 q 547 699 592 700 q 447 695 503 699 q 338 685 392 692 q 250 667 285 678 q 215 638 215 656 q 239 600 215 617 q 326 564 263 583 q 342 554 342 560 q 314 543 342 543 q 307 543 311 543 q 299 544 303 543 q 260 554 286 547 q 207 573 235 561 q 160 603 179 585 q 140 647 140 622 q 181 701 139 681 q 288 733 222 722 q 426 749 354 744 q 557 753 497 753 q 621 752 593 753 q 663 750 649 751 q 705 770 681 767 q 751 774 729 774 q 773 772 760 774 q 786 757 786 769 l 779 743 q 821 742 790 743 q 890 737 851 740 q 963 728 928 733 q 1022 716 999 724 q 1046 697 1046 708 q 1037 681 1046 686 q 1018 678 1028 676 q 735 699 860 699 q 617 567 679 642 q 498 410 556 493 q 397 242 440 326 q 332 79 353 157 q 405 86 368 83 q 478 89 442 89 l 522 89 q 594 85 556 89 q 660 69 632 82 q 688 28 688 56 q 682 8 688 19 q 665 -4 676 -4 l 656 -3 q 553 18 606 13 q 449 24 501 24 l 436 24 q 449 4 449 18 q 433 -24 449 -10 q 393 -45 417 -37 q 346 -50 369 -53 m 353 -18 q 393 -12 372 -19 q 431 22 414 -6 q 374 21 408 21 q 315 18 339 21 q 326 -3 318 8 q 353 -18 335 -15 z "},"Ī":{"ha":926,"x_min":-125,"x_max":1046,"o":"m 346 -50 q 292 -32 314 -46 q 263 14 269 -18 q 88 -7 174 4 q -94 -37 1 -18 q -105 -40 -100 -39 q -114 -40 -110 -40 q -125 -28 -125 -40 q -91 -2 -125 -15 q -5 23 -57 11 q 103 44 47 35 q 203 61 158 54 q 264 71 247 68 q 301 190 274 124 q 367 328 328 256 q 450 469 406 400 q 538 599 494 539 q 617 700 582 658 l 607 700 q 547 699 592 700 q 447 695 503 699 q 338 685 392 692 q 250 667 285 678 q 215 638 215 656 q 239 600 215 617 q 326 564 263 583 q 342 554 342 560 q 314 543 342 543 q 307 543 311 543 q 299 544 303 543 q 260 554 286 547 q 207 573 235 561 q 160 603 179 585 q 140 647 140 622 q 181 701 139 681 q 288 733 222 722 q 426 749 354 744 q 557 753 497 753 q 621 752 593 753 q 663 750 649 751 q 705 770 681 767 q 751 774 729 774 q 773 772 760 774 q 786 757 786 769 l 779 743 q 821 742 790 743 q 890 737 851 740 q 963 728 928 733 q 1022 716 999 724 q 1046 697 1046 708 q 1037 681 1046 686 q 1018 678 1028 676 q 735 699 860 699 q 617 567 679 642 q 498 410 556 493 q 397 242 440 326 q 332 79 353 157 q 405 86 368 83 q 478 89 442 89 l 522 89 q 594 85 556 89 q 660 69 632 82 q 688 28 688 56 q 682 8 688 19 q 665 -4 676 -4 l 656 -3 q 553 18 606 13 q 449 24 501 24 l 436 24 q 449 4 449 18 q 433 -24 449 -10 q 393 -45 417 -37 q 346 -50 369 -53 m 353 -18 q 393 -12 372 -19 q 431 22 414 -6 q 374 21 408 21 q 315 18 339 21 q 326 -3 318 8 q 353 -18 335 -15 m 713 842 q 671 842 694 842 q 636 846 647 843 q 625 858 625 850 q 632 875 625 865 q 648 885 638 882 q 668 889 658 888 q 682 890 675 890 q 697 890 689 890 q 776 886 733 890 q 844 876 819 882 q 869 871 858 875 q 879 860 879 867 q 874 849 879 851 q 857 846 868 847 q 824 844 850 846 q 769 842 797 843 q 729 842 742 842 l 713 842 z "},"Į":{"ha":926,"x_min":-125,"x_max":1046,"o":"m 346 -50 q 292 -32 314 -46 q 263 14 269 -18 q 88 -7 174 4 q -94 -37 1 -18 q -105 -40 -100 -39 q -114 -40 -110 -40 q -125 -28 -125 -40 q -91 -2 -125 -15 q -5 23 -57 11 q 103 44 47 35 q 203 61 158 54 q 264 71 247 68 q 301 190 274 124 q 367 328 328 256 q 450 469 406 400 q 538 599 494 539 q 617 700 582 658 l 607 700 q 547 699 592 700 q 447 695 503 699 q 338 685 392 692 q 250 667 285 678 q 215 638 215 656 q 239 600 215 617 q 326 564 263 583 q 342 554 342 560 q 314 543 342 543 q 307 543 311 543 q 299 544 303 543 q 260 554 286 547 q 207 573 235 561 q 160 603 179 585 q 140 647 140 622 q 181 701 139 681 q 288 733 222 722 q 426 749 354 744 q 557 753 497 753 q 621 752 593 753 q 663 750 649 751 q 705 770 681 767 q 751 774 729 774 q 773 772 760 774 q 786 757 786 769 l 779 743 q 821 742 790 743 q 890 737 851 740 q 963 728 928 733 q 1022 716 999 724 q 1046 697 1046 708 q 1037 681 1046 686 q 1018 678 1028 676 q 735 699 860 699 q 617 567 679 642 q 498 410 556 493 q 397 242 440 326 q 332 79 353 157 q 405 86 368 83 q 478 89 442 89 l 522 89 q 594 85 556 89 q 660 69 632 82 q 688 28 688 56 q 682 8 688 19 q 665 -4 676 -4 l 656 -3 q 553 18 606 13 q 449 24 501 24 l 436 24 q 449 4 449 18 q 433 -24 449 -10 q 393 -45 417 -37 q 346 -50 369 -53 m 353 -18 q 393 -12 372 -19 q 431 22 414 -6 q 374 21 408 21 q 315 18 339 21 q 326 -3 318 8 q 353 -18 335 -15 m 281 -236 q 239 -244 260 -244 q 192 -228 211 -244 q 174 -182 174 -212 q 186 -136 174 -161 q 217 -87 199 -111 q 258 -44 240 -60 q 290 -18 276 -28 q 301 -15 293 -15 q 316 -18 310 -15 q 321 -28 322 -21 l 319 -29 q 299 -53 313 -36 q 265 -97 285 -71 q 239 -165 239 -135 q 243 -183 239 -176 q 275 -194 254 -194 q 332 -165 301 -194 q 339 -162 338 -162 q 349 -169 346 -162 q 347 -182 351 -176 q 317 -212 335 -196 q 281 -236 299 -229 z "},"Ĩ":{"ha":926,"x_min":-125,"x_max":1046,"o":"m 346 -50 q 292 -32 314 -46 q 263 14 269 -18 q 88 -7 174 4 q -94 -37 1 -18 q -105 -40 -100 -39 q -114 -40 -110 -40 q -125 -28 -125 -40 q -91 -2 -125 -15 q -5 23 -57 11 q 103 44 47 35 q 203 61 158 54 q 264 71 247 68 q 301 190 274 124 q 367 328 328 256 q 450 469 406 400 q 538 599 494 539 q 617 700 582 658 l 607 700 q 547 699 592 700 q 447 695 503 699 q 338 685 392 692 q 250 667 285 678 q 215 638 215 656 q 239 600 215 617 q 326 564 263 583 q 342 554 342 560 q 314 543 342 543 q 307 543 311 543 q 299 544 303 543 q 260 554 286 547 q 207 573 235 561 q 160 603 179 585 q 140 647 140 622 q 181 701 139 681 q 288 733 222 722 q 426 749 354 744 q 557 753 497 753 q 621 752 593 753 q 663 750 649 751 q 705 770 681 767 q 751 774 729 774 q 773 772 760 774 q 786 757 786 769 l 779 743 q 821 742 790 743 q 890 737 851 740 q 963 728 928 733 q 1022 716 999 724 q 1046 697 1046 708 q 1037 681 1046 686 q 1018 678 1028 676 q 735 699 860 699 q 617 567 679 642 q 498 410 556 493 q 397 242 440 326 q 332 79 353 157 q 405 86 368 83 q 478 89 442 89 l 522 89 q 594 85 556 89 q 660 69 632 82 q 688 28 688 56 q 682 8 688 19 q 665 -4 676 -4 l 656 -3 q 553 18 606 13 q 449 24 501 24 l 436 24 q 449 4 449 18 q 433 -24 449 -10 q 393 -45 417 -37 q 346 -50 369 -53 m 353 -18 q 393 -12 372 -19 q 431 22 414 -6 q 374 21 408 21 q 315 18 339 21 q 326 -3 318 8 q 353 -18 335 -15 m 640 836 q 629 846 629 836 q 650 895 629 878 q 704 913 671 913 q 761 903 732 913 q 814 890 794 890 q 854 917 840 890 l 858 918 q 871 910 867 918 q 851 859 872 876 q 794 842 829 842 q 739 851 767 842 q 685 864 706 864 q 661 857 671 864 q 644 838 651 850 l 640 836 z "},"J":{"ha":929,"x_min":-193,"x_max":921,"o":"m 22 -489 q -78 -475 -29 -489 q -160 -429 -128 -461 q -193 -344 -193 -397 q -183 -283 -193 -314 q -106 -167 -164 -221 q 34 -67 -49 -112 q 211 17 117 -21 q 401 82 306 54 q 580 128 496 110 q 722 156 664 147 q 760 268 743 206 q 787 394 776 331 q 797 511 797 457 q 780 619 797 568 q 724 701 763 669 q 622 733 686 733 q 485 709 558 733 q 342 644 413 685 q 213 549 271 603 q 119 438 154 496 q 85 324 85 381 q 102 273 85 292 q 145 247 119 254 q 197 240 171 240 q 294 258 244 240 q 387 302 343 276 q 458 350 431 328 q 475 354 469 354 q 488 346 488 354 q 481 332 488 342 q 404 268 454 299 q 298 218 354 238 q 196 199 242 199 q 114 214 154 199 q 47 261 74 229 q 21 340 21 293 q 64 475 21 411 q 176 592 107 539 q 327 683 246 644 q 486 743 408 722 q 624 764 564 764 q 819 695 757 764 q 882 500 882 626 q 862 326 882 415 q 813 157 842 238 l 832 157 q 865 153 844 157 q 902 141 885 149 q 921 121 919 133 l 921 117 q 899 99 921 99 q 853 117 879 113 q 800 118 826 121 q 704 -51 764 35 q 567 -215 644 -137 q 401 -355 490 -293 q 215 -453 311 -417 q 22 -489 119 -489 m 26 -460 q 213 -419 124 -457 q 379 -321 301 -382 q 520 -185 457 -260 q 631 -33 583 -111 q 708 114 679 44 q 576 88 654 107 q 408 39 497 68 q 230 -29 318 10 q 67 -115 142 -68 q -58 -218 -8 -162 q -119 -336 -108 -274 q -121 -347 -121 -342 q -121 -358 -121 -353 q -82 -434 -121 -407 q 26 -460 -43 -461 z "},"Ĵ":{"ha":929,"x_min":-193,"x_max":921,"o":"m 22 -489 q -78 -475 -29 -489 q -160 -429 -128 -461 q -193 -344 -193 -397 q -183 -283 -193 -314 q -106 -167 -164 -221 q 34 -67 -49 -112 q 211 17 117 -21 q 401 82 306 54 q 580 128 496 110 q 722 156 664 147 q 760 268 743 206 q 787 394 776 331 q 797 511 797 457 q 780 619 797 568 q 724 701 763 669 q 622 733 686 733 q 485 709 558 733 q 342 644 413 685 q 213 549 271 603 q 119 438 154 496 q 85 324 85 381 q 102 273 85 292 q 145 247 119 254 q 197 240 171 240 q 294 258 244 240 q 387 302 343 276 q 458 350 431 328 q 475 354 469 354 q 488 346 488 354 q 481 332 488 342 q 404 268 454 299 q 298 218 354 238 q 196 199 242 199 q 114 214 154 199 q 47 261 74 229 q 21 340 21 293 q 64 475 21 411 q 176 592 107 539 q 327 683 246 644 q 486 743 408 722 q 624 764 564 764 q 819 695 757 764 q 882 500 882 626 q 862 326 882 415 q 813 157 842 238 l 832 157 q 865 153 844 157 q 902 141 885 149 q 921 121 919 133 l 921 117 q 899 99 921 99 q 853 117 879 113 q 800 118 826 121 q 704 -51 764 35 q 567 -215 644 -137 q 401 -355 490 -293 q 215 -453 311 -417 q 22 -489 119 -489 m 26 -460 q 213 -419 124 -457 q 379 -321 301 -382 q 520 -185 457 -260 q 631 -33 583 -111 q 708 114 679 44 q 576 88 654 107 q 408 39 497 68 q 230 -29 318 10 q 67 -115 142 -68 q -58 -218 -8 -162 q -119 -336 -108 -274 q -121 -347 -121 -342 q -121 -358 -121 -353 q -82 -434 -121 -407 q 26 -460 -43 -461 m 504 826 q 496 839 493 826 q 504 849 499 844 q 569 903 539 881 q 647 961 599 926 q 676 975 664 975 q 697 961 688 975 q 737 905 719 932 q 768 847 754 878 q 769 842 768 844 q 768 838 769 840 q 754 826 768 826 q 727 843 747 826 q 686 880 707 860 q 657 908 665 900 q 623 889 646 903 q 574 861 600 875 q 529 837 549 847 q 504 826 510 826 z "},"K":{"ha":1257,"x_min":-61,"x_max":1297,"o":"m 142 -90 q 67 -82 101 -90 q 6 -61 32 -74 q -61 40 -61 -26 q 107 260 -61 138 q 266 349 190 319 q 400 378 342 378 q 422 368 422 378 q 400 354 422 358 q 215 278 303 326 q 72 172 126 229 q 26 104 39 138 q 13 35 13 71 q 49 -26 13 -7 q 142 -46 85 -46 q 474 85 310 -46 q 585 190 535 133 q 686 324 636 247 q 626 401 647 369 q 604 444 604 433 q 610 475 604 457 q 626 508 615 493 q 653 522 638 522 q 667 513 664 522 q 696 458 682 482 q 725 411 710 435 q 782 548 765 493 q 799 654 799 603 q 791 705 799 686 q 760 724 783 724 q 703 708 740 724 q 676 697 685 701 q 665 693 668 693 q 647 710 647 693 q 665 731 647 719 q 711 751 683 742 q 756 763 735 760 q 796 767 778 767 q 892 661 892 767 q 867 524 892 601 q 799 364 843 447 q 1076 497 967 429 q 1233 640 1185 565 q 1244 659 1238 647 q 1254 683 1251 671 q 1263 699 1257 692 q 1276 706 1269 706 q 1293 697 1289 706 q 1297 675 1297 688 q 1169 499 1297 586 q 789 322 1040 411 q 872 233 833 269 q 967 147 911 196 q 1190 22 1114 22 q 1218 29 1206 22 q 1231 51 1231 36 q 1230 58 1231 54 q 1229 68 1229 63 q 1228 71 1229 69 q 1228 74 1228 72 q 1224 94 1224 89 l 1224 100 q 1233 113 1224 113 q 1254 98 1244 113 q 1264 54 1264 83 q 1257 21 1264 39 q 1238 -7 1250 3 q 1210 -22 1225 -17 q 1176 -28 1196 -28 q 1070 2 1133 -28 q 931 92 1007 32 q 834 175 883 129 q 740 268 785 221 q 635 141 693 203 q 503 28 576 79 q 322 -63 413 -36 q 142 -90 232 -90 z "},"Ķ":{"ha":1257,"x_min":-61,"x_max":1297,"o":"m 142 -90 q 67 -82 101 -90 q 6 -61 32 -74 q -61 40 -61 -26 q 107 260 -61 138 q 266 349 190 319 q 400 378 342 378 q 422 368 422 378 q 400 354 422 358 q 215 278 303 326 q 72 172 126 229 q 26 104 39 138 q 13 35 13 71 q 49 -26 13 -7 q 142 -46 85 -46 q 474 85 310 -46 q 585 190 535 133 q 686 324 636 247 q 626 401 647 369 q 604 444 604 433 q 610 475 604 457 q 626 508 615 493 q 653 522 638 522 q 667 513 664 522 q 696 458 682 482 q 725 411 710 435 q 782 548 765 493 q 799 654 799 603 q 791 705 799 686 q 760 724 783 724 q 703 708 740 724 q 676 697 685 701 q 665 693 668 693 q 647 710 647 693 q 665 731 647 719 q 711 751 683 742 q 756 763 735 760 q 796 767 778 767 q 892 661 892 767 q 867 524 892 601 q 799 364 843 447 q 1076 497 967 429 q 1233 640 1185 565 q 1244 659 1238 647 q 1254 683 1251 671 q 1263 699 1257 692 q 1276 706 1269 706 q 1293 697 1289 706 q 1297 675 1297 688 q 1169 499 1297 586 q 789 322 1040 411 q 872 233 833 269 q 967 147 911 196 q 1190 22 1114 22 q 1218 29 1206 22 q 1231 51 1231 36 q 1230 58 1231 54 q 1229 68 1229 63 q 1228 71 1229 69 q 1228 74 1228 72 q 1224 94 1224 89 l 1224 100 q 1233 113 1224 113 q 1254 98 1244 113 q 1264 54 1264 83 q 1257 21 1264 39 q 1238 -7 1250 3 q 1210 -22 1225 -17 q 1176 -28 1196 -28 q 1070 2 1133 -28 q 931 92 1007 32 q 834 175 883 129 q 740 268 785 221 q 635 141 693 203 q 503 28 576 79 q 322 -63 413 -36 q 142 -90 232 -90 m 639 -267 q 632 -261 632 -267 q 640 -246 632 -254 q 642 -242 640 -244 q 643 -242 644 -240 q 671 -208 653 -231 q 694 -168 689 -186 q 675 -140 675 -161 q 688 -110 675 -124 q 715 -96 700 -96 q 747 -129 747 -96 q 704 -212 747 -160 q 653 -262 676 -249 q 646 -265 650 -264 q 639 -267 642 -267 z "},"L":{"ha":1157,"x_min":7,"x_max":1149,"o":"m 890 -97 q 697 -73 804 -97 q 475 11 590 -49 q 374 -27 426 -14 q 278 -40 322 -40 q 89 18 171 -40 q 7 163 7 79 q 15 212 7 182 q 46 265 22 242 q 117 289 69 289 q 192 261 144 289 q 307 188 240 233 q 422 108 378 140 q 474 69 465 75 q 551 177 515 113 q 629 336 588 242 q 559 325 590 329 q 494 321 528 321 q 361 338 414 321 q 310 377 329 351 q 292 429 292 403 q 328 488 292 457 q 424 547 364 519 q 617 597 531 597 q 636 588 636 597 q 614 572 636 576 l 601 569 q 579 566 592 568 q 550 558 567 564 q 400 497 449 531 q 351 432 351 464 q 500 369 351 369 q 573 374 536 369 q 651 390 610 379 q 694 484 674 444 q 729 550 715 524 q 783 636 754 593 q 842 708 811 679 q 932 772 890 753 q 1015 792 974 792 q 1105 769 1072 792 q 1138 708 1138 747 q 1113 626 1138 672 q 1032 531 1088 579 q 969 483 1006 508 q 892 437 932 458 q 819 401 853 415 l 719 360 q 694 305 710 339 q 664 240 679 271 q 639 194 649 210 q 581 108 611 147 q 524 49 550 69 q 599 16 553 31 q 696 -10 644 1 q 793 -26 747 -21 q 869 -32 839 -32 q 952 -30 911 -32 q 1024 -19 993 -28 q 1076 9 1051 -12 q 1100 57 1100 31 q 1081 99 1100 79 q 1055 117 1068 108 q 1042 131 1042 126 q 1061 146 1042 146 q 1070 144 1065 146 q 1083 139 1075 142 q 1133 90 1117 118 q 1149 38 1149 63 q 1124 -28 1149 -1 q 1060 -69 1100 -54 q 976 -91 1021 -85 q 890 -97 932 -97 m 758 432 q 849 473 796 446 q 957 547 901 500 q 1043 640 1013 593 q 1074 713 1074 688 q 1049 733 1074 733 q 1025 729 1040 733 q 758 432 883 689 m 274 10 q 354 18 307 10 q 431 40 401 26 l 240 158 q 152 210 181 196 q 104 225 124 225 q 69 175 69 225 q 133 61 69 110 q 200 24 164 38 q 274 10 236 10 z "},"Ǉ":{"ha":2086,"x_min":7,"x_max":2078,"o":"m 890 -97 q 697 -73 804 -97 q 475 11 590 -49 q 374 -27 426 -14 q 278 -40 322 -40 q 89 18 171 -40 q 7 163 7 79 q 15 212 7 182 q 46 265 22 242 q 117 289 69 289 q 192 261 144 289 q 307 188 240 233 q 422 108 378 140 q 474 69 465 75 q 551 177 515 113 q 629 336 588 242 q 559 325 590 329 q 494 321 528 321 q 361 338 414 321 q 310 377 329 351 q 292 429 292 403 q 328 488 292 457 q 424 547 364 519 q 617 597 531 597 q 636 588 636 597 q 614 572 636 576 l 601 569 q 579 566 592 568 q 550 558 567 564 q 400 497 449 531 q 351 432 351 464 q 500 369 351 369 q 573 374 536 369 q 651 390 610 379 q 694 484 674 444 q 729 550 715 524 q 783 636 754 593 q 842 708 811 679 q 932 772 890 753 q 1015 792 974 792 q 1105 769 1072 792 q 1138 708 1138 747 q 1113 626 1138 672 q 1032 531 1088 579 q 969 483 1006 508 q 892 437 932 458 q 819 401 853 415 l 719 360 q 694 305 710 339 q 664 240 679 271 q 639 194 649 210 q 581 108 611 147 q 524 49 550 69 q 599 16 553 31 q 696 -10 644 1 q 793 -26 747 -21 q 869 -32 839 -32 q 952 -30 911 -32 q 1024 -19 993 -28 q 1076 9 1051 -12 q 1100 57 1100 31 q 1081 99 1100 79 q 1055 117 1068 108 q 1042 131 1042 126 q 1061 146 1042 146 q 1070 144 1065 146 q 1083 139 1075 142 q 1133 90 1117 118 q 1149 38 1149 63 q 1124 -28 1149 -1 q 1060 -69 1100 -54 q 976 -91 1021 -85 q 890 -97 932 -97 m 758 432 q 849 473 796 446 q 957 547 901 500 q 1043 640 1013 593 q 1074 713 1074 688 q 1049 733 1074 733 q 1025 729 1040 733 q 758 432 883 689 m 274 10 q 354 18 307 10 q 431 40 401 26 l 240 158 q 152 210 181 196 q 104 225 124 225 q 69 175 69 225 q 133 61 69 110 q 200 24 164 38 q 274 10 236 10 m 1179 -489 q 1078 -475 1128 -489 q 997 -429 1029 -461 q 964 -344 964 -397 q 974 -283 964 -314 q 1051 -167 993 -221 q 1191 -67 1108 -112 q 1368 17 1274 -21 q 1558 82 1463 54 q 1737 128 1653 110 q 1879 156 1821 147 q 1917 268 1900 206 q 1944 394 1933 331 q 1954 511 1954 457 q 1937 619 1954 568 q 1881 701 1919 669 q 1779 733 1843 733 q 1642 709 1715 733 q 1499 644 1569 685 q 1369 549 1428 603 q 1276 438 1311 496 q 1242 324 1242 381 q 1259 273 1242 292 q 1302 247 1276 254 q 1354 240 1328 240 q 1451 258 1401 240 q 1544 302 1500 276 q 1615 350 1588 328 q 1632 354 1626 354 q 1644 346 1644 354 q 1638 332 1644 342 q 1561 268 1611 299 q 1455 218 1511 238 q 1353 199 1399 199 q 1271 214 1311 199 q 1204 261 1231 229 q 1178 340 1178 293 q 1221 475 1178 411 q 1333 592 1264 539 q 1484 683 1403 644 q 1643 743 1565 722 q 1781 764 1721 764 q 1976 695 1914 764 q 2039 500 2039 626 q 2019 326 2039 415 q 1969 157 1999 238 l 1989 157 q 2022 153 2001 157 q 2059 141 2042 149 q 2078 121 2076 133 l 2078 117 q 2056 99 2078 99 q 2010 117 2036 113 q 1957 118 1983 121 q 1861 -51 1921 35 q 1724 -215 1801 -137 q 1558 -355 1647 -293 q 1372 -453 1468 -417 q 1179 -489 1276 -489 m 1183 -460 q 1369 -419 1281 -457 q 1536 -321 1458 -382 q 1677 -185 1614 -260 q 1788 -33 1740 -111 q 1865 114 1836 44 q 1733 88 1811 107 q 1565 39 1654 68 q 1387 -29 1475 10 q 1224 -115 1299 -68 q 1099 -218 1149 -162 q 1038 -336 1049 -274 q 1036 -347 1036 -342 q 1036 -358 1036 -353 q 1075 -434 1036 -407 q 1183 -460 1114 -461 z "},"Ĺ":{"ha":1157,"x_min":7,"x_max":1149,"o":"m 890 -97 q 697 -73 804 -97 q 475 11 590 -49 q 374 -27 426 -14 q 278 -40 322 -40 q 89 18 171 -40 q 7 163 7 79 q 15 212 7 182 q 46 265 22 242 q 117 289 69 289 q 192 261 144 289 q 307 188 240 233 q 422 108 378 140 q 474 69 465 75 q 551 177 515 113 q 629 336 588 242 q 559 325 590 329 q 494 321 528 321 q 361 338 414 321 q 310 377 329 351 q 292 429 292 403 q 328 488 292 457 q 424 547 364 519 q 617 597 531 597 q 636 588 636 597 q 614 572 636 576 l 601 569 q 579 566 592 568 q 550 558 567 564 q 400 497 449 531 q 351 432 351 464 q 500 369 351 369 q 573 374 536 369 q 651 390 610 379 q 694 484 674 444 q 729 550 715 524 q 783 636 754 593 q 842 708 811 679 q 932 772 890 753 q 1015 792 974 792 q 1105 769 1072 792 q 1138 708 1138 747 q 1113 626 1138 672 q 1032 531 1088 579 q 969 483 1006 508 q 892 437 932 458 q 819 401 853 415 l 719 360 q 694 305 710 339 q 664 240 679 271 q 639 194 649 210 q 581 108 611 147 q 524 49 550 69 q 599 16 553 31 q 696 -10 644 1 q 793 -26 747 -21 q 869 -32 839 -32 q 952 -30 911 -32 q 1024 -19 993 -28 q 1076 9 1051 -12 q 1100 57 1100 31 q 1081 99 1100 79 q 1055 117 1068 108 q 1042 131 1042 126 q 1061 146 1042 146 q 1070 144 1065 146 q 1083 139 1075 142 q 1133 90 1117 118 q 1149 38 1149 63 q 1124 -28 1149 -1 q 1060 -69 1100 -54 q 976 -91 1021 -85 q 890 -97 932 -97 m 758 432 q 849 473 796 446 q 957 547 901 500 q 1043 640 1013 593 q 1074 713 1074 688 q 1049 733 1074 733 q 1025 729 1040 733 q 758 432 883 689 m 274 10 q 354 18 307 10 q 431 40 401 26 l 240 158 q 152 210 181 196 q 104 225 124 225 q 69 175 69 225 q 133 61 69 110 q 200 24 164 38 q 274 10 236 10 m 899 826 q 888 838 888 826 q 894 847 890 844 q 969 901 929 875 q 1053 954 1010 928 q 1070 963 1064 961 q 1082 964 1076 964 q 1092 954 1089 963 q 1096 935 1096 946 q 1091 917 1096 925 q 1081 907 1086 910 q 1051 890 1076 903 q 992 863 1025 878 q 932 836 958 847 q 899 826 906 825 z "},"Ľ":{"ha":1157,"x_min":7,"x_max":1282,"o":"m 890 -97 q 697 -73 804 -97 q 475 11 590 -49 q 374 -27 426 -14 q 278 -40 322 -40 q 89 18 171 -40 q 7 163 7 79 q 15 212 7 182 q 46 265 22 242 q 117 289 69 289 q 192 261 144 289 q 307 188 240 233 q 422 108 378 140 q 474 69 465 75 q 551 177 515 113 q 629 336 588 242 q 559 325 590 329 q 494 321 528 321 q 361 338 414 321 q 310 377 329 351 q 292 429 292 403 q 328 488 292 457 q 424 547 364 519 q 617 597 531 597 q 636 588 636 597 q 614 572 636 576 l 601 569 q 579 566 592 568 q 550 558 567 564 q 400 497 449 531 q 351 432 351 464 q 500 369 351 369 q 573 374 536 369 q 651 390 610 379 q 694 484 674 444 q 729 550 715 524 q 783 636 754 593 q 842 708 811 679 q 932 772 890 753 q 1015 792 974 792 q 1105 769 1072 792 q 1138 708 1138 747 q 1113 626 1138 672 q 1032 531 1088 579 q 969 483 1006 508 q 892 437 932 458 q 819 401 853 415 l 719 360 q 694 305 710 339 q 664 240 679 271 q 639 194 649 210 q 581 108 611 147 q 524 49 550 69 q 599 16 553 31 q 696 -10 644 1 q 793 -26 747 -21 q 869 -32 839 -32 q 952 -30 911 -32 q 1024 -19 993 -28 q 1076 9 1051 -12 q 1100 57 1100 31 q 1081 99 1100 79 q 1055 117 1068 108 q 1042 131 1042 126 q 1061 146 1042 146 q 1070 144 1065 146 q 1083 139 1075 142 q 1133 90 1117 118 q 1149 38 1149 63 q 1124 -28 1149 -1 q 1060 -69 1100 -54 q 976 -91 1021 -85 q 890 -97 932 -97 m 758 432 q 849 473 796 446 q 957 547 901 500 q 1043 640 1013 593 q 1074 713 1074 688 q 1049 733 1074 733 q 1025 729 1040 733 q 758 432 883 689 m 274 10 q 354 18 307 10 q 431 40 401 26 l 240 158 q 152 210 181 196 q 104 225 124 225 q 69 175 69 225 q 133 61 69 110 q 200 24 164 38 q 274 10 236 10 m 1185 606 q 1179 611 1179 606 q 1188 628 1179 619 q 1203 655 1192 635 q 1226 722 1214 675 q 1206 757 1206 726 q 1217 787 1206 775 q 1246 799 1228 799 q 1282 760 1282 799 q 1273 720 1282 746 q 1250 668 1264 694 q 1219 624 1236 642 q 1185 606 1201 606 z "},"Ļ":{"ha":1157,"x_min":7,"x_max":1149,"o":"m 890 -97 q 697 -73 804 -97 q 475 11 590 -49 q 374 -27 426 -14 q 278 -40 322 -40 q 89 18 171 -40 q 7 163 7 79 q 15 212 7 182 q 46 265 22 242 q 117 289 69 289 q 192 261 144 289 q 307 188 240 233 q 422 108 378 140 q 474 69 465 75 q 551 177 515 113 q 629 336 588 242 q 559 325 590 329 q 494 321 528 321 q 361 338 414 321 q 310 377 329 351 q 292 429 292 403 q 328 488 292 457 q 424 547 364 519 q 617 597 531 597 q 636 588 636 597 q 614 572 636 576 l 601 569 q 579 566 592 568 q 550 558 567 564 q 400 497 449 531 q 351 432 351 464 q 500 369 351 369 q 573 374 536 369 q 651 390 610 379 q 694 484 674 444 q 729 550 715 524 q 783 636 754 593 q 842 708 811 679 q 932 772 890 753 q 1015 792 974 792 q 1105 769 1072 792 q 1138 708 1138 747 q 1113 626 1138 672 q 1032 531 1088 579 q 969 483 1006 508 q 892 437 932 458 q 819 401 853 415 l 719 360 q 694 305 710 339 q 664 240 679 271 q 639 194 649 210 q 581 108 611 147 q 524 49 550 69 q 599 16 553 31 q 696 -10 644 1 q 793 -26 747 -21 q 869 -32 839 -32 q 952 -30 911 -32 q 1024 -19 993 -28 q 1076 9 1051 -12 q 1100 57 1100 31 q 1081 99 1100 79 q 1055 117 1068 108 q 1042 131 1042 126 q 1061 146 1042 146 q 1070 144 1065 146 q 1083 139 1075 142 q 1133 90 1117 118 q 1149 38 1149 63 q 1124 -28 1149 -1 q 1060 -69 1100 -54 q 976 -91 1021 -85 q 890 -97 932 -97 m 758 432 q 849 473 796 446 q 957 547 901 500 q 1043 640 1013 593 q 1074 713 1074 688 q 1049 733 1074 733 q 1025 729 1040 733 q 758 432 883 689 m 274 10 q 354 18 307 10 q 431 40 401 26 l 240 158 q 152 210 181 196 q 104 225 124 225 q 69 175 69 225 q 133 61 69 110 q 200 24 164 38 q 274 10 236 10 m 538 -317 q 531 -311 531 -317 q 539 -296 531 -304 q 541 -292 539 -294 q 542 -292 543 -290 q 569 -258 551 -281 q 593 -218 588 -236 q 574 -190 574 -211 q 586 -160 574 -174 q 614 -146 599 -146 q 646 -179 646 -146 q 603 -262 646 -210 q 551 -312 575 -299 q 544 -315 549 -314 q 538 -317 540 -317 z "},"Ŀ":{"ha":1157,"x_min":7,"x_max":1149,"o":"m 890 -97 q 697 -73 804 -97 q 475 11 590 -49 q 374 -27 426 -14 q 278 -40 322 -40 q 89 18 171 -40 q 7 163 7 79 q 15 212 7 182 q 46 265 22 242 q 117 289 69 289 q 192 261 144 289 q 307 188 240 233 q 422 108 378 140 q 474 69 465 75 q 551 177 515 113 q 629 336 588 242 q 559 325 590 329 q 494 321 528 321 q 361 338 414 321 q 310 377 329 351 q 292 429 292 403 q 328 488 292 457 q 424 547 364 519 q 617 597 531 597 q 636 588 636 597 q 614 572 636 576 l 601 569 q 579 566 592 568 q 550 558 567 564 q 400 497 449 531 q 351 432 351 464 q 500 369 351 369 q 573 374 536 369 q 651 390 610 379 q 694 484 674 444 q 729 550 715 524 q 783 636 754 593 q 842 708 811 679 q 932 772 890 753 q 1015 792 974 792 q 1105 769 1072 792 q 1138 708 1138 747 q 1113 626 1138 672 q 1032 531 1088 579 q 969 483 1006 508 q 892 437 932 458 q 819 401 853 415 l 719 360 q 694 305 710 339 q 664 240 679 271 q 639 194 649 210 q 581 108 611 147 q 524 49 550 69 q 599 16 553 31 q 696 -10 644 1 q 793 -26 747 -21 q 869 -32 839 -32 q 952 -30 911 -32 q 1024 -19 993 -28 q 1076 9 1051 -12 q 1100 57 1100 31 q 1081 99 1100 79 q 1055 117 1068 108 q 1042 131 1042 126 q 1061 146 1042 146 q 1070 144 1065 146 q 1083 139 1075 142 q 1133 90 1117 118 q 1149 38 1149 63 q 1124 -28 1149 -1 q 1060 -69 1100 -54 q 976 -91 1021 -85 q 890 -97 932 -97 m 758 432 q 849 473 796 446 q 957 547 901 500 q 1043 640 1013 593 q 1074 713 1074 688 q 1049 733 1074 733 q 1025 729 1040 733 q 758 432 883 689 m 274 10 q 354 18 307 10 q 431 40 401 26 l 240 158 q 152 210 181 196 q 104 225 124 225 q 69 175 69 225 q 133 61 69 110 q 200 24 164 38 q 274 10 236 10 m 842 154 q 812 165 824 154 q 800 193 800 176 q 816 228 800 214 q 854 243 832 243 q 883 233 872 243 q 894 206 894 222 q 879 169 894 185 q 842 154 864 154 z "},"ǈ":{"ha":1429,"x_min":7,"x_max":1436,"o":"m 890 -97 q 697 -73 804 -97 q 475 11 590 -49 q 374 -27 426 -14 q 278 -40 322 -40 q 89 18 171 -40 q 7 163 7 79 q 15 212 7 182 q 46 265 22 242 q 117 289 69 289 q 192 261 144 289 q 307 188 240 233 q 422 108 378 140 q 474 69 465 75 q 551 177 515 113 q 629 336 588 242 q 559 325 590 329 q 494 321 528 321 q 361 338 414 321 q 310 377 329 351 q 292 429 292 403 q 328 488 292 457 q 424 547 364 519 q 617 597 531 597 q 636 588 636 597 q 614 572 636 576 l 601 569 q 579 566 592 568 q 550 558 567 564 q 400 497 449 531 q 351 432 351 464 q 500 369 351 369 q 573 374 536 369 q 651 390 610 379 q 694 484 674 444 q 729 550 715 524 q 783 636 754 593 q 842 708 811 679 q 932 772 890 753 q 1015 792 974 792 q 1105 769 1072 792 q 1138 708 1138 747 q 1113 626 1138 672 q 1032 531 1088 579 q 969 483 1006 508 q 892 437 932 458 q 819 401 853 415 l 719 360 q 694 305 710 339 q 664 240 679 271 q 639 194 649 210 q 581 108 611 147 q 524 49 550 69 q 599 16 553 31 q 696 -10 644 1 q 793 -26 747 -21 q 869 -32 839 -32 q 952 -30 911 -32 q 1024 -19 993 -28 q 1076 9 1051 -12 q 1100 57 1100 31 q 1081 99 1100 79 q 1055 117 1068 108 q 1042 131 1042 126 q 1061 146 1042 146 q 1070 144 1065 146 q 1083 139 1075 142 q 1133 90 1117 118 q 1149 38 1149 63 q 1124 -28 1149 -1 q 1060 -69 1100 -54 q 976 -91 1021 -85 q 890 -97 932 -97 m 758 432 q 849 473 796 446 q 957 547 901 500 q 1043 640 1013 593 q 1074 713 1074 688 q 1049 733 1074 733 q 1025 729 1040 733 q 758 432 883 689 m 274 10 q 354 18 307 10 q 431 40 401 26 l 240 158 q 152 210 181 196 q 104 225 124 225 q 69 175 69 225 q 133 61 69 110 q 200 24 164 38 q 274 10 236 10 m 1385 415 q 1349 430 1364 415 q 1335 465 1335 444 q 1349 501 1335 486 q 1385 517 1364 517 q 1421 501 1406 517 q 1436 465 1436 486 q 1421 430 1436 444 q 1385 415 1406 415 m 714 -565 q 625 -551 669 -565 q 551 -506 581 -537 q 522 -424 522 -475 q 562 -308 522 -362 q 667 -207 601 -254 q 814 -120 733 -160 q 976 -51 894 -81 q 1130 -3 1058 -22 q 1250 21 1201 15 q 1270 77 1260 44 q 1288 141 1281 110 q 1296 190 1294 172 q 1265 153 1285 178 q 1218 107 1246 128 q 1208 104 1215 104 q 1196 110 1200 104 q 1199 122 1192 115 l 1235 158 q 1288 233 1271 201 q 1318 304 1306 265 q 1341 334 1325 324 q 1372 344 1357 344 q 1396 337 1386 344 q 1406 313 1406 329 q 1398 257 1406 293 q 1378 178 1390 221 q 1354 94 1367 136 q 1332 22 1342 53 q 1365 18 1342 22 q 1410 7 1389 14 q 1431 -12 1431 0 q 1426 -22 1431 -22 q 1413 -21 1421 -22 q 1369 -10 1386 -14 q 1333 -8 1351 -6 l 1326 -10 q 1232 -201 1290 -103 q 1095 -381 1174 -299 q 921 -515 1017 -464 q 714 -565 825 -565 m 731 -528 q 873 -496 806 -528 q 998 -410 940 -464 q 1103 -288 1056 -356 q 1185 -151 1150 -221 q 1242 -17 1219 -81 q 1135 -37 1199 -21 q 999 -78 1072 -53 q 855 -136 926 -103 q 724 -210 783 -169 q 628 -298 665 -251 q 588 -396 590 -344 l 586 -418 q 606 -478 585 -453 q 662 -515 628 -503 q 731 -528 696 -528 z "},"Ł":{"ha":1157,"x_min":7,"x_max":1147,"o":"m 867 -90 q 681 -72 781 -90 q 463 3 582 -54 q 367 -33 411 -24 q 278 -43 322 -43 q 89 14 171 -43 q 7 156 7 72 q 31 229 7 200 q 107 268 60 268 q 178 250 133 268 q 289 183 224 232 q 413 88 368 125 q 468 46 458 51 q 592 226 531 108 q 494 189 540 208 q 407 150 447 169 l 401 149 q 399 154 399 149 q 401 170 399 161 q 406 183 404 179 q 408 189 407 186 q 413 193 408 192 q 514 230 465 213 q 610 261 563 247 q 624 294 619 279 q 638 329 628 310 q 560 315 597 319 q 488 310 524 310 q 357 328 407 310 q 285 407 285 351 q 321 468 285 436 q 421 528 357 500 q 617 579 538 579 q 636 567 636 579 q 617 554 636 558 q 591 549 607 553 q 554 540 575 546 q 343 415 343 485 q 385 370 343 383 q 503 357 426 357 q 583 363 542 357 q 667 379 624 368 q 706 470 690 433 q 736 533 722 507 q 792 621 761 578 q 854 693 824 664 q 943 752 901 738 q 1025 767 985 767 q 1135 692 1135 767 q 1107 604 1135 653 q 1022 507 1079 556 q 926 442 978 469 q 818 390 875 415 l 713 347 q 697 314 704 329 q 682 283 690 299 q 808 315 747 301 q 924 339 868 329 q 926 336 926 339 q 921 322 926 331 q 911 313 915 314 q 667 251 789 289 q 647 211 657 229 q 629 179 636 193 q 569 91 599 128 q 510 31 540 54 q 588 7 543 17 q 688 -14 632 -3 q 789 -31 742 -25 q 874 -36 836 -36 q 1021 -19 957 -36 q 1086 8 1065 -8 q 1107 50 1107 24 q 1082 88 1107 67 q 1056 114 1056 107 q 1069 125 1056 125 q 1083 121 1078 125 q 1147 40 1147 85 q 1117 -20 1147 6 q 1039 -64 1088 -46 q 958 -84 1001 -78 q 867 -90 915 -90 m 757 418 q 844 460 794 429 q 953 540 893 492 q 1081 701 1081 647 q 1053 728 1081 728 q 1026 724 1042 728 q 757 418 882 682 m 274 -7 q 404 25 343 -7 l 246 132 q 103 219 119 219 q 68 164 68 219 q 132 46 68 97 q 274 -7 200 -7 z "},"M":{"ha":1915,"x_min":-97,"x_max":1901,"o":"m 1714 -93 q 1638 -72 1667 -93 q 1610 -4 1610 -51 q 1651 158 1610 57 q 1686 237 1667 194 q 1744 347 1706 279 q 1774 400 1757 369 q 1806 461 1792 431 q 1817 494 1814 481 q 1821 517 1821 507 q 1808 532 1821 532 q 1692 484 1765 532 q 1507 338 1618 436 q 1366 201 1428 267 q 1249 69 1304 135 l 1192 0 q 1181 -15 1188 -7 q 1165 -33 1174 -24 q 1143 -36 1154 -36 q 1097 -30 1117 -36 q 1076 -7 1076 -24 q 1082 7 1076 1 q 1101 35 1086 10 q 1146 113 1115 61 q 1269 351 1229 254 q 1317 511 1308 447 q 1318 524 1318 518 q 1318 536 1318 531 q 1310 575 1318 560 q 1281 588 1303 590 q 1190 551 1246 583 q 1051 446 1133 519 q 869 263 958 361 q 699 53 781 165 l 661 1 q 618 -44 633 -35 q 606 -46 614 -46 q 572 -36 588 -46 q 557 -12 557 -26 q 563 4 557 -1 q 662 126 611 51 q 765 299 713 201 q 883 618 883 518 q 844 719 883 688 q 711 751 804 751 q 606 744 661 751 q 482 715 551 736 q 392 685 435 701 q 292 644 349 669 q 107 547 192 600 q -21 413 -21 467 q 164 335 -21 335 q 272 341 218 335 q 382 353 326 347 l 383 353 q 393 344 393 353 q 382 329 393 333 q 294 312 347 319 q 172 304 242 304 q 0 326 68 304 q -97 425 -97 357 q 32 581 -97 499 q 131 635 78 608 q 244 685 183 663 q 348 720 297 704 q 457 750 399 736 q 607 778 535 769 q 738 786 679 786 q 985 632 985 786 q 864 314 985 508 q 962 411 913 361 q 1057 504 1011 461 q 1185 601 1128 569 q 1285 633 1243 633 q 1366 600 1336 633 q 1396 504 1396 567 q 1367 369 1396 450 q 1286 185 1339 288 q 1407 298 1351 244 q 1531 404 1463 351 q 1797 571 1717 550 q 1825 576 1808 574 q 1850 579 1842 579 q 1901 524 1901 579 q 1868 411 1901 478 q 1811 301 1838 353 q 1761 200 1785 249 q 1710 74 1726 128 q 1693 -11 1693 21 q 1739 -61 1693 -61 q 1804 -37 1764 -61 q 1851 -14 1844 -14 q 1858 -21 1858 -14 q 1840 -48 1858 -35 q 1797 -72 1821 -61 q 1714 -93 1750 -93 z "},"N":{"ha":1519,"x_min":3,"x_max":1519,"o":"m 708 -54 q 672 -43 690 -54 q 653 -17 653 -32 q 658 0 653 -6 q 755 111 707 47 q 863 282 803 175 q 975 517 940 421 q 1010 653 1010 614 q 972 744 1010 706 q 842 783 935 783 q 699 770 776 783 q 544 733 622 757 q 392 680 465 710 q 258 617 318 650 q 71 418 71 513 q 204 339 71 339 q 280 345 240 339 q 379 365 319 351 q 390 367 386 367 q 397 368 394 368 q 411 360 411 368 q 321 319 411 336 q 256 310 286 314 q 203 306 226 306 q 54 336 106 306 q 3 428 3 367 q 47 539 3 485 q 189 649 90 593 q 355 727 263 689 q 538 788 447 765 q 678 813 610 806 q 806 821 746 821 q 1019 769 949 821 q 1089 626 1089 717 q 1063 489 1089 563 q 972 319 1036 415 q 1067 417 1021 367 q 1161 511 1114 468 q 1292 608 1233 576 q 1393 640 1350 640 q 1519 543 1519 640 q 1498 441 1519 503 q 1425 290 1476 379 q 1344 139 1375 201 q 1313 50 1313 76 q 1361 8 1313 8 q 1396 13 1375 8 q 1435 28 1417 17 q 1463 47 1454 39 q 1476 56 1472 56 q 1483 49 1483 56 q 1474 20 1483 35 q 1440 -6 1464 6 q 1394 -22 1415 -15 q 1354 -28 1374 -28 q 1267 -4 1294 -28 q 1240 58 1240 19 q 1251 115 1240 85 q 1279 176 1261 144 q 1293 200 1282 179 q 1318 247 1304 221 q 1343 295 1332 274 q 1357 321 1354 317 q 1394 392 1375 354 q 1422 458 1413 431 q 1439 514 1435 494 q 1443 547 1443 533 q 1430 585 1443 575 q 1397 594 1417 594 q 1367 590 1382 594 q 1338 579 1351 586 q 1207 490 1278 550 q 1042 336 1136 431 q 913 195 975 269 q 794 44 850 121 q 767 5 782 28 q 738 -35 753 -18 q 708 -54 724 -51 z "},"Ǌ":{"ha":2449,"x_min":3,"x_max":2440,"o":"m 708 -54 q 672 -43 690 -54 q 653 -17 653 -32 q 658 0 653 -6 q 755 111 707 47 q 863 282 803 175 q 975 517 940 421 q 1010 653 1010 614 q 972 744 1010 706 q 842 783 935 783 q 699 770 776 783 q 544 733 622 757 q 392 680 465 710 q 258 617 318 650 q 71 418 71 513 q 204 339 71 339 q 280 345 240 339 q 379 365 319 351 q 390 367 386 367 q 397 368 394 368 q 411 360 411 368 q 321 319 411 336 q 256 310 286 314 q 203 306 226 306 q 54 336 106 306 q 3 428 3 367 q 47 539 3 485 q 189 649 90 593 q 355 727 263 689 q 538 788 447 765 q 678 813 610 806 q 806 821 746 821 q 1019 769 949 821 q 1089 626 1089 717 q 1063 489 1089 563 q 972 319 1036 415 q 1067 417 1021 367 q 1161 511 1114 468 q 1292 608 1233 576 q 1393 640 1350 640 q 1519 543 1519 640 q 1498 441 1519 503 q 1425 290 1476 379 q 1344 139 1375 201 q 1313 50 1313 76 q 1361 8 1313 8 q 1396 13 1375 8 q 1435 28 1417 17 q 1463 47 1454 39 q 1476 56 1472 56 q 1483 49 1483 56 q 1474 20 1483 35 q 1440 -6 1464 6 q 1394 -22 1415 -15 q 1354 -28 1374 -28 q 1267 -4 1294 -28 q 1240 58 1240 19 q 1251 115 1240 85 q 1279 176 1261 144 q 1293 200 1282 179 q 1318 247 1304 221 q 1343 295 1332 274 q 1357 321 1354 317 q 1394 392 1375 354 q 1422 458 1413 431 q 1439 514 1435 494 q 1443 547 1443 533 q 1430 585 1443 575 q 1397 594 1417 594 q 1367 590 1382 594 q 1338 579 1351 586 q 1207 490 1278 550 q 1042 336 1136 431 q 913 195 975 269 q 794 44 850 121 q 767 5 782 28 q 738 -35 753 -18 q 708 -54 724 -51 m 1542 -489 q 1441 -475 1490 -489 q 1359 -429 1392 -461 q 1326 -344 1326 -397 q 1336 -283 1326 -314 q 1413 -167 1356 -221 q 1553 -67 1471 -112 q 1731 17 1636 -21 q 1920 82 1825 54 q 2099 128 2015 110 q 2242 156 2183 147 q 2279 268 2263 206 q 2306 394 2296 331 q 2317 511 2317 457 q 2299 619 2317 568 q 2244 701 2282 669 q 2142 733 2206 733 q 2005 709 2078 733 q 1861 644 1932 685 q 1732 549 1790 603 q 1639 438 1674 496 q 1604 324 1604 381 q 1622 273 1604 292 q 1665 247 1639 254 q 1717 240 1690 240 q 1813 258 1764 240 q 1906 302 1863 276 q 1978 350 1950 328 q 1994 354 1989 354 q 2007 346 2007 354 q 2000 332 2007 342 q 1924 268 1974 299 q 1817 218 1874 238 q 1715 199 1761 199 q 1633 214 1674 199 q 1567 261 1593 229 q 1540 340 1540 293 q 1583 475 1540 411 q 1696 592 1626 539 q 1847 683 1765 644 q 2006 743 1928 722 q 2143 764 2083 764 q 2339 695 2276 764 q 2401 500 2401 626 q 2381 326 2401 415 q 2332 157 2361 238 l 2351 157 q 2384 153 2364 157 q 2422 141 2404 149 q 2440 121 2439 133 l 2440 117 q 2418 99 2440 99 q 2372 117 2399 113 q 2319 118 2346 121 q 2224 -51 2283 35 q 2087 -215 2164 -137 q 1920 -355 2010 -293 q 1735 -453 1831 -417 q 1542 -489 1639 -489 m 1546 -460 q 1732 -419 1643 -457 q 1899 -321 1821 -382 q 2040 -185 1976 -260 q 2151 -33 2103 -111 q 2228 114 2199 44 q 2095 88 2174 107 q 1927 39 2017 68 q 1749 -29 1838 10 q 1586 -115 1661 -68 q 1461 -218 1511 -162 q 1400 -336 1411 -274 q 1399 -347 1399 -342 q 1399 -358 1399 -353 q 1438 -434 1399 -407 q 1546 -460 1476 -461 z "}}}
